<?xml version="1.0" standalone="no"?>
<!DOCTYPE svg PUBLIC "-//W3C//DTD SVG 1.1//EN" "http://www.w3.org/Graphics/SVG/1.1/DTD/svg11.dtd" >
<svg xmlns="http://www.w3.org/2000/svg" xmlns:xlink="http://www.w3.org/1999/xlink" version="1.1">
<metadata>
Created by FontForge 20170104 at Tue Nov 30 15:35:48 2010
 By myTaste
Copyright (c) Mark Simonson, 2005. All rights reserved.
</metadata>
<defs>
<font id="ProximaNovaCond-Extrabld" horiz-adv-x="517" >
  <font-face 
    font-family="Proxima Nova Cn Th"
    font-weight="800"
    font-stretch="normal"
    units-per-em="1000"
    panose-1="2 0 5 6 3 0 0 2 0 4"
    ascent="790"
    descent="-210"
    x-height="483"
    cap-height="667"
    bbox="-135 -293 1026 891"
    underline-thickness="20"
    underline-position="-133"
    stemh="141"
    stemv="145"
    unicode-range="U+000D-FB04"
  />
<missing-glyph horiz-adv-x="458" 
d="M404 -90h-351v842h351v-842zM372 -60v782h-288v-782h288z" />
    <glyph glyph-name="f_b" unicode="fb" horiz-adv-x="822" 
d="M218 0h-145v357h-62v126h62v29c0 103 61 165 152 165c37 0 66 -6 90 -18l-25 -107c-6 5 -17 9 -29 9c-26 0 -43 -18 -43 -49v-29h78v-126h-78v-357zM499 161c14 -27 44 -45 71 -45c52 0 82 51 82 126c0 74 -30 125 -82 125c-27 0 -57 -19 -71 -45v-161zM499 0h-145v667
h145v-241c29 48 75 69 119 69c109 0 182 -97 182 -253c0 -162 -74 -254 -182 -254c-44 0 -88 22 -119 69v-57z" />
    <glyph glyph-name="f_f" unicode="ff" horiz-adv-x="611" 
d="M218 0h-145v357h-62v126h62v29c0 103 60 165 158 165c44 0 89 -12 115 -37l-43 -96c-11 11 -23 17 -41 17c-26 0 -44 -18 -44 -49v-29h78v-126h-78v-357zM524 0h-145v357h-62v126h62v29c0 103 60 165 158 165c44 0 89 -12 115 -37l-43 -96c-11 11 -23 17 -41 17
c-26 0 -44 -18 -44 -49v-29h78v-126h-78v-357z" />
    <glyph glyph-name="f_h" unicode="fh" horiz-adv-x="823" 
d="M218 0h-145v357h-62v126h62v29c0 103 61 165 152 165c37 0 66 -6 90 -18l-25 -107c-6 5 -17 9 -29 9c-26 0 -43 -18 -43 -49v-29h78v-126h-78v-357zM775 0h-144v307c0 44 -21 60 -57 60c-35 0 -61 -26 -75 -51v-316h-144v667h144v-244c24 36 79 72 143 72
c93 0 133 -53 133 -131v-364z" />
    <glyph glyph-name="fi" unicode="fi" horiz-adv-x="547" 
d="M218 0h-145v357h-62v126h62v29c0 103 61 165 152 165c37 0 66 -6 90 -18l-25 -107c-6 5 -17 9 -29 9c-26 0 -43 -18 -43 -49v-29h78v-126h-78v-357zM427 529c-47 0 -84 38 -84 84c0 47 37 84 84 84c46 0 83 -37 83 -84c0 -46 -37 -84 -83 -84zM499 0h-145v483h145v-483z
" />
    <glyph glyph-name="f_j" unicode="fj" horiz-adv-x="547" 
d="M218 0h-145v357h-62v126h62v29c0 103 61 165 152 165c37 0 66 -6 90 -18l-25 -107c-6 5 -17 9 -29 9c-26 0 -43 -18 -43 -49v-29h78v-126h-78v-357zM427 529c-47 0 -84 38 -84 84c0 47 37 84 84 84c46 0 83 -37 83 -84c0 -46 -37 -84 -83 -84zM331 -196
c-47 0 -70 8 -98 27l33 110c12 -11 23 -16 43 -16c28 0 45 19 45 63v495h145v-495c0 -113 -52 -184 -168 -184z" />
    <glyph glyph-name="f_k" unicode="fk" horiz-adv-x="791" 
d="M218 0h-145v357h-62v126h62v29c0 103 61 165 152 165c37 0 66 -6 90 -18l-25 -107c-6 5 -17 9 -29 9c-26 0 -43 -18 -43 -49v-29h78v-126h-78v-357zM794 0h-169l-84 175l-42 -63v-112h-145v667h145v-381l120 197h167l-145 -217z" />
    <glyph glyph-name="fl" unicode="fl" horiz-adv-x="547" 
d="M218 0h-145v357h-62v126h62v29c0 103 61 165 152 165c37 0 66 -6 90 -18l-25 -107c-6 5 -17 9 -29 9c-26 0 -43 -18 -43 -49v-29h78v-126h-78v-357zM499 0h-145v667h145v-667z" />
    <glyph glyph-name="f_f_i" unicode="ffi" horiz-adv-x="853" 
d="M524 0h-145v357h-62v126h62v29c0 103 61 165 152 165c37 0 66 -6 90 -18l-25 -107c-6 5 -17 9 -29 9c-26 0 -43 -18 -43 -49v-29h78v-126h-78v-357zM732 529c-47 0 -84 38 -84 84c0 47 37 84 84 84c46 0 83 -37 83 -84c0 -46 -37 -84 -83 -84zM804 0h-145v483h145v-483z
M218 0h-145v357h-62v126h62v29c0 103 60 165 158 165c44 0 89 -12 115 -37l-43 -96c-11 11 -23 17 -41 17c-26 0 -44 -18 -44 -49v-29h78v-126h-78v-357z" />
    <glyph glyph-name="f_f_j" unicode="ffj" horiz-adv-x="853" 
d="M524 0h-145v357h-62v126h62v29c0 103 61 165 152 165c37 0 66 -6 90 -18l-25 -107c-6 5 -17 9 -29 9c-26 0 -43 -18 -43 -49v-29h78v-126h-78v-357zM732 529c-47 0 -84 38 -84 84c0 47 37 84 84 84c46 0 83 -37 83 -84c0 -46 -37 -84 -83 -84zM636 -196
c-47 0 -70 8 -98 27l33 110c12 -11 23 -16 43 -16c28 0 45 19 45 63v495h145v-495c0 -113 -52 -184 -168 -184zM218 0h-145v357h-62v126h62v29c0 103 60 165 158 165c44 0 89 -12 115 -37l-43 -96c-11 11 -23 17 -41 17c-26 0 -44 -18 -44 -49v-29h78v-126h-78v-357z" />
    <glyph glyph-name="f_f_l" unicode="ffl" horiz-adv-x="853" 
d="M524 0h-145v357h-62v126h62v29c0 103 61 165 152 165c37 0 66 -6 90 -18l-25 -107c-6 5 -17 9 -29 9c-26 0 -43 -18 -43 -49v-29h78v-126h-78v-357zM804 0h-145v667h145v-667zM218 0h-145v357h-62v126h62v29c0 103 60 165 158 165c44 0 89 -12 115 -37l-43 -96
c-11 11 -23 17 -41 17c-26 0 -44 -18 -44 -49v-29h78v-126h-78v-357z" />
    <glyph glyph-name=".notdef" horiz-adv-x="458" 
d="M404 -90h-351v842h351v-842zM372 -60v782h-288v-782h288z" />
    <glyph glyph-name=".null" horiz-adv-x="0" 
 />
    <glyph glyph-name=".null" horiz-adv-x="0" 
 />
    <glyph glyph-name="CR" unicode="&#xd;" horiz-adv-x="0" 
 />
    <glyph glyph-name="space" unicode=" " horiz-adv-x="207" 
 />
    <glyph glyph-name="nbspace" unicode="&#xa0;" horiz-adv-x="207" 
 />
    <glyph glyph-name="thinspace" unicode="&#x2009;" horiz-adv-x="41" 
 />
    <glyph glyph-name="zero" unicode="0" horiz-adv-x="549" 
d="M275 -12c-171 0 -250 168 -250 345s79 344 250 344s249 -167 249 -344s-78 -345 -249 -345zM275 131c64 0 85 75 85 202c0 128 -21 201 -85 201c-65 0 -86 -73 -86 -201c0 -127 21 -202 86 -202z" />
    <glyph glyph-name="zero.pzero" horiz-adv-x="549" 
d="M275 -12c-52 0 -96 15 -131 41l-17 -29h-100l57 97c-40 64 -59 149 -59 236c0 177 79 344 250 344c50 0 93 -15 128 -40l18 30h101l-58 -97c40 -64 60 -149 60 -237c0 -177 -78 -345 -249 -345zM275 131c64 0 85 75 85 202c0 20 -1 40 -2 57l-137 -231
c13 -19 30 -28 54 -28zM189 333c0 -20 0 -39 1 -56l137 231c-13 17 -30 26 -52 26c-65 0 -86 -73 -86 -201z" />
    <glyph glyph-name="one" unicode="1" horiz-adv-x="412" 
d="M359 0h-162v460l-100 -102l-92 96l214 213h140v-667z" />
    <glyph glyph-name="two" unicode="2" horiz-adv-x="536" 
d="M503 0h-463v130c256 230 295 269 295 333c0 42 -33 71 -79 71c-58 0 -104 -25 -143 -71l-94 103c60 73 145 111 240 111c141 0 239 -84 239 -212c0 -96 -59 -175 -217 -324h222v-141z" />
    <glyph glyph-name="three" unicode="3" horiz-adv-x="533" 
d="M260 -12c-112 0 -198 46 -244 106l93 104c37 -42 92 -67 144 -67c64 0 92 31 92 70c0 48 -35 65 -98 65c-23 0 -56 0 -67 -1v144c11 -1 47 -1 63 -1c58 0 93 20 93 61c0 44 -36 65 -90 65c-49 0 -98 -21 -132 -60l-89 94c52 69 132 109 235 109c144 0 234 -65 234 -182
c0 -74 -56 -137 -129 -151c72 -10 139 -71 139 -159c0 -117 -97 -197 -244 -197z" />
    <glyph glyph-name="four" unicode="4" horiz-adv-x="540" 
d="M456 0h-162v128h-275v133l230 406h207v-398h65v-141h-65v-128zM294 269v237l-130 -237h130z" />
    <glyph glyph-name="five" unicode="5" horiz-adv-x="544" 
d="M269 -12c-105 0 -184 36 -238 102l95 106c36 -42 85 -65 138 -65c60 0 91 39 91 85c0 51 -29 84 -85 84c-43 0 -75 -16 -104 -51l-116 28v390h430v-141h-268v-140c25 31 70 53 121 53c103 0 187 -80 187 -218c0 -139 -96 -233 -251 -233z" />
    <glyph glyph-name="six" unicode="6" horiz-adv-x="542" 
d="M288 -12c-185 0 -263 155 -263 344c0 210 110 345 288 345c71 0 136 -26 178 -67l-75 -121c-27 30 -57 45 -101 45c-69 0 -126 -69 -126 -165v-8c26 46 79 78 139 78c101 0 192 -77 192 -219c0 -137 -97 -232 -232 -232zM278 131c52 0 79 43 79 83c0 64 -44 87 -83 87
c-36 0 -65 -21 -86 -51c4 -57 26 -119 90 -119z" />
    <glyph glyph-name="seven" unicode="7" horiz-adv-x="490" 
d="M270 0h-174l196 526h-274v141h456v-112z" />
    <glyph glyph-name="eight" unicode="8" horiz-adv-x="542" 
d="M271 -12c-141 0 -246 62 -246 185c0 77 55 144 125 171c-65 24 -116 77 -116 157c0 125 121 176 237 176c115 0 237 -51 237 -176c0 -80 -52 -133 -117 -157c70 -27 126 -94 126 -170c0 -123 -106 -186 -246 -186zM271 401c25 6 75 28 75 72c0 41 -29 66 -75 66
c-47 0 -75 -25 -75 -66c0 -44 50 -66 75 -72zM271 126c47 0 84 25 84 69c0 51 -57 79 -84 83c-28 -4 -84 -32 -84 -83c0 -44 36 -69 84 -69z" />
    <glyph glyph-name="nine" unicode="9" horiz-adv-x="542" 
d="M228 -11c-70 0 -136 26 -178 67l75 121c28 -30 58 -45 101 -45c75 0 127 71 127 164v9c-26 -46 -80 -78 -139 -78c-102 0 -193 77 -193 219c0 137 98 232 232 232c185 0 263 -155 263 -344c0 -210 -110 -345 -288 -345zM267 365c36 0 65 21 86 51c-4 57 -24 119 -90 119
c-51 0 -78 -43 -78 -83c0 -64 43 -87 82 -87z" />
    <glyph glyph-name="zero.tnum" unicode="&#xf639;" horiz-adv-x="551" 
d="M276 -12c-171 0 -250 168 -250 345s79 344 250 344s249 -167 249 -344s-78 -345 -249 -345zM276 131c64 0 85 75 85 202c0 128 -21 201 -85 201c-65 0 -86 -73 -86 -201c0 -127 21 -202 86 -202z" />
    <glyph glyph-name="zero.tzero" unicode="&#xf638;" horiz-adv-x="551" 
d="M276 -12c-52 0 -96 15 -131 41l-17 -29h-100l57 97c-40 64 -59 149 -59 236c0 177 79 344 250 344c50 0 93 -15 128 -40l18 30h101l-58 -97c40 -64 60 -149 60 -237c0 -177 -78 -345 -249 -345zM276 131c64 0 85 75 85 202c0 20 -1 40 -2 57l-137 -231
c13 -19 30 -28 54 -28zM190 333c0 -20 0 -39 1 -56l137 231c-13 17 -30 26 -52 26c-65 0 -86 -73 -86 -201z" />
    <glyph glyph-name="one.tnum" unicode="&#xf6dc;" horiz-adv-x="551" 
d="M429 0h-162v460l-100 -102l-92 96l214 213h140v-667z" />
    <glyph glyph-name="two.tnum" unicode="&#xf63a;" horiz-adv-x="551" 
d="M517 0h-463v130c256 230 295 269 295 333c0 42 -33 71 -79 71c-58 0 -104 -25 -143 -71l-94 103c60 73 145 111 240 111c141 0 239 -84 239 -212c0 -96 -59 -175 -217 -324h222v-141z" />
    <glyph glyph-name="three.tnum" unicode="&#xf63b;" horiz-adv-x="551" 
d="M271 -12c-112 0 -198 46 -244 106l93 104c37 -42 92 -67 144 -67c64 0 92 31 92 70c0 48 -35 65 -98 65c-23 0 -56 0 -67 -1v144c11 -1 47 -1 63 -1c58 0 93 20 93 61c0 44 -36 65 -90 65c-49 0 -98 -21 -132 -60l-89 94c52 69 132 109 235 109c144 0 234 -65 234 -182
c0 -74 -56 -137 -129 -151c72 -10 139 -71 139 -159c0 -117 -97 -197 -244 -197z" />
    <glyph glyph-name="four.tnum" unicode="&#xf63c;" horiz-adv-x="551" 
d="M460 0h-162v128h-275v133l230 406h207v-398h65v-141h-65v-128zM298 269v237l-130 -237h130z" />
    <glyph glyph-name="five.tnum" unicode="&#xf63d;" horiz-adv-x="551" 
d="M269 -12c-105 0 -184 36 -238 102l95 106c36 -42 85 -65 138 -65c60 0 91 39 91 85c0 51 -29 84 -85 84c-43 0 -75 -16 -104 -51l-116 28v390h430v-141h-268v-140c25 31 70 53 121 53c103 0 187 -80 187 -218c0 -139 -96 -233 -251 -233z" />
    <glyph glyph-name="six.tnum" unicode="&#xf63e;" horiz-adv-x="551" 
d="M294 -12c-185 0 -263 155 -263 344c0 210 110 345 288 345c71 0 136 -26 178 -67l-75 -121c-27 30 -57 45 -101 45c-69 0 -126 -69 -126 -165v-8c26 46 79 78 139 78c101 0 192 -77 192 -219c0 -137 -97 -232 -232 -232zM284 131c52 0 79 43 79 83c0 64 -44 87 -83 87
c-36 0 -65 -21 -86 -51c4 -57 26 -119 90 -119z" />
    <glyph glyph-name="seven.tnum" unicode="&#xf63f;" horiz-adv-x="551" 
d="M299 0h-174l196 526h-274v141h456v-112z" />
    <glyph glyph-name="eight.tnum" unicode="&#xf640;" horiz-adv-x="551" 
d="M275 -12c-141 0 -246 62 -246 185c0 77 55 144 125 171c-65 24 -116 77 -116 157c0 125 121 176 237 176c115 0 237 -51 237 -176c0 -80 -52 -133 -117 -157c70 -27 126 -94 126 -170c0 -123 -106 -186 -246 -186zM275 401c25 6 75 28 75 72c0 41 -29 66 -75 66
c-47 0 -75 -25 -75 -66c0 -44 50 -66 75 -72zM275 126c47 0 84 25 84 69c0 51 -57 79 -84 83c-28 -4 -84 -32 -84 -83c0 -44 36 -69 84 -69z" />
    <glyph glyph-name="nine.tnum" unicode="&#xf641;" horiz-adv-x="551" 
d="M233 -11c-70 0 -136 26 -178 67l75 121c28 -30 58 -45 101 -45c75 0 127 71 127 164v9c-26 -46 -80 -78 -139 -78c-102 0 -193 77 -193 219c0 137 98 232 232 232c185 0 263 -155 263 -344c0 -210 -110 -345 -288 -345zM272 365c36 0 65 21 86 51c-4 57 -24 119 -90 119
c-51 0 -78 -43 -78 -83c0 -64 43 -87 82 -87z" />
    <glyph glyph-name="zero.tonum" unicode="&#xf643;" horiz-adv-x="551" 
d="M525 275c0 -151 -79 -287 -249 -287c-171 0 -250 136 -250 287c0 152 79 287 250 287c170 0 249 -135 249 -287zM361 275c0 80 -26 144 -85 144c-60 0 -86 -64 -86 -144s26 -144 86 -144c59 0 85 64 85 144z" />
    <glyph glyph-name="zero.tonumzero" horiz-adv-x="551" 
d="M525 275c0 -151 -79 -287 -249 -287c-53 0 -97 13 -132 35l-16 -23h-95l53 76c-41 53 -60 124 -60 199c0 152 79 287 250 287c50 0 93 -12 127 -33l15 21h95l-51 -72c43 -53 63 -126 63 -203zM361 275c0 18 -1 36 -4 52l-126 -180c12 -10 27 -16 45 -16
c59 0 85 64 85 144zM190 275c0 -16 1 -32 3 -46l124 177c-12 8 -25 13 -41 13c-60 0 -86 -64 -86 -144z" />
    <glyph glyph-name="one.tonum" unicode="&#xf644;" horiz-adv-x="551" 
d="M429 0h-162v343l-100 -102l-92 96l214 213h140v-550z" />
    <glyph glyph-name="two.tonum" unicode="&#xf645;" horiz-adv-x="551" 
d="M488 0h-433v130c210 91 279 174 279 226c0 37 -29 63 -72 63c-50 0 -95 -20 -135 -67l-95 99c59 74 145 111 238 111c139 0 227 -68 227 -178c0 -84 -75 -177 -186 -243h177v-141z" />
    <glyph glyph-name="three.tonum" unicode="&#xf646;" horiz-adv-x="551" 
d="M271 -127c-112 0 -198 46 -244 106l93 104c37 -42 92 -67 144 -67c64 0 92 31 92 70c0 48 -35 65 -98 65c-23 0 -56 0 -67 -1v144c11 -1 47 -1 63 -1c58 0 93 20 93 61c0 44 -36 65 -90 65c-49 0 -98 -21 -132 -60l-89 94c52 69 132 109 235 109c144 0 234 -65 234 -182
c0 -74 -56 -137 -129 -151c72 -10 139 -71 139 -159c0 -117 -97 -197 -244 -197z" />
    <glyph glyph-name="four.tonum" unicode="&#xf647;" horiz-adv-x="551" 
d="M525 19h-65v-136h-162v136h-275v133l230 398h207v-390h65v-141zM298 160v229l-130 -229h130z" />
    <glyph glyph-name="five.tonum" unicode="&#xf648;" horiz-adv-x="551" 
d="M269 -129c-105 0 -184 36 -238 102l95 106c36 -42 85 -65 138 -65c60 0 91 39 91 85c0 51 -29 84 -85 84c-43 0 -75 -16 -104 -51l-116 28v390h430v-141h-268v-140c25 31 70 53 121 53c103 0 187 -80 187 -218c0 -139 -96 -233 -251 -233z" />
    <glyph glyph-name="six.tonum" unicode="&#xf649;" horiz-adv-x="551" 
d="M294 -12c-185 0 -263 155 -263 344c0 210 110 345 288 345c71 0 136 -26 178 -67l-75 -121c-27 30 -57 45 -101 45c-69 0 -126 -69 -126 -165v-8c26 46 79 78 139 78c101 0 192 -77 192 -219c0 -137 -97 -232 -232 -232zM284 131c52 0 79 43 79 83c0 64 -44 87 -83 87
c-36 0 -65 -21 -86 -51c4 -57 26 -119 90 -119z" />
    <glyph glyph-name="seven.tonum" unicode="&#xf64a;" horiz-adv-x="551" 
d="M299 -117h-174l196 526h-274v141h456v-112z" />
    <glyph glyph-name="eight.tonum" unicode="&#xf64b;" horiz-adv-x="551" 
d="M275 -12c-141 0 -246 62 -246 185c0 77 55 144 125 171c-65 24 -116 77 -116 157c0 125 121 176 237 176c115 0 237 -51 237 -176c0 -80 -52 -133 -117 -157c70 -27 126 -94 126 -170c0 -123 -106 -186 -246 -186zM275 401c25 6 75 28 75 72c0 41 -29 66 -75 66
c-47 0 -75 -25 -75 -66c0 -44 50 -66 75 -72zM275 126c47 0 84 25 84 69c0 51 -57 79 -84 83c-28 -4 -84 -32 -84 -83c0 -44 36 -69 84 -69z" />
    <glyph glyph-name="nine.tonum" unicode="&#xf64c;" horiz-adv-x="551" 
d="M233 -127c-70 0 -136 26 -178 67l75 121c28 -30 58 -45 101 -45c75 0 127 71 127 164v9c-26 -46 -80 -78 -139 -78c-102 0 -193 77 -193 219c0 137 98 232 232 232c185 0 263 -155 263 -344c0 -210 -110 -345 -288 -345zM272 249c36 0 65 21 86 51c-4 57 -24 119 -90 119
c-51 0 -78 -43 -78 -83c0 -64 43 -87 82 -87z" />
    <glyph glyph-name="zero.onum" unicode="&#xf730;" horiz-adv-x="549" 
d="M524 275c0 -151 -79 -287 -249 -287c-171 0 -250 136 -250 287c0 152 79 287 250 287c170 0 249 -135 249 -287zM360 275c0 80 -26 144 -85 144c-60 0 -86 -64 -86 -144s26 -144 86 -144c59 0 85 64 85 144z" />
    <glyph glyph-name="zero.onumzero" horiz-adv-x="549" 
d="M525 275c0 -151 -79 -287 -249 -287c-53 0 -97 13 -132 35l-16 -23h-95l53 76c-41 53 -60 124 -60 199c0 152 79 287 250 287c50 0 93 -12 127 -33l15 21h95l-51 -72c43 -53 63 -126 63 -203zM361 275c0 18 -1 36 -4 52l-126 -180c12 -10 27 -16 45 -16
c59 0 85 64 85 144zM190 275c0 -16 1 -32 3 -46l124 177c-12 8 -25 13 -41 13c-60 0 -86 -64 -86 -144z" />
    <glyph glyph-name="one.onum" unicode="&#xf731;" horiz-adv-x="412" 
d="M359 0h-162v343l-100 -102l-92 96l214 213h140v-550z" />
    <glyph glyph-name="two.onum" unicode="&#xf732;" 
d="M474 0h-433v130c210 91 279 174 279 226c0 37 -29 63 -72 63c-50 0 -95 -20 -135 -67l-95 99c59 74 145 111 238 111c139 0 227 -68 227 -178c0 -84 -75 -177 -186 -243h177v-141z" />
    <glyph glyph-name="three.onum" unicode="&#xf733;" horiz-adv-x="528" 
d="M255 -128c-112 0 -198 46 -244 106l93 104c37 -42 92 -67 144 -67c64 0 92 31 92 70c0 48 -35 65 -98 65c-23 0 -56 0 -67 -1v144c11 -1 47 -1 63 -1c58 0 93 20 93 61c0 44 -36 65 -90 65c-49 0 -98 -21 -132 -60l-89 94c52 69 132 109 235 109c144 0 234 -65 234 -182
c0 -74 -56 -137 -129 -151c72 -10 139 -71 139 -159c0 -117 -97 -197 -244 -197z" />
    <glyph glyph-name="four.onum" unicode="&#xf734;" horiz-adv-x="540" 
d="M521 19h-65v-136h-162v136h-275v133l230 398h207v-390h65v-141zM294 160v229l-130 -229h130z" />
    <glyph glyph-name="five.onum" unicode="&#xf735;" horiz-adv-x="544" 
d="M269 -129c-105 0 -184 36 -238 102l95 106c36 -42 85 -65 138 -65c60 0 91 39 91 85c0 51 -29 84 -85 84c-43 0 -75 -16 -104 -51l-116 28v390h430v-141h-268v-140c25 31 70 53 121 53c103 0 187 -80 187 -218c0 -139 -96 -233 -251 -233z" />
    <glyph glyph-name="six.onum" unicode="&#xf736;" horiz-adv-x="542" 
d="M288 -12c-185 0 -263 155 -263 344c0 210 110 345 288 345c71 0 136 -26 178 -67l-75 -121c-27 30 -57 45 -101 45c-69 0 -126 -69 -126 -165v-8c26 46 79 78 139 78c101 0 192 -77 192 -219c0 -137 -97 -232 -232 -232zM278 131c52 0 79 43 79 83c0 64 -44 87 -83 87
c-36 0 -65 -21 -86 -51c4 -57 26 -119 90 -119z" />
    <glyph glyph-name="seven.onum" unicode="&#xf737;" horiz-adv-x="490" 
d="M270 -117h-174l196 526h-274v141h456v-112z" />
    <glyph glyph-name="eight.onum" unicode="&#xf738;" horiz-adv-x="542" 
d="M271 -12c-141 0 -246 62 -246 185c0 77 55 144 125 171c-65 24 -116 77 -116 157c0 125 121 176 237 176c115 0 237 -51 237 -176c0 -80 -52 -133 -117 -157c70 -27 126 -94 126 -170c0 -123 -106 -186 -246 -186zM271 401c25 6 75 28 75 72c0 41 -29 66 -75 66
c-47 0 -75 -25 -75 -66c0 -44 50 -66 75 -72zM271 126c47 0 84 25 84 69c0 51 -57 79 -84 83c-28 -4 -84 -32 -84 -83c0 -44 36 -69 84 -69z" />
    <glyph glyph-name="nine.onum" unicode="&#xf739;" horiz-adv-x="542" 
d="M228 -128c-70 0 -136 26 -178 67l75 121c28 -30 58 -45 101 -45c75 0 127 71 127 164v9c-26 -46 -80 -78 -139 -78c-102 0 -193 77 -193 219c0 137 98 232 232 232c185 0 263 -155 263 -344c0 -210 -110 -345 -288 -345zM267 248c36 0 65 21 86 51c-4 57 -24 119 -90 119
c-51 0 -78 -43 -78 -83c0 -64 43 -87 82 -87z" />
    <glyph glyph-name="A" unicode="A" horiz-adv-x="575" 
d="M582 0h-175l-25 102h-189l-25 -102h-175l197 667h195zM350 243l-62 256l-63 -256h125z" />
    <glyph glyph-name="B" unicode="B" horiz-adv-x="579" 
d="M367 0h-314v667h304c126 0 182 -84 182 -170c0 -83 -47 -138 -110 -153c69 -11 121 -80 121 -163c0 -98 -57 -181 -183 -181zM317 408c37 0 57 23 57 60c0 36 -20 60 -57 60h-102v-120h102zM322 139c40 0 63 23 63 65c0 38 -23 65 -63 65h-107v-130h107z" />
    <glyph glyph-name="C" unicode="C" horiz-adv-x="570" 
d="M319 -12c-181 0 -294 142 -294 345c0 204 113 345 294 345c141 0 204 -93 236 -175l-133 -57c-17 52 -53 89 -103 89c-82 0 -129 -85 -129 -202s47 -202 129 -202c51 0 88 42 103 96l134 -57c-31 -82 -95 -182 -237 -182z" />
    <glyph glyph-name="D" unicode="D" horiz-adv-x="613" 
d="M287 0h-234v667h234c190 0 301 -136 301 -334s-110 -333 -301 -333zM287 141c86 0 136 76 136 192c0 123 -47 193 -136 193h-72v-385h72z" />
    <glyph glyph-name="E" unicode="E" horiz-adv-x="491" 
d="M455 0h-402v667h402v-141h-240v-117h233v-141h-233v-127h240v-141z" />
    <glyph glyph-name="F" unicode="F" horiz-adv-x="485" 
d="M215 0h-162v667h402v-141h-240v-117h233v-141h-233v-268z" />
    <glyph glyph-name="G" unicode="G" horiz-adv-x="598" 
d="M319 -12c-177 0 -294 137 -294 345c0 209 117 345 294 345c125 0 199 -78 233 -167l-132 -59c-16 44 -50 83 -101 83c-75 0 -129 -69 -129 -202s54 -202 129 -202c37 0 71 14 89 32v73h-109v142h261v-279c-60 -68 -137 -111 -241 -111z" />
    <glyph glyph-name="G.alt1" horiz-adv-x="603" 
d="M308 -12c-166 0 -283 137 -283 345c0 209 117 345 294 345c125 0 199 -78 233 -167l-132 -59c-16 44 -50 83 -101 83c-75 0 -129 -69 -129 -202s54 -202 129 -202c59 0 93 53 105 106h-125v142h290c0 -248 -93 -391 -281 -391z" />
    <glyph glyph-name="H" unicode="H" horiz-adv-x="625" 
d="M571 0h-162v272h-194v-272h-162v667h162v-253h194v253h162v-667z" />
    <glyph glyph-name="I" unicode="I" horiz-adv-x="268" 
d="M215 0h-162v667h162v-667z" />
    <glyph glyph-name="J" unicode="J" horiz-adv-x="427" 
d="M152 -12c-52 0 -105 12 -146 46l54 127c20 -17 46 -30 76 -30c46 0 77 28 77 78v458h161v-463c0 -149 -90 -216 -222 -216z" />
    <glyph glyph-name="K" unicode="K" horiz-adv-x="575" 
d="M581 0h-191l-133 244l-42 -70v-174h-162v667h162v-282l165 282h188l-209 -312z" />
    <glyph glyph-name="L" unicode="L" horiz-adv-x="455" 
d="M430 0h-377v667h162v-526h215v-141z" />
    <glyph glyph-name="M" unicode="M" horiz-adv-x="761" 
d="M708 0h-161v396l-135 -396h-63l-134 396v-396h-162v667h215l113 -333l114 333h213v-667z" />
    <glyph glyph-name="N" unicode="N" horiz-adv-x="624" 
d="M570 0h-153l-202 351v-351h-162v667h165l191 -334v334h161v-667z" />
    <glyph glyph-name="O" unicode="O" horiz-adv-x="633" 
d="M316 -12c-180 0 -291 144 -291 345s111 345 291 345s291 -144 291 -345s-111 -345 -291 -345zM316 131c82 0 127 87 127 202c0 116 -45 202 -127 202c-81 0 -126 -86 -126 -202c0 -115 45 -202 126 -202z" />
    <glyph glyph-name="P" unicode="P" horiz-adv-x="556" 
d="M215 0h-162v667h268c145 0 217 -102 217 -220c0 -117 -72 -218 -217 -218h-106v-229zM301 370c43 0 73 29 73 78s-30 78 -73 78h-86v-156h86z" />
    <glyph glyph-name="Q" unicode="Q" horiz-adv-x="633" 
d="M316 -12c-180 0 -291 144 -291 345s111 345 291 345s291 -144 291 -345c0 -110 -33 -203 -93 -265l25 -40l-111 -69l-26 41c-26 -7 -55 -12 -86 -12zM316 131h7l-54 90l112 68l43 -72c12 33 19 72 19 116c0 116 -45 202 -127 202c-81 0 -126 -86 -126 -202
c0 -115 45 -202 126 -202z" />
    <glyph glyph-name="R" unicode="R" horiz-adv-x="573" 
d="M543 0h-180l-88 229h-60v-229h-162v667h272c130 0 213 -94 213 -217c0 -113 -58 -170 -108 -192zM300 370c43 0 74 29 74 78s-31 78 -74 78h-85v-156h85z" />
    <glyph glyph-name="S" unicode="S" horiz-adv-x="511" 
d="M251 -12c-108 0 -185 33 -241 87l77 124c39 -42 98 -71 163 -71c47 0 76 24 76 57c0 96 -296 56 -296 288c0 107 83 205 234 205c84 0 159 -27 214 -76l-75 -120c-41 38 -94 55 -145 55c-41 0 -63 -21 -63 -51c0 -88 295 -61 295 -285c0 -127 -88 -213 -239 -213z" />
    <glyph glyph-name="T" unicode="T" horiz-adv-x="487" 
d="M325 0h-162v526h-143v141h447v-141h-142v-526z" />
    <glyph glyph-name="U" unicode="U" horiz-adv-x="629" 
d="M315 -12c-159 0 -262 91 -262 249v430h163v-431c0 -67 35 -106 99 -106c63 0 98 39 98 106v431h163v-430c0 -158 -102 -249 -261 -249z" />
    <glyph glyph-name="V" unicode="V" horiz-adv-x="575" 
d="M385 0h-195l-197 667h175l120 -477l119 477h175z" />
    <glyph glyph-name="W" unicode="W" horiz-adv-x="793" 
d="M638 0h-167l-75 403l-74 -403h-167l-154 667h173l74 -425l87 425h124l86 -425l74 425h173z" />
    <glyph glyph-name="X" unicode="X" horiz-adv-x="575" 
d="M582 0h-185l-110 217l-109 -217h-185l193 341l-182 326h185l98 -204l97 204h186l-181 -325z" />
    <glyph glyph-name="Y" unicode="Y" horiz-adv-x="557" 
d="M360 0h-162v271l-206 396h177l110 -248l109 248h177l-205 -396v-271z" />
    <glyph glyph-name="Z" unicode="Z" horiz-adv-x="495" 
d="M462 0h-429v132l223 394h-223v141h422v-129l-225 -397h232v-141z" />
    <glyph glyph-name="a" unicode="a" horiz-adv-x="492" 
d="M444 0h-144v47c-26 -36 -78 -59 -127 -59c-76 0 -151 55 -151 160c0 108 75 155 151 155c50 0 102 -19 127 -55v55c0 45 -31 75 -85 75c-40 0 -83 -18 -119 -50l-51 97c54 50 134 70 198 70c110 0 201 -47 201 -177v-318zM230 83c28 0 56 13 70 38v49
c-14 25 -42 38 -70 38c-37 0 -64 -23 -64 -62c0 -40 27 -63 64 -63z" />
    <glyph glyph-name="a.alt1" horiz-adv-x="516" 
d="M468 0h-144v57c-31 -47 -75 -69 -120 -69c-108 0 -181 92 -181 254c0 156 72 253 181 253c44 0 90 -21 119 -69v57h145v-483zM253 116c26 0 56 19 71 45v161c-15 26 -45 44 -71 44c-53 0 -82 -50 -82 -124c0 -75 29 -126 82 -126z" />
    <glyph glyph-name="b" unicode="b" horiz-adv-x="516" 
d="M193 161c14 -27 44 -45 71 -45c52 0 82 51 82 126c0 74 -30 125 -82 125c-27 0 -57 -19 -71 -45v-161zM193 0h-145v667h145v-241c29 48 75 69 119 69c109 0 182 -97 182 -253c0 -162 -74 -254 -182 -254c-44 0 -88 22 -119 69v-57z" />
    <glyph glyph-name="c" unicode="c" horiz-adv-x="429" 
d="M253 -12c-136 0 -230 104 -230 254s94 253 230 253c81 0 136 -33 162 -66l-70 -99c-19 23 -43 37 -75 37c-59 0 -99 -50 -99 -125s40 -126 99 -126c32 0 56 14 75 38l70 -100c-26 -33 -81 -66 -162 -66z" />
    <glyph glyph-name="d" unicode="d" horiz-adv-x="516" 
d="M468 0h-144v57c-31 -47 -75 -69 -120 -69c-108 0 -181 92 -181 254c0 156 72 253 181 253c44 0 90 -21 120 -69v241h144v-667zM253 116c26 0 56 19 71 45v162c-15 26 -45 44 -71 44c-53 0 -82 -51 -82 -125c0 -75 29 -126 82 -126z" />
    <glyph glyph-name="e" unicode="e" horiz-adv-x="484" 
d="M257 -12c-140 0 -234 100 -234 254c0 140 86 253 226 253c136 0 216 -105 216 -260v-40h-297c5 -50 39 -93 105 -93c31 0 75 16 100 42l64 -87c-45 -46 -115 -69 -180 -69zM327 292c-2 39 -20 89 -80 89c-58 0 -77 -50 -80 -89h160z" />
    <glyph glyph-name="f" unicode="f" horiz-adv-x="306" 
d="M218 0h-145v357h-62v126h62v29c0 103 60 165 158 165c44 0 89 -12 115 -37l-43 -96c-11 11 -23 17 -41 17c-26 0 -44 -18 -44 -49v-29h78v-126h-78v-357z" />
    <glyph glyph-name="f.alt1" horiz-adv-x="306" 
d="M218 0h-145v357h-62v126h62v29c0 103 61 165 152 165c37 0 66 -6 90 -18l-25 -107c-6 5 -17 9 -29 9c-26 0 -43 -18 -43 -49v-29h78v-126h-78v-357z" />
    <glyph glyph-name="g" unicode="g" horiz-adv-x="516" 
d="M229 -196c-74 0 -134 18 -186 63l55 108c33 -34 77 -50 124 -50c48 0 101 25 101 105v49c-31 -48 -74 -70 -119 -70c-108 0 -181 82 -181 243c0 157 72 243 181 243c44 0 90 -21 119 -69v57h144v-450c0 -185 -128 -229 -238 -229zM253 136c26 0 56 18 70 45v142
c-14 26 -44 44 -70 44c-53 0 -82 -42 -82 -115c0 -74 29 -116 82 -116z" />
    <glyph glyph-name="h" unicode="h" horiz-adv-x="518" 
d="M469 0h-144v307c0 44 -21 60 -57 60c-35 0 -61 -26 -75 -51v-316h-144v667h144v-244c24 36 79 72 143 72c93 0 133 -53 133 -131v-364z" />
    <glyph glyph-name="i" unicode="i" horiz-adv-x="241" 
d="M121 529c-47 0 -84 38 -84 84c0 47 37 84 84 84c46 0 83 -37 83 -84c0 -46 -37 -84 -83 -84zM193 0h-145v483h145v-483z" />
    <glyph glyph-name="j" unicode="j" horiz-adv-x="241" 
d="M121 529c-47 0 -84 38 -84 84c0 47 37 84 84 84c46 0 83 -37 83 -84c0 -46 -37 -84 -83 -84zM25 -196c-47 0 -70 8 -98 27l33 110c12 -11 23 -16 43 -16c28 0 45 19 45 63v495h145v-495c0 -113 -52 -184 -168 -184z" />
    <glyph glyph-name="k" unicode="k" horiz-adv-x="485" 
d="M488 0h-169l-84 175l-42 -63v-112h-145v667h145v-381l120 197h167l-145 -217z" />
    <glyph glyph-name="l" unicode="l" horiz-adv-x="241" 
d="M193 0h-145v667h145v-667z" />
    <glyph glyph-name="l.alt1" horiz-adv-x="279" 
d="M185 -12c-93 0 -137 46 -137 137v542h145v-506c0 -28 11 -45 33 -45c14 0 27 5 33 11l26 -112c-18 -15 -53 -27 -100 -27z" />
    <glyph glyph-name="m" unicode="m" horiz-adv-x="770" 
d="M722 0h-145v312c0 35 -14 55 -48 55c-35 0 -60 -29 -72 -51v-316h-144v312c0 33 -13 55 -49 55c-34 0 -59 -29 -71 -51v-316h-145v483h145v-60c18 31 76 72 138 72c60 0 105 -26 120 -83c23 41 81 83 144 83c76 0 127 -39 127 -129v-366z" />
    <glyph glyph-name="n" unicode="n" 
d="M469 0h-145v305c0 44 -21 62 -56 62c-36 0 -61 -26 -75 -51v-316h-145v483h145v-60c24 36 78 72 142 72c93 0 134 -55 134 -133v-362z" />
    <glyph glyph-name="o" unicode="o" horiz-adv-x="505" 
d="M252 -12c-150 0 -229 119 -229 254s79 253 229 253s230 -118 230 -253s-80 -254 -230 -254zM252 116c56 0 81 55 81 126c0 70 -25 125 -81 125c-55 0 -80 -55 -80 -125c0 -71 25 -126 80 -126z" />
    <glyph glyph-name="p" unicode="p" horiz-adv-x="515" 
d="M312 -12c-44 0 -89 20 -119 69v-241h-145v667h145v-57c30 48 74 69 119 69c109 0 181 -92 181 -253c0 -159 -72 -254 -181 -254zM263 116c53 0 82 51 82 126c0 74 -29 125 -82 125c-26 0 -56 -17 -70 -44v-162c14 -26 44 -45 70 -45z" />
    <glyph glyph-name="q" unicode="q" horiz-adv-x="515" 
d="M252 116c26 0 57 19 71 45v162c-15 27 -45 44 -71 44c-52 0 -81 -51 -81 -125c0 -75 29 -126 81 -126zM203 -12c-109 0 -181 95 -181 254c0 161 72 253 181 253c45 0 90 -21 120 -69v57h144v-667h-144v241c-30 -49 -75 -69 -120 -69z" />
    <glyph glyph-name="r" unicode="r" horiz-adv-x="335" 
d="M193 0h-145v483h145v-61c25 40 81 74 129 74v-140c-8 2 -19 4 -31 4c-35 0 -78 -19 -98 -48v-312z" />
    <glyph glyph-name="s" unicode="s" horiz-adv-x="424" 
d="M210 -12c-83 0 -157 28 -198 69l58 99c32 -29 90 -57 137 -57c40 0 60 16 60 39c0 64 -238 20 -238 205c0 81 65 152 188 152c70 0 132 -25 178 -61l-56 -97c-24 24 -71 48 -121 48c-31 0 -53 -15 -53 -34c0 -58 240 -22 240 -207c0 -91 -76 -156 -195 -156z" />
    <glyph glyph-name="t" unicode="t" horiz-adv-x="315" 
d="M209 -12c-93 0 -137 46 -137 137v232h-61v126h61v132h145v-132h78v-126h-78v-196c0 -28 11 -45 33 -45c14 0 27 5 33 11l26 -112c-18 -15 -53 -27 -100 -27z" />
    <glyph glyph-name="u" unicode="u" 
d="M468 0h-144v58c-25 -35 -78 -70 -143 -70c-93 0 -133 53 -133 131v364h145v-306c0 -44 20 -61 56 -61c35 0 61 25 75 50v317h144v-483z" />
    <glyph glyph-name="v" unicode="v" horiz-adv-x="466" 
d="M310 0h-154l-162 483h153l85 -310l87 310h153z" />
    <glyph glyph-name="w" unicode="w" horiz-adv-x="714" 
d="M588 0h-154l-77 299l-77 -299h-154l-128 483h148l67 -299l76 299h132l79 -299l67 299h150z" />
    <glyph glyph-name="x" unicode="x" horiz-adv-x="454" 
d="M457 0h-157l-73 145l-75 -145h-156l140 245l-132 238h156l66 -136l67 136h156l-132 -238z" />
    <glyph glyph-name="y" unicode="y" horiz-adv-x="466" 
d="M45 -188l20 127c8 -5 21 -7 30 -7c27 0 45 8 52 28l11 31l-164 492h153l85 -309l87 309h153l-187 -555c-33 -99 -91 -123 -177 -124c-16 0 -49 3 -63 8z" />
    <glyph glyph-name="y.alt1" 
d="M233 -196c-76 0 -138 20 -185 63l55 108c32 -35 82 -50 123 -50c63 0 98 37 98 106v51c-25 -36 -78 -70 -143 -70c-93 0 -133 53 -133 131v340h145v-283c0 -43 20 -60 56 -60c35 0 61 25 75 49v294h144v-444c0 -149 -83 -235 -235 -235z" />
    <glyph glyph-name="z" unicode="z" horiz-adv-x="417" 
d="M387 0h-357v107l167 250h-167v126h353v-103l-169 -254h173v-126z" />
    <glyph glyph-name="A.smcp" unicode="&#xf761;" horiz-adv-x="504" 
d="M163 550h178l170 -550h-161l-20 81h-155l-21 -81h-161zM299 211l-47 183l-47 -183h94z" />
    <glyph glyph-name="B.smcp" unicode="&#xf762;" horiz-adv-x="508" 
d="M322 0h-274v550h265c112 0 161 -70 161 -141c0 -65 -38 -109 -89 -125c59 -13 99 -68 99 -134c0 -81 -50 -150 -162 -150zM288 126c28 0 44 17 44 45c0 25 -16 45 -44 45h-90v-90h90zM283 343c26 0 39 16 39 40c0 23 -12 41 -39 41h-85v-81h85z" />
    <glyph glyph-name="C.smcp" unicode="&#xf763;" horiz-adv-x="495" 
d="M277 -12c-158 0 -253 120 -253 287c0 168 95 287 253 287c117 0 175 -77 205 -153l-123 -49c-15 42 -43 71 -82 71c-65 0 -101 -66 -101 -156c0 -89 36 -156 101 -156c40 0 69 30 82 72l123 -47c-29 -76 -87 -156 -205 -156z" />
    <glyph glyph-name="D.smcp" unicode="&#xf764;" horiz-adv-x="539" 
d="M256 0h-208v550h207c167 0 260 -112 260 -275c0 -164 -92 -275 -259 -275zM255 130c71 0 108 58 108 145c0 91 -34 145 -107 145h-58v-290h57z" />
    <glyph glyph-name="E.smcp" unicode="&#xf765;" horiz-adv-x="436" 
d="M404 0h-356v550h356v-128h-206v-79h200v-128h-200v-87h206v-128z" />
    <glyph glyph-name="F.smcp" unicode="&#xf766;" horiz-adv-x="430" 
d="M198 0h-150v550h356v-128h-206v-79h200v-128h-200v-215z" />
    <glyph glyph-name="G.smcp" unicode="&#xf767;" horiz-adv-x="518" 
d="M278 -12c-156 0 -254 116 -254 287c0 172 99 287 254 287c101 0 167 -64 198 -139l-121 -55c-14 35 -38 62 -77 62c-61 0 -101 -54 -101 -155c0 -100 40 -156 103 -156c29 0 51 11 64 24v53h-81v119h223v-234c-54 -58 -120 -93 -208 -93z" />
    <glyph glyph-name="G.smcp.alt1" horiz-adv-x="526" 
d="M271 -12c-149 0 -247 116 -247 287c0 172 99 287 254 287c101 0 167 -64 198 -139l-121 -54c-14 34 -38 62 -77 62c-61 0 -101 -55 -101 -156c0 -100 40 -156 101 -156c41 0 71 37 80 77h-95v119h245c0 -200 -80 -327 -237 -327z" />
    <glyph glyph-name="H.smcp" unicode="&#xf768;" horiz-adv-x="557" 
d="M509 0h-150v216h-161v-216h-150v550h150v-204h161v204h150v-550z" />
    <glyph glyph-name="I.smcp" unicode="&#xf769;" horiz-adv-x="247" 
d="M198 0h-150v550h150v-550z" />
    <glyph glyph-name="J.smcp" unicode="&#xf76a;" horiz-adv-x="380" 
d="M131 -12c-45 0 -92 12 -127 42l46 117c17 -17 41 -28 65 -28c40 0 66 24 66 65v366h150v-383c0 -124 -80 -179 -200 -179z" />
    <glyph glyph-name="K.smcp" unicode="&#xf76b;" horiz-adv-x="511" 
d="M514 0h-174l-112 192l-30 -47v-145h-150v550h150v-213l133 213h172l-181 -258z" />
    <glyph glyph-name="L.smcp" unicode="&#xf76c;" horiz-adv-x="406" 
d="M383 0h-335v550h150v-420h185v-130z" />
    <glyph glyph-name="M.smcp" unicode="&#xf76d;" horiz-adv-x="670" 
d="M622 0h-149v300l-106 -300h-63l-106 300v-300h-150v550h191l96 -274l97 274h190v-550z" />
    <glyph glyph-name="N.smcp" unicode="&#xf76e;" horiz-adv-x="552" 
d="M504 0h-148l-158 279v-279h-150v550h158l148 -264v264h150v-550z" />
    <glyph glyph-name="O.smcp" unicode="&#xf76f;" horiz-adv-x="552" 
d="M275 -12c-158 0 -251 121 -251 287s93 287 251 287s252 -121 252 -287s-94 -287 -252 -287zM275 119c65 0 100 68 100 156s-35 156 -100 156c-64 0 -99 -68 -99 -156s35 -156 99 -156z" />
    <glyph glyph-name="P.smcp" unicode="&#xf770;" horiz-adv-x="491" 
d="M198 0h-150v550h242c122 0 186 -85 186 -185s-61 -184 -186 -184h-92v-181zM272 311c34 0 52 23 52 54c0 32 -19 55 -52 55h-74v-109h74z" />
    <glyph glyph-name="Q.smcp" unicode="&#xf771;" horiz-adv-x="552" 
d="M275 -12c-158 0 -251 121 -251 287s93 287 251 287s252 -121 252 -287c0 -92 -29 -171 -82 -222l20 -33l-94 -56l-21 34c-23 -6 -48 -10 -75 -10zM275 119h1l-38 63l93 56l30 -49c9 24 14 54 14 86c0 88 -35 156 -100 156c-64 0 -99 -68 -99 -156s35 -156 99 -156z" />
    <glyph glyph-name="R.smcp" unicode="&#xf772;" horiz-adv-x="508" 
d="M481 0h-164l-71 181h-48v-181h-150v550h243c118 0 185 -83 185 -184c0 -94 -50 -143 -92 -161zM272 311c34 0 53 23 53 54c0 32 -20 55 -53 55h-74v-109h74z" />
    <glyph glyph-name="S.smcp" unicode="&#xf773;" horiz-adv-x="449" 
d="M219 -12c-89 0 -159 27 -207 70l61 114c33 -34 89 -59 143 -59c40 0 64 17 64 44c0 71 -249 45 -249 236c0 90 74 169 204 169c78 0 140 -23 190 -64l-61 -107c-34 30 -84 46 -125 46c-34 0 -55 -16 -55 -40c0 -65 249 -42 249 -234c0 -106 -80 -175 -214 -175z" />
    <glyph glyph-name="T.smcp" unicode="&#xf774;" horiz-adv-x="412" 
d="M281 0h-150v420h-115v130h379v-130h-114v-420z" />
    <glyph glyph-name="U.smcp" unicode="&#xf775;" horiz-adv-x="556" 
d="M278 -12c-142 0 -230 79 -230 218v344h151v-344c0 -53 28 -87 79 -87s79 34 79 87v344h151v-343c0 -140 -87 -219 -230 -219z" />
    <glyph glyph-name="V.smcp" unicode="&#xf776;" horiz-adv-x="504" 
d="M341 0h-178l-170 550h162l97 -367l98 367h161z" />
    <glyph glyph-name="W.smcp" unicode="&#xf777;" horiz-adv-x="692" 
d="M559 0h-153l-60 300l-60 -300h-153l-135 550h161l60 -319l70 319h115l70 -320l60 320h160z" />
    <glyph glyph-name="X.smcp" unicode="&#xf778;" horiz-adv-x="505" 
d="M512 0h-169l-90 173l-90 -173h-170l163 282l-153 268h169l81 -161l79 161h170l-153 -268z" />
    <glyph glyph-name="Y.smcp" unicode="&#xf779;" horiz-adv-x="490" 
d="M320 0h-149v224l-179 326h163l90 -191l90 191h163l-178 -326v-224z" />
    <glyph glyph-name="Z.smcp" unicode="&#xf77a;" horiz-adv-x="432" 
d="M404 0h-376v110l179 310h-179v130h370v-108l-179 -312h185v-130z" />
    <glyph glyph-name="Aacute" unicode="&#xc1;" horiz-adv-x="575" 
d="M582 0h-175l-25 102h-189l-25 -102h-175l197 667h195zM350 243l-62 256l-63 -256h125zM458 867l-134 -144h-94l103 144h125z" />
    <glyph glyph-name="Abreve" unicode="&#x102;" horiz-adv-x="575" 
d="M582 0h-175l-25 102h-189l-25 -102h-175l197 667h195zM350 243l-62 256l-63 -256h125zM438 777c-34 -46 -89 -75 -151 -75c-61 0 -116 29 -151 75l64 51c19 -28 50 -46 87 -46c36 0 68 17 87 46z" />
    <glyph glyph-name="Acircumflex" unicode="&#xc2;" horiz-adv-x="575" 
d="M429 723h-82l-60 83l-57 -83h-82l75 144h128zM582 0h-175l-25 102h-189l-25 -102h-175l197 667h195zM350 243l-62 256l-63 -256h125z" />
    <glyph glyph-name="Adieresis" unicode="&#xc4;" horiz-adv-x="575" 
d="M460 780c0 -42 -34 -74 -76 -74c-40 0 -74 32 -74 74s34 75 74 75c42 0 76 -33 76 -75zM265 780c0 -41 -32 -74 -74 -74s-75 33 -75 74c0 42 33 75 75 75s74 -33 74 -75zM582 0h-175l-25 102h-189l-25 -102h-175l197 667h195zM350 243l-62 256l-63 -256h125z" />
    <glyph glyph-name="Agrave" unicode="&#xc0;" horiz-adv-x="575" 
d="M582 0h-175l-25 102h-189l-25 -102h-175l197 667h195zM350 243l-62 256l-63 -256h125zM344 723h-94l-134 144h125z" />
    <glyph glyph-name="Amacron" unicode="&#x100;" horiz-adv-x="575" 
d="M582 0h-175l-25 102h-189l-25 -102h-175l197 667h195zM350 243l-62 256l-63 -256h125zM444 725h-313v81h313v-81z" />
    <glyph glyph-name="Aogonek" unicode="&#x104;" horiz-adv-x="575" 
d="M580 -99l56 -33c-17 -32 -45 -54 -88 -54c-52 0 -95 27 -95 89c0 35 13 68 41 97h-87l-25 102h-189l-25 -102h-175l197 667h195l197 -667c-41 -25 -60 -58 -60 -92c0 -26 13 -36 27 -36c16 0 26 12 31 29zM350 243l-62 256l-63 -256h125z" />
    <glyph glyph-name="Aring" unicode="&#xc5;" horiz-adv-x="575" 
d="M582 0h-175l-25 102h-189l-25 -102h-175l197 667h195zM350 243l-62 256l-63 -256h125zM288 688c-55 0 -100 46 -100 101s45 100 100 100s99 -45 99 -100s-44 -101 -99 -101zM288 751c21 0 37 17 37 38s-16 38 -37 38c-20 0 -38 -17 -38 -38s18 -38 38 -38z" />
    <glyph glyph-name="Atilde" unicode="&#xc3;" horiz-adv-x="575" 
d="M582 0h-175l-25 102h-189l-25 -102h-175l197 667h195zM350 243l-62 256l-63 -256h125zM338 721c-58 0 -72 59 -102 59c-15 0 -27 -16 -27 -53h-72c0 84 36 134 102 134c58 0 72 -60 101 -60c16 0 28 17 28 54h71c0 -84 -36 -134 -101 -134z" />
    <glyph glyph-name="uni1EA0" unicode="&#x1ea0;" horiz-adv-x="575" 
d="M582 0h-175l-25 102h-189l-25 -102h-175l197 667h195zM350 243l-62 256l-63 -256h125zM288 -200c-40 0 -74 33 -74 74s34 75 74 75c41 0 75 -34 75 -75s-34 -74 -75 -74z" />
    <glyph glyph-name="uni1EA2" unicode="&#x1ea2;" horiz-adv-x="575" 
d="M582 0h-175l-25 102h-189l-25 -102h-175l197 667h195zM350 243l-62 256l-63 -256h125zM263 751l-51 12c11 37 40 57 76 57c41 0 74 -21 74 -71c0 -21 -6 -37 -14 -52h-56c12 16 17 33 17 49c0 20 -11 28 -22 28c-12 0 -20 -10 -24 -23z" />
    <glyph glyph-name="uni1EA4" unicode="&#x1ea4;" horiz-adv-x="575" 
d="M429 682h-82l-60 62l-57 -62h-82l75 108h128zM582 0h-175l-25 102h-189l-25 -102h-175l197 667h195zM350 243l-62 256l-63 -256h125zM628 843l-134 -108h-94l103 108h125z" />
    <glyph glyph-name="uni1EAC" unicode="&#x1eac;" horiz-adv-x="575" 
d="M582 0h-175l-25 102h-189l-25 -102h-175l197 667h195zM350 243l-62 256l-63 -256h125zM428 723h-82l-60 83l-57 -83h-82l75 144h128zM288 -200c-40 0 -74 33 -74 74s34 75 74 75c41 0 75 -34 75 -75s-34 -74 -75 -74z" />
    <glyph glyph-name="uni1EA6" unicode="&#x1ea6;" horiz-adv-x="575" 
d="M429 682h-82l-60 62l-57 -62h-82l75 108h128zM582 0h-175l-25 102h-189l-25 -102h-175l197 667h195zM350 243l-62 256l-63 -256h125zM177 735h-94l-134 108h125z" />
    <glyph glyph-name="uni1EA8" unicode="&#x1ea8;" horiz-adv-x="575" 
d="M429 682h-82l-60 62l-57 -62h-82l75 108h128zM582 0h-175l-25 102h-189l-25 -102h-175l197 667h195zM350 243l-62 256l-63 -256h125zM420 785l-51 9c11 27 40 42 76 42c41 0 74 -15 74 -53c0 -16 -6 -28 -14 -39h-56c12 12 17 25 17 37c0 15 -11 21 -22 21
c-12 0 -20 -8 -24 -17z" />
    <glyph glyph-name="uni1EAE" unicode="&#x1eae;" horiz-adv-x="575" 
d="M582 0h-175l-25 102h-189l-25 -102h-175l197 667h195zM350 243l-62 256l-63 -256h125zM459 829l-134 -80h-94l103 80h125zM438 729c-34 -28 -89 -46 -151 -46c-61 0 -116 18 -151 46l64 32c19 -18 50 -29 87 -29c36 0 68 11 87 29z" />
    <glyph glyph-name="uni1EAA" unicode="&#x1eaa;" horiz-adv-x="575" 
d="M429 678h-82l-60 41l-57 -41h-82l75 72h128zM582 0h-175l-25 102h-189l-25 -102h-175l197 667h195zM350 243l-62 256l-63 -256h125zM337 757c-58 0 -72 29 -102 29c-15 0 -27 -8 -27 -26h-72c0 42 36 67 102 67c58 0 72 -30 101 -30c16 0 28 8 28 27h71
c0 -42 -36 -67 -101 -67z" />
    <glyph glyph-name="uni1EB0" unicode="&#x1eb0;" horiz-adv-x="575" 
d="M582 0h-175l-25 102h-189l-25 -102h-175l197 667h195zM350 243l-62 256l-63 -256h125zM346 749h-94l-134 80h125zM438 726c-34 -28 -89 -46 -151 -46c-61 0 -116 18 -151 46l64 32c19 -18 50 -29 87 -29c36 0 68 11 87 29z" />
    <glyph glyph-name="uni1EB2" unicode="&#x1eb2;" horiz-adv-x="575" 
d="M582 0h-175l-25 102h-189l-25 -102h-175l197 667h195zM350 243l-62 256l-63 -256h125zM264 780l-51 7c11 21 40 32 76 32c41 0 74 -12 74 -40c0 -12 -6 -21 -14 -29h-56c12 9 17 18 17 27c0 12 -11 16 -22 16c-12 0 -20 -6 -24 -13zM438 727c-34 -28 -89 -46 -151 -46
c-61 0 -116 18 -151 46l64 32c19 -18 50 -29 87 -29c36 0 68 11 87 29z" />
    <glyph glyph-name="uni1EB4" unicode="&#x1eb4;" horiz-adv-x="575" 
d="M582 0h-175l-25 102h-189l-25 -102h-175l197 667h195zM350 243l-62 256l-63 -256h125zM439 721c-34 -25 -89 -41 -151 -41c-61 0 -116 16 -151 41l64 28c19 -15 50 -25 87 -25c36 0 68 9 87 25zM337 757c-58 0 -72 29 -102 29c-15 0 -27 -8 -27 -26h-72
c0 42 36 67 102 67c58 0 72 -30 101 -30c16 0 28 8 28 27h71c0 -42 -36 -67 -101 -67z" />
    <glyph glyph-name="uni1EB6" unicode="&#x1eb6;" horiz-adv-x="575" 
d="M582 0h-175l-25 102h-189l-25 -102h-175l197 667h195zM350 243l-62 256l-63 -256h125zM288 -200c-40 0 -74 33 -74 74s34 75 74 75c41 0 75 -34 75 -75s-34 -74 -75 -74zM438 777c-34 -46 -89 -75 -151 -75c-61 0 -116 29 -151 75l64 51c19 -28 50 -46 87 -46
c36 0 68 17 87 46z" />
    <glyph glyph-name="AE" unicode="&#xc6;" horiz-adv-x="806" 
d="M775 0h-401v102h-165l-42 -102h-175l314 667h469v-141h-239v-117h232v-141h-232v-127h239v-141zM374 243v256l-107 -256h107z" />
    <glyph glyph-name="AEacute" unicode="&#x1fc;" horiz-adv-x="806" 
d="M627 867l-134 -144h-94l103 144h125zM775 0h-401v102h-165l-42 -102h-175l314 667h469v-141h-239v-117h232v-141h-232v-127h239v-141zM374 243v256l-107 -256h107z" />
    <glyph glyph-name="uni1E02" unicode="&#x1e02;" horiz-adv-x="579" 
d="M367 0h-314v667h304c126 0 182 -84 182 -170c0 -83 -47 -138 -110 -153c69 -11 121 -80 121 -163c0 -98 -57 -181 -183 -181zM317 408c37 0 57 23 57 60c0 36 -20 60 -57 60h-102v-120h102zM322 139c40 0 63 23 63 65c0 38 -23 65 -63 65h-107v-130h107zM289 706
c-40 0 -74 33 -74 74s34 75 74 75c41 0 75 -34 75 -75s-34 -74 -75 -74z" />
    <glyph glyph-name="Cacute" unicode="&#x106;" horiz-adv-x="570" 
d="M489 867l-134 -144h-94l103 144h125zM319 -12c-181 0 -294 142 -294 345c0 204 113 345 294 345c141 0 204 -93 236 -175l-133 -57c-17 52 -53 89 -103 89c-82 0 -129 -85 -129 -202s47 -202 129 -202c51 0 88 42 103 96l134 -57c-31 -82 -95 -182 -237 -182z" />
    <glyph glyph-name="Ccedilla" unicode="&#xc7;" horiz-adv-x="570" 
d="M313 -193c-42 0 -81 15 -102 33l26 54c23 -18 49 -29 72 -29s43 11 43 30c0 14 -9 23 -23 23c-11 0 -20 -5 -27 -13l-50 29l22 57c-155 22 -249 156 -249 342c0 204 113 345 294 345c141 0 204 -93 236 -175l-133 -57c-17 52 -53 89 -103 89c-82 0 -129 -85 -129 -202
s47 -202 129 -202c51 0 88 42 103 96l134 -57c-30 -78 -89 -172 -217 -181l-14 -35c10 6 19 10 32 10c35 0 64 -29 64 -71c0 -54 -47 -86 -108 -86z" />
    <glyph glyph-name="Ccircumflex" unicode="&#x108;" horiz-adv-x="570" 
d="M459 723h-82l-60 83l-57 -83h-82l75 144h128zM319 -12c-181 0 -294 142 -294 345c0 204 113 345 294 345c141 0 204 -93 236 -175l-133 -57c-17 52 -53 89 -103 89c-82 0 -129 -85 -129 -202s47 -202 129 -202c51 0 88 42 103 96l134 -57c-31 -82 -95 -182 -237 -182z
" />
    <glyph glyph-name="Cdotaccent" unicode="&#x10a;" horiz-adv-x="570" 
d="M319 -12c-181 0 -294 142 -294 345c0 204 113 345 294 345c141 0 204 -93 236 -175l-133 -57c-17 52 -53 89 -103 89c-82 0 -129 -85 -129 -202s47 -202 129 -202c51 0 88 42 103 96l134 -57c-31 -82 -95 -182 -237 -182zM319 706c-40 0 -74 33 -74 74s34 75 74 75
c41 0 75 -34 75 -75s-34 -74 -75 -74z" />
    <glyph glyph-name="Ccaron" unicode="&#x10c;" horiz-adv-x="570" 
d="M384 723h-128l-78 144h82l60 -84l57 84h82zM319 -12c-181 0 -294 142 -294 345c0 204 113 345 294 345c141 0 204 -93 236 -175l-133 -57c-17 52 -53 89 -103 89c-82 0 -129 -85 -129 -202s47 -202 129 -202c51 0 88 42 103 96l134 -57c-31 -82 -95 -182 -237 -182z" />
    <glyph glyph-name="Dcaron" unicode="&#x10e;" horiz-adv-x="613" 
d="M373 723h-128l-78 144h82l60 -84l57 84h82zM287 0h-234v667h234c190 0 301 -136 301 -334s-110 -333 -301 -333zM287 141c86 0 136 76 136 192c0 123 -47 193 -136 193h-72v-385h72z" />
    <glyph glyph-name="Dcroat" unicode="&#x110;" horiz-adv-x="637" 
d="M311 0h-234v270h-66v123h66v274h234c190 0 301 -136 301 -334s-110 -333 -301 -333zM311 141c86 0 136 76 136 192c0 123 -47 193 -136 193h-72v-133h99v-123h-99v-129h72z" />
    <glyph glyph-name="uni1E0A" unicode="&#x1e0a;" horiz-adv-x="613" 
d="M287 0h-234v667h234c190 0 301 -136 301 -334s-110 -333 -301 -333zM287 141c86 0 136 76 136 192c0 123 -47 193 -136 193h-72v-385h72zM306 706c-40 0 -74 33 -74 74s34 75 74 75c41 0 75 -34 75 -75s-34 -74 -75 -74z" />
    <glyph glyph-name="Eacute" unicode="&#xc9;" horiz-adv-x="491" 
d="M425 867l-134 -144h-94l103 144h125zM455 0h-402v667h402v-141h-240v-117h233v-141h-233v-127h240v-141z" />
    <glyph glyph-name="Ebreve" unicode="&#x114;" horiz-adv-x="491" 
d="M455 0h-402v667h402v-141h-240v-117h233v-141h-233v-127h240v-141zM403 777c-34 -46 -89 -75 -151 -75c-61 0 -116 29 -151 75l64 51c19 -28 50 -46 87 -46c36 0 68 17 87 46z" />
    <glyph glyph-name="Ecircumflex" unicode="&#xca;" horiz-adv-x="491" 
d="M395 723h-82l-60 83l-57 -83h-82l75 144h128zM455 0h-402v667h402v-141h-240v-117h233v-141h-233v-127h240v-141z" />
    <glyph glyph-name="Edieresis" unicode="&#xcb;" horiz-adv-x="491" 
d="M428 780c0 -42 -34 -74 -76 -74c-40 0 -74 32 -74 74s34 75 74 75c42 0 76 -33 76 -75zM233 780c0 -41 -32 -74 -74 -74s-75 33 -75 74c0 42 33 75 75 75s74 -33 74 -75zM455 0h-402v667h402v-141h-240v-117h233v-141h-233v-127h240v-141z" />
    <glyph glyph-name="Edotaccent" unicode="&#x116;" horiz-adv-x="491" 
d="M455 0h-402v667h402v-141h-240v-117h233v-141h-233v-127h240v-141zM256 706c-40 0 -74 33 -74 74s34 75 74 75c41 0 75 -34 75 -75s-34 -74 -75 -74z" />
    <glyph glyph-name="Egrave" unicode="&#xc8;" horiz-adv-x="491" 
d="M455 0h-402v667h402v-141h-240v-117h233v-141h-233v-127h240v-141zM309 723h-94l-134 144h125z" />
    <glyph glyph-name="Emacron" unicode="&#x112;" horiz-adv-x="491" 
d="M455 0h-402v667h402v-141h-240v-117h233v-141h-233v-127h240v-141zM409 725h-313v81h313v-81z" />
    <glyph glyph-name="Eogonek" unicode="&#x118;" horiz-adv-x="491" 
d="M455 0c-41 -25 -60 -58 -60 -92c0 -26 13 -36 27 -36c16 0 26 12 31 29l56 -33c-17 -32 -45 -54 -88 -54c-52 0 -95 27 -95 89c0 35 13 68 41 97h-314v667h402v-141h-240v-117h233v-141h-233v-127h240v-141z" />
    <glyph glyph-name="Ecaron" unicode="&#x11a;" horiz-adv-x="491" 
d="M319 723h-128l-78 144h82l60 -84l57 84h82zM455 0h-402v667h402v-141h-240v-117h233v-141h-233v-127h240v-141z" />
    <glyph glyph-name="uni1EB8" unicode="&#x1eb8;" horiz-adv-x="491" 
d="M455 0h-402v667h402v-141h-240v-117h233v-141h-233v-127h240v-141zM256 -200c-40 0 -74 33 -74 74s34 75 74 75c41 0 75 -34 75 -75s-34 -74 -75 -74z" />
    <glyph glyph-name="uni1EBA" unicode="&#x1eba;" horiz-adv-x="491" 
d="M455 0h-402v667h402v-141h-240v-117h233v-141h-233v-127h240v-141zM223 751l-51 12c11 37 40 57 76 57c41 0 74 -21 74 -71c0 -21 -6 -37 -14 -52h-56c12 16 17 33 17 49c0 20 -11 28 -22 28c-12 0 -20 -10 -24 -23z" />
    <glyph glyph-name="uni1EBC" unicode="&#x1ebc;" horiz-adv-x="491" 
d="M455 0h-402v667h402v-141h-240v-117h233v-141h-233v-127h240v-141zM310 721c-58 0 -72 59 -102 59c-15 0 -27 -16 -27 -53h-72c0 84 36 134 102 134c58 0 72 -60 101 -60c16 0 28 17 28 54h71c0 -84 -36 -134 -101 -134z" />
    <glyph glyph-name="uni1EBE" unicode="&#x1ebe;" horiz-adv-x="491" 
d="M398 682h-82l-60 62l-57 -62h-82l75 108h128zM597 843l-134 -108h-94l103 108h125zM455 0h-402v667h402v-141h-240v-117h233v-141h-233v-127h240v-141z" />
    <glyph glyph-name="uni1EC0" unicode="&#x1ec0;" horiz-adv-x="491" 
d="M399 682h-82l-60 62l-57 -62h-82l75 108h128zM455 0h-402v667h402v-141h-240v-117h233v-141h-233v-127h240v-141zM147 735h-94l-134 108h125z" />
    <glyph glyph-name="uni1EC2" unicode="&#x1ec2;" horiz-adv-x="491" 
d="M397 682h-82l-60 62l-57 -62h-82l75 108h128zM455 0h-402v667h402v-141h-240v-117h233v-141h-233v-127h240v-141zM387 785l-51 9c11 27 40 42 76 42c41 0 74 -15 74 -53c0 -16 -6 -28 -14 -39h-56c12 12 17 25 17 37c0 15 -11 21 -22 21c-12 0 -20 -8 -24 -17z" />
    <glyph glyph-name="uni1EC4" unicode="&#x1ec4;" horiz-adv-x="491" 
d="M397 678h-82l-60 41l-57 -41h-82l75 72h128zM455 0h-402v667h402v-141h-240v-117h233v-141h-233v-127h240v-141zM305 757c-58 0 -72 29 -102 29c-15 0 -27 -8 -27 -26h-72c0 42 36 67 102 67c58 0 72 -30 101 -30c16 0 28 8 28 27h71c0 -42 -36 -67 -101 -67z" />
    <glyph glyph-name="uni1EC6" unicode="&#x1ec6;" horiz-adv-x="491" 
d="M395 723h-82l-60 83l-57 -83h-82l75 144h128zM455 0h-402v667h402v-141h-240v-117h233v-141h-233v-127h240v-141zM256 -200c-40 0 -74 33 -74 74s34 75 74 75c41 0 75 -34 75 -75s-34 -74 -75 -74z" />
    <glyph glyph-name="uni1E1E" unicode="&#x1e1e;" horiz-adv-x="485" 
d="M256 706c-40 0 -74 33 -74 74s34 75 74 75c41 0 75 -34 75 -75s-34 -74 -75 -74zM215 0h-162v667h402v-141h-240v-117h233v-141h-233v-268z" />
    <glyph glyph-name="Gcircumflex" unicode="&#x11c;" horiz-adv-x="598" 
d="M460 723h-82l-60 83l-57 -83h-82l75 144h128zM319 -12c-177 0 -294 137 -294 345c0 209 117 345 294 345c125 0 199 -78 233 -167l-132 -59c-16 44 -50 83 -101 83c-75 0 -129 -69 -129 -202s54 -202 129 -202c37 0 71 14 89 32v73h-109v142h261v-279
c-60 -68 -137 -111 -241 -111z" />
    <glyph glyph-name="Gbreve" unicode="&#x11e;" horiz-adv-x="598" 
d="M319 -12c-177 0 -294 137 -294 345c0 209 117 345 294 345c125 0 199 -78 233 -167l-132 -59c-16 44 -50 83 -101 83c-75 0 -129 -69 -129 -202s54 -202 129 -202c37 0 71 14 89 32v73h-109v142h261v-279c-60 -68 -137 -111 -241 -111zM471 777c-34 -46 -89 -75 -151 -75
c-61 0 -116 29 -151 75l64 51c19 -28 50 -46 87 -46c36 0 68 17 87 46z" />
    <glyph glyph-name="Gdotaccent" unicode="&#x120;" horiz-adv-x="598" 
d="M319 -12c-177 0 -294 137 -294 345c0 209 117 345 294 345c125 0 199 -78 233 -167l-132 -59c-16 44 -50 83 -101 83c-75 0 -129 -69 -129 -202s54 -202 129 -202c37 0 71 14 89 32v73h-109v142h261v-279c-60 -68 -137 -111 -241 -111zM319 706c-40 0 -74 33 -74 74
s34 75 74 75c41 0 75 -34 75 -75s-34 -74 -75 -74z" />
    <glyph glyph-name="Gcommaaccent" unicode="&#x122;" horiz-adv-x="598" 
d="M389 -139c0 -62 -35 -117 -86 -154l-48 38c26 14 58 48 65 77c-3 -1 -10 -2 -16 -2c-32 0 -58 24 -58 60c0 38 31 68 68 68c39 0 75 -32 75 -87zM319 -12c-177 0 -294 137 -294 345c0 209 117 345 294 345c125 0 199 -78 233 -167l-132 -59c-16 44 -50 83 -101 83
c-75 0 -129 -69 -129 -202s54 -202 129 -202c37 0 71 14 89 32v73h-109v142h261v-279c-60 -68 -137 -111 -241 -111z" />
    <glyph glyph-name="Gbreve.alt1" horiz-adv-x="602" 
d="M470 777c-34 -46 -89 -75 -151 -75c-61 0 -116 29 -151 75l64 51c19 -28 50 -46 87 -46c36 0 68 17 87 46zM308 -12c-166 0 -283 137 -283 345c0 209 117 345 294 345c125 0 199 -78 233 -167l-132 -59c-16 44 -50 83 -101 83c-75 0 -129 -69 -129 -202s54 -202 129 -202
c59 0 93 53 105 106h-125v142h290c0 -248 -93 -391 -281 -391z" />
    <glyph glyph-name="Gcommaaccent.alt1" horiz-adv-x="602" 
d="M395 -139c0 -62 -35 -117 -86 -154l-48 38c26 14 58 48 65 77c-3 -1 -10 -2 -16 -2c-32 0 -58 24 -58 60c0 38 31 68 68 68c39 0 75 -32 75 -87zM308 -12c-166 0 -283 137 -283 345c0 209 117 345 294 345c125 0 199 -78 233 -167l-132 -59c-16 44 -50 83 -101 83
c-75 0 -129 -69 -129 -202s54 -202 129 -202c59 0 93 53 105 106h-125v142h290c0 -248 -93 -391 -281 -391z" />
    <glyph glyph-name="Gcircumflex.alt1" horiz-adv-x="602" 
d="M459 723h-82l-60 83l-57 -83h-82l75 144h128zM308 -12c-166 0 -283 137 -283 345c0 209 117 345 294 345c125 0 199 -78 233 -167l-132 -59c-16 44 -50 83 -101 83c-75 0 -129 -69 -129 -202s54 -202 129 -202c59 0 93 53 105 106h-125v142h290
c0 -248 -93 -391 -281 -391z" />
    <glyph glyph-name="Gdotaccent.alt1" horiz-adv-x="602" 
d="M317 706c-40 0 -74 33 -74 74s34 75 74 75c41 0 75 -34 75 -75s-34 -74 -75 -74zM308 -12c-166 0 -283 137 -283 345c0 209 117 345 294 345c125 0 199 -78 233 -167l-132 -59c-16 44 -50 83 -101 83c-75 0 -129 -69 -129 -202s54 -202 129 -202c59 0 93 53 105 106h-125
v142h290c0 -248 -93 -391 -281 -391z" />
    <glyph glyph-name="Hbar" unicode="&#x126;" horiz-adv-x="645" 
d="M582 0h-162v272h-194v-272h-162v500h-53v81h53v86h162v-86h194v86h162v-86h48v-81h-48v-500zM226 414h194v86h-194v-86z" />
    <glyph glyph-name="Hcircumflex" unicode="&#x124;" horiz-adv-x="625" 
d="M452 723h-82l-60 83l-57 -83h-82l75 144h128zM571 0h-162v272h-194v-272h-162v667h162v-253h194v253h162v-667z" />
    <glyph glyph-name="uni1E22" unicode="&#x1e22;" horiz-adv-x="625" 
d="M571 0h-162v272h-194v-272h-162v667h162v-253h194v253h162v-667zM311 706c-40 0 -74 33 -74 74s34 75 74 75c41 0 75 -34 75 -75s-34 -74 -75 -74z" />
    <glyph glyph-name="Iacute" unicode="&#xcd;" horiz-adv-x="268" 
d="M215 0h-162v667h162v-667zM305 867l-134 -144h-94l103 144h125z" />
    <glyph glyph-name="Ibreve" unicode="&#x12c;" horiz-adv-x="268" 
d="M215 0h-162v667h162v-667zM287 777c-34 -46 -89 -75 -151 -75c-61 0 -116 29 -151 75l64 51c19 -28 50 -46 87 -46c36 0 68 17 87 46z" />
    <glyph glyph-name="Icircumflex" unicode="&#xce;" horiz-adv-x="268" 
d="M274 723h-82l-60 83l-57 -83h-82l75 144h128zM215 0h-162v667h162v-667z" />
    <glyph glyph-name="Idieresis" unicode="&#xcf;" horiz-adv-x="268" 
d="M307 780c0 -42 -34 -74 -76 -74c-40 0 -74 32 -74 74s34 75 74 75c42 0 76 -33 76 -75zM112 780c0 -41 -32 -74 -74 -74s-75 33 -75 74c0 42 33 75 75 75s74 -33 74 -75zM215 0h-162v667h162v-667z" />
    <glyph glyph-name="Idotaccent" unicode="&#x130;" horiz-adv-x="268" 
d="M215 0h-162v667h162v-667zM135 706c-40 0 -74 33 -74 74s34 75 74 75c41 0 75 -34 75 -75s-34 -74 -75 -74z" />
    <glyph glyph-name="Igrave" unicode="&#xcc;" horiz-adv-x="268" 
d="M215 0h-162v667h162v-667zM191 723h-94l-134 144h125z" />
    <glyph glyph-name="Imacron" unicode="&#x12a;" horiz-adv-x="268" 
d="M215 0h-162v667h162v-667zM291 725h-313v81h313v-81z" />
    <glyph glyph-name="Iogonek" unicode="&#x12e;" horiz-adv-x="268" 
d="M213 -99l56 -33c-17 -32 -45 -54 -88 -54c-52 0 -95 27 -95 89c0 35 13 68 41 97h-74v667h162v-667c-41 -25 -60 -58 -60 -92c0 -26 13 -36 27 -36c16 0 26 12 31 29z" />
    <glyph glyph-name="Itilde" unicode="&#x128;" horiz-adv-x="268" 
d="M215 0h-162v667h162v-667zM186 721c-58 0 -72 59 -102 59c-15 0 -27 -16 -27 -53h-72c0 84 36 134 102 134c58 0 72 -60 101 -60c16 0 28 17 28 54h71c0 -84 -36 -134 -101 -134z" />
    <glyph glyph-name="uni1EC8" unicode="&#x1ec8;" horiz-adv-x="268" 
d="M215 0h-162v667h162v-667zM110 751l-51 12c11 37 40 57 76 57c41 0 74 -21 74 -71c0 -21 -6 -37 -14 -52h-56c12 16 17 33 17 49c0 20 -11 28 -22 28c-12 0 -20 -10 -24 -23z" />
    <glyph glyph-name="uni1ECA" unicode="&#x1eca;" horiz-adv-x="268" 
d="M215 0h-162v667h162v-667zM136 -200c-40 0 -74 33 -74 74s34 75 74 75c41 0 75 -34 75 -75s-34 -74 -75 -74z" />
    <glyph glyph-name="IJ" unicode="&#x132;" horiz-adv-x="695" 
d="M215 0h-162v667h162v-667zM420 -12c-52 0 -105 12 -146 46l54 127c20 -17 46 -30 76 -30c46 0 77 28 77 78v458h161v-463c0 -149 -90 -216 -222 -216z" />
    <glyph glyph-name="Jcircumflex" unicode="&#x134;" horiz-adv-x="427" 
d="M435 723h-82l-60 83l-57 -83h-82l75 144h128zM152 -12c-52 0 -105 12 -146 46l54 127c20 -17 46 -30 76 -30c46 0 77 28 77 78v458h161v-463c0 -149 -90 -216 -222 -216z" />
    <glyph glyph-name="Kcommaaccent" unicode="&#x136;" horiz-adv-x="583" 
d="M367 -139c0 -62 -35 -117 -86 -154l-48 38c26 14 58 48 65 77c-3 -1 -10 -2 -16 -2c-32 0 -58 24 -58 60c0 38 31 68 68 68c39 0 75 -32 75 -87zM581 0h-191l-133 244l-42 -70v-174h-162v667h162v-282l165 282h188l-209 -312z" />
    <glyph glyph-name="Lacute" unicode="&#x139;" horiz-adv-x="455" 
d="M412 867l-134 -144h-94l103 144h125zM430 0h-377v667h162v-526h215v-141z" />
    <glyph glyph-name="Lcaron" unicode="&#x13d;" horiz-adv-x="455" 
d="M416 593c0 -62 -35 -117 -86 -154l-48 38c26 14 58 48 65 77c-3 -1 -10 -2 -16 -2c-32 0 -58 24 -58 60c0 38 31 68 68 68c39 0 75 -32 75 -87zM430 0h-377v667h162v-526h215v-141z" />
    <glyph glyph-name="Lcommaaccent" unicode="&#x13b;" horiz-adv-x="455" 
d="M302 -139c0 -62 -35 -117 -86 -154l-48 38c26 14 58 48 65 77c-3 -1 -10 -2 -16 -2c-32 0 -58 24 -58 60c0 38 31 68 68 68c39 0 75 -32 75 -87zM430 0h-377v667h162v-526h215v-141z" />
    <glyph glyph-name="Ldot" unicode="&#x13f;" horiz-adv-x="516" 
d="M430 0h-377v667h162v-526h215v-141zM482 342c0 -48 -40 -89 -89 -89s-89 41 -89 89c0 49 40 90 89 90s89 -41 89 -90z" />
    <glyph glyph-name="Lslash" unicode="&#x141;" horiz-adv-x="464" 
d="M11 191v130l52 30v316h162v-222l62 36v-131l-62 -36v-173h215v-141h-377v221z" />
    <glyph glyph-name="Nacute" unicode="&#x143;" horiz-adv-x="624" 
d="M482 867l-134 -144h-94l103 144h125zM570 0h-153l-202 351v-351h-162v667h165l191 -334v334h161v-667z" />
    <glyph glyph-name="Ncaron" unicode="&#x147;" horiz-adv-x="624" 
d="M376 723h-128l-78 144h82l60 -84l57 84h82zM570 0h-153l-202 351v-351h-162v667h165l191 -334v334h161v-667z" />
    <glyph glyph-name="Ncommaaccent" unicode="&#x145;" horiz-adv-x="624" 
d="M387 -139c0 -62 -35 -117 -86 -154l-48 38c26 14 58 48 65 77c-3 -1 -10 -2 -16 -2c-32 0 -58 24 -58 60c0 38 31 68 68 68c39 0 75 -32 75 -87zM570 0h-153l-202 351v-351h-162v667h165l191 -334v334h161v-667z" />
    <glyph glyph-name="Ntilde" unicode="&#xd1;" horiz-adv-x="624" 
d="M361 721c-58 0 -72 59 -102 59c-15 0 -27 -16 -27 -53h-72c0 84 36 134 102 134c58 0 72 -60 101 -60c16 0 28 17 28 54h71c0 -84 -36 -134 -101 -134zM570 0h-153l-202 351v-351h-162v667h165l191 -334v334h161v-667z" />
    <glyph glyph-name="Eng" unicode="&#x14a;" horiz-adv-x="624" 
d="M348 -196c-52 0 -105 12 -147 46l55 126c20 -18 46 -31 76 -31c43 0 73 26 77 69l-194 344v-358h-162v667h165l191 -341v341h161v-647c0 -149 -90 -216 -222 -216z" />
    <glyph glyph-name="Oacute" unicode="&#xd3;" horiz-adv-x="633" 
d="M487 867l-134 -144h-94l103 144h125zM316 -12c-180 0 -291 144 -291 345s111 345 291 345s291 -144 291 -345s-111 -345 -291 -345zM316 131c82 0 127 87 127 202c0 116 -45 202 -127 202c-81 0 -126 -86 -126 -202c0 -115 45 -202 126 -202z" />
    <glyph glyph-name="Obreve" unicode="&#x14e;" horiz-adv-x="633" 
d="M316 -12c-180 0 -291 144 -291 345s111 345 291 345s291 -144 291 -345s-111 -345 -291 -345zM316 131c82 0 127 87 127 202c0 116 -45 202 -127 202c-81 0 -126 -86 -126 -202c0 -115 45 -202 126 -202zM468 777c-34 -46 -89 -75 -151 -75c-61 0 -116 29 -151 75l64 51
c19 -28 50 -46 87 -46c36 0 68 17 87 46z" />
    <glyph glyph-name="Ocircumflex" unicode="&#xd4;" horiz-adv-x="633" 
d="M459 723h-82l-60 83l-57 -83h-82l75 144h128zM316 -12c-180 0 -291 144 -291 345s111 345 291 345s291 -144 291 -345s-111 -345 -291 -345zM316 131c82 0 127 87 127 202c0 116 -45 202 -127 202c-81 0 -126 -86 -126 -202c0 -115 45 -202 126 -202z" />
    <glyph glyph-name="Odieresis" unicode="&#xd6;" horiz-adv-x="633" 
d="M490 780c0 -42 -34 -74 -76 -74c-40 0 -74 32 -74 74s34 75 74 75c42 0 76 -33 76 -75zM295 780c0 -41 -32 -74 -74 -74s-75 33 -75 74c0 42 33 75 75 75s74 -33 74 -75zM316 -12c-180 0 -291 144 -291 345s111 345 291 345s291 -144 291 -345s-111 -345 -291 -345z
M316 131c82 0 127 87 127 202c0 116 -45 202 -127 202c-81 0 -126 -86 -126 -202c0 -115 45 -202 126 -202z" />
    <glyph glyph-name="Ograve" unicode="&#xd2;" horiz-adv-x="633" 
d="M374 723h-94l-134 144h125zM316 -12c-180 0 -291 144 -291 345s111 345 291 345s291 -144 291 -345s-111 -345 -291 -345zM316 131c82 0 127 87 127 202c0 116 -45 202 -127 202c-81 0 -126 -86 -126 -202c0 -115 45 -202 126 -202z" />
    <glyph glyph-name="Ohungarumlaut" unicode="&#x150;" horiz-adv-x="633" 
d="M372 867l-99 -144h-78l68 144h109zM515 867l-99 -144h-78l68 144h109zM316 -12c-180 0 -291 144 -291 345s111 345 291 345s291 -144 291 -345s-111 -345 -291 -345zM316 131c82 0 127 87 127 202c0 116 -45 202 -127 202c-81 0 -126 -86 -126 -202
c0 -115 45 -202 126 -202z" />
    <glyph glyph-name="Omacron" unicode="&#x14c;" horiz-adv-x="633" 
d="M472 725h-313v81h313v-81zM316 -12c-180 0 -291 144 -291 345s111 345 291 345s291 -144 291 -345s-111 -345 -291 -345zM316 131c82 0 127 87 127 202c0 116 -45 202 -127 202c-81 0 -126 -86 -126 -202c0 -115 45 -202 126 -202z" />
    <glyph glyph-name="Oslash" unicode="&#xd8;" horiz-adv-x="633" 
d="M316 -12c-59 0 -110 15 -153 43l-20 -31h-103l59 89c-48 61 -74 146 -74 244c0 201 111 345 291 345c56 0 105 -14 146 -39l19 28h102l-56 -84c52 -61 80 -149 80 -250c0 -201 -111 -345 -291 -345zM316 131c82 0 127 87 127 202c0 37 -5 71 -14 101l-182 -276
c18 -17 42 -27 69 -27zM190 333c0 -33 4 -63 11 -90l178 270c-17 14 -39 22 -63 22c-81 0 -126 -86 -126 -202z" />
    <glyph glyph-name="Oslashacute" unicode="&#x1fe;" horiz-adv-x="633" 
d="M487 867l-134 -144h-94l103 144h125zM316 -12c-59 0 -110 15 -153 43l-20 -31h-103l59 89c-48 61 -74 146 -74 244c0 201 111 345 291 345c56 0 105 -14 146 -39l19 28h102l-56 -84c52 -61 80 -149 80 -250c0 -201 -111 -345 -291 -345zM316 131c82 0 127 87 127 202
c0 37 -5 71 -14 101l-182 -276c18 -17 42 -27 69 -27zM190 333c0 -33 4 -63 11 -90l178 270c-17 14 -39 22 -63 22c-81 0 -126 -86 -126 -202z" />
    <glyph glyph-name="Otilde" unicode="&#xd5;" horiz-adv-x="633" 
d="M316 -12c-180 0 -291 144 -291 345s111 345 291 345s291 -144 291 -345s-111 -345 -291 -345zM316 131c82 0 127 87 127 202c0 116 -45 202 -127 202c-81 0 -126 -86 -126 -202c0 -115 45 -202 126 -202zM367 721c-58 0 -72 59 -102 59c-15 0 -27 -16 -27 -53h-72
c0 84 36 134 102 134c58 0 72 -60 101 -60c16 0 28 17 28 54h71c0 -84 -36 -134 -101 -134z" />
    <glyph glyph-name="uni1ECC" unicode="&#x1ecc;" horiz-adv-x="633" 
d="M316 -12c-180 0 -291 144 -291 345s111 345 291 345s291 -144 291 -345s-111 -345 -291 -345zM316 131c82 0 127 87 127 202c0 116 -45 202 -127 202c-81 0 -126 -86 -126 -202c0 -115 45 -202 126 -202zM318 -200c-40 0 -74 33 -74 74s34 75 74 75c41 0 75 -34 75 -75
s-34 -74 -75 -74z" />
    <glyph glyph-name="uni1ECE" unicode="&#x1ece;" horiz-adv-x="633" 
d="M316 -12c-180 0 -291 144 -291 345s111 345 291 345s291 -144 291 -345s-111 -345 -291 -345zM316 131c82 0 127 87 127 202c0 116 -45 202 -127 202c-81 0 -126 -86 -126 -202c0 -115 45 -202 126 -202zM291 751l-51 12c11 37 40 57 76 57c41 0 74 -21 74 -71
c0 -21 -6 -37 -14 -52h-56c12 16 17 33 17 49c0 20 -11 28 -22 28c-12 0 -20 -10 -24 -23z" />
    <glyph glyph-name="uni1ED0" unicode="&#x1ed0;" horiz-adv-x="633" 
d="M454 682h-82l-60 62l-57 -62h-82l75 108h128zM653 843l-134 -108h-94l103 108h125zM316 -12c-180 0 -291 144 -291 345s111 345 291 345s291 -144 291 -345s-111 -345 -291 -345zM316 131c82 0 127 87 127 202c0 116 -45 202 -127 202c-81 0 -126 -86 -126 -202
c0 -115 45 -202 126 -202z" />
    <glyph glyph-name="uni1ED2" unicode="&#x1ed2;" horiz-adv-x="633" 
d="M452 682h-82l-60 62l-57 -62h-82l75 108h128zM316 -12c-180 0 -291 144 -291 345s111 345 291 345s291 -144 291 -345s-111 -345 -291 -345zM316 131c82 0 127 87 127 202c0 116 -45 202 -127 202c-81 0 -126 -86 -126 -202c0 -115 45 -202 126 -202zM201 735h-94
l-134 108h125z" />
    <glyph glyph-name="uni1ED4" unicode="&#x1ed4;" horiz-adv-x="633" 
d="M453 682h-82l-60 62l-57 -62h-82l75 108h128zM316 -12c-180 0 -291 144 -291 345s111 345 291 345s291 -144 291 -345s-111 -345 -291 -345zM316 131c82 0 127 87 127 202c0 116 -45 202 -127 202c-81 0 -126 -86 -126 -202c0 -115 45 -202 126 -202zM444 785l-51 9
c11 27 40 42 76 42c41 0 74 -15 74 -53c0 -16 -6 -28 -14 -39h-56c12 12 17 25 17 37c0 15 -11 21 -22 21c-12 0 -20 -8 -24 -17z" />
    <glyph glyph-name="uni1ED6" unicode="&#x1ed6;" horiz-adv-x="633" 
d="M455 678h-82l-60 41l-57 -41h-82l75 72h128zM316 -12c-180 0 -291 144 -291 345s111 345 291 345s291 -144 291 -345s-111 -345 -291 -345zM316 131c82 0 127 87 127 202c0 116 -45 202 -127 202c-81 0 -126 -86 -126 -202c0 -115 45 -202 126 -202zM362 757
c-58 0 -72 29 -102 29c-15 0 -27 -8 -27 -26h-72c0 42 36 67 102 67c58 0 72 -30 101 -30c16 0 28 8 28 27h71c0 -42 -36 -67 -101 -67z" />
    <glyph glyph-name="uni1ED8" unicode="&#x1ed8;" horiz-adv-x="633" 
d="M459 723h-82l-60 83l-57 -83h-82l75 144h128zM316 -12c-180 0 -291 144 -291 345s111 345 291 345s291 -144 291 -345s-111 -345 -291 -345zM316 131c82 0 127 87 127 202c0 116 -45 202 -127 202c-81 0 -126 -86 -126 -202c0 -115 45 -202 126 -202zM318 -200
c-40 0 -74 33 -74 74s34 75 74 75c41 0 75 -34 75 -75s-34 -74 -75 -74z" />
    <glyph glyph-name="Ohorn" unicode="&#x1a0;" horiz-adv-x="633" 
d="M316 -12c-180 0 -291 144 -291 345s111 345 291 345c92 0 166 -38 217 -102c17 15 33 37 38 56c-2 -2 -9 -3 -15 -3c-28 0 -51 22 -51 55s27 60 60 60c35 0 67 -29 67 -78c0 -53 -28 -101 -71 -134c30 -55 46 -123 46 -199c0 -201 -111 -345 -291 -345zM316 131
c82 0 127 87 127 202c0 116 -45 202 -127 202c-81 0 -126 -86 -126 -202c0 -115 45 -202 126 -202z" />
    <glyph glyph-name="uni1EDA" unicode="&#x1eda;" horiz-adv-x="633" 
d="M487 867l-134 -144h-94l103 144h125zM316 -12c-180 0 -291 144 -291 345s111 345 291 345c92 0 166 -38 217 -102c17 15 33 37 38 56c-2 -2 -9 -3 -15 -3c-28 0 -51 22 -51 55s27 60 60 60c35 0 67 -29 67 -78c0 -53 -28 -101 -71 -134c30 -55 46 -123 46 -199
c0 -201 -111 -345 -291 -345zM316 131c82 0 127 87 127 202c0 116 -45 202 -127 202c-81 0 -126 -86 -126 -202c0 -115 45 -202 126 -202z" />
    <glyph glyph-name="uni1EDC" unicode="&#x1edc;" horiz-adv-x="633" 
d="M316 -12c-180 0 -291 144 -291 345s111 345 291 345c92 0 166 -38 217 -102c17 15 33 37 38 56c-2 -2 -9 -3 -15 -3c-28 0 -51 22 -51 55s27 60 60 60c35 0 67 -29 67 -78c0 -53 -28 -101 -71 -134c30 -55 46 -123 46 -199c0 -201 -111 -345 -291 -345zM316 131
c82 0 127 87 127 202c0 116 -45 202 -127 202c-81 0 -126 -86 -126 -202c0 -115 45 -202 126 -202zM374 723h-94l-134 144h125z" />
    <glyph glyph-name="uni1EDE" unicode="&#x1ede;" horiz-adv-x="633" 
d="M316 -12c-180 0 -291 144 -291 345s111 345 291 345c92 0 166 -38 217 -102c17 15 33 37 38 56c-2 -2 -9 -3 -15 -3c-28 0 -51 22 -51 55s27 60 60 60c35 0 67 -29 67 -78c0 -53 -28 -101 -71 -134c30 -55 46 -123 46 -199c0 -201 -111 -345 -291 -345zM316 131
c82 0 127 87 127 202c0 116 -45 202 -127 202c-81 0 -126 -86 -126 -202c0 -115 45 -202 126 -202zM292 751l-51 12c11 37 40 57 76 57c41 0 74 -21 74 -71c0 -21 -6 -37 -14 -52h-56c12 16 17 33 17 49c0 20 -11 28 -22 28c-12 0 -20 -10 -24 -23z" />
    <glyph glyph-name="uni1EE0" unicode="&#x1ee0;" horiz-adv-x="633" 
d="M316 -12c-180 0 -291 144 -291 345s111 345 291 345c92 0 166 -38 217 -102c17 15 33 37 38 56c-2 -2 -9 -3 -15 -3c-28 0 -51 22 -51 55s27 60 60 60c35 0 67 -29 67 -78c0 -53 -28 -101 -71 -134c30 -55 46 -123 46 -199c0 -201 -111 -345 -291 -345zM316 131
c82 0 127 87 127 202c0 116 -45 202 -127 202c-81 0 -126 -86 -126 -202c0 -115 45 -202 126 -202zM367 721c-58 0 -72 59 -102 59c-15 0 -27 -16 -27 -53h-72c0 84 36 134 102 134c58 0 72 -60 101 -60c16 0 28 17 28 54h71c0 -84 -36 -134 -101 -134z" />
    <glyph glyph-name="uni1EE2" unicode="&#x1ee2;" horiz-adv-x="633" 
d="M316 -12c-180 0 -291 144 -291 345s111 345 291 345c92 0 166 -38 217 -102c17 15 33 37 38 56c-2 -2 -9 -3 -15 -3c-28 0 -51 22 -51 55s27 60 60 60c35 0 67 -29 67 -78c0 -53 -28 -101 -71 -134c30 -55 46 -123 46 -199c0 -201 -111 -345 -291 -345zM316 131
c82 0 127 87 127 202c0 116 -45 202 -127 202c-81 0 -126 -86 -126 -202c0 -115 45 -202 126 -202zM318 -200c-40 0 -74 33 -74 74s34 75 74 75c41 0 75 -34 75 -75s-34 -74 -75 -74z" />
    <glyph glyph-name="OE" unicode="&#x152;" horiz-adv-x="862" 
d="M832 0h-401v50c-33 -42 -92 -62 -140 -62c-165 0 -266 143 -266 345s101 344 266 344c48 0 107 -19 140 -60v50h401v-141h-240v-117h233v-141h-233v-127h240v-141zM431 215v236c-21 55 -63 83 -111 83c-86 0 -130 -85 -130 -201s44 -202 130 -202c48 0 90 30 111 84z" />
    <glyph glyph-name="uni1E56" unicode="&#x1e56;" horiz-adv-x="556" 
d="M215 0h-162v667h268c145 0 217 -102 217 -220c0 -117 -72 -218 -217 -218h-106v-229zM301 370c43 0 73 29 73 78s-30 78 -73 78h-86v-156h86zM277 706c-40 0 -74 33 -74 74s34 75 74 75c41 0 75 -34 75 -75s-34 -74 -75 -74z" />
    <glyph glyph-name="Racute" unicode="&#x154;" horiz-adv-x="573" 
d="M465 867l-134 -144h-94l103 144h125zM543 0h-180l-88 229h-60v-229h-162v667h272c130 0 213 -94 213 -217c0 -113 -58 -170 -108 -192zM300 370c43 0 74 29 74 78s-31 78 -74 78h-85v-156h85z" />
    <glyph glyph-name="Rcaron" unicode="&#x158;" horiz-adv-x="573" 
d="M353 723h-128l-78 144h82l60 -84l57 84h82zM543 0h-180l-88 229h-60v-229h-162v667h272c130 0 213 -94 213 -217c0 -113 -58 -170 -108 -192zM300 370c43 0 74 29 74 78s-31 78 -74 78h-85v-156h85z" />
    <glyph glyph-name="Rcommaaccent" unicode="&#x156;" horiz-adv-x="573" 
d="M363 -139c0 -62 -35 -117 -86 -154l-48 38c26 14 58 48 65 77c-3 -1 -10 -2 -16 -2c-32 0 -58 24 -58 60c0 38 31 68 68 68c39 0 75 -32 75 -87zM543 0h-180l-88 229h-60v-229h-162v667h272c130 0 213 -94 213 -217c0 -113 -58 -170 -108 -192zM300 370c43 0 74 29 74 78
s-31 78 -74 78h-85v-156h85z" />
    <glyph glyph-name="Sacute" unicode="&#x15a;" horiz-adv-x="511" 
d="M428 867l-134 -144h-94l103 144h125zM251 -12c-108 0 -185 33 -241 87l77 124c39 -42 98 -71 163 -71c47 0 76 24 76 57c0 96 -296 56 -296 288c0 107 83 205 234 205c84 0 159 -27 214 -76l-75 -120c-41 38 -94 55 -145 55c-41 0 -63 -21 -63 -51
c0 -88 295 -61 295 -285c0 -127 -88 -213 -239 -213z" />
    <glyph glyph-name="Scaron" unicode="&#x160;" horiz-adv-x="511" 
d="M328 723h-128l-78 144h82l60 -84l57 84h82zM251 -12c-108 0 -185 33 -241 87l77 124c39 -42 98 -71 163 -71c47 0 76 24 76 57c0 96 -296 56 -296 288c0 107 83 205 234 205c84 0 159 -27 214 -76l-75 -120c-41 38 -94 55 -145 55c-41 0 -63 -21 -63 -51
c0 -88 295 -61 295 -285c0 -127 -88 -213 -239 -213z" />
    <glyph glyph-name="Scircumflex" unicode="&#x15c;" horiz-adv-x="511" 
d="M403 723h-82l-60 83l-57 -83h-82l75 144h128zM251 -12c-108 0 -185 33 -241 87l77 124c39 -42 98 -71 163 -71c47 0 76 24 76 57c0 96 -296 56 -296 288c0 107 83 205 234 205c84 0 159 -27 214 -76l-75 -120c-41 38 -94 55 -145 55c-41 0 -63 -21 -63 -51
c0 -88 295 -61 295 -285c0 -127 -88 -213 -239 -213z" />
    <glyph glyph-name="Scedilla" unicode="&#x15e;" horiz-adv-x="511" 
d="M242 -197c-42 0 -81 15 -102 33l26 54c23 -18 49 -29 72 -29s43 11 43 30c0 14 -9 23 -23 23c-11 0 -20 -5 -27 -13l-50 29l23 60c-84 9 -147 39 -194 85l77 124c39 -42 98 -71 163 -71c47 0 76 24 76 57c0 96 -296 56 -296 288c0 107 83 205 234 205
c84 0 159 -27 214 -76l-75 -120c-41 38 -94 55 -145 55c-41 0 -63 -21 -63 -51c0 -88 295 -61 295 -285c0 -122 -81 -205 -220 -212l-16 -39c10 6 19 10 32 10c35 0 64 -29 64 -71c0 -54 -47 -86 -108 -86z" />
    <glyph glyph-name="Scommaaccent" unicode="&#x218;" horiz-adv-x="511" 
d="M328 -139c0 -62 -35 -117 -86 -154l-48 38c26 14 58 48 65 77c-3 -1 -10 -2 -16 -2c-32 0 -58 24 -58 60c0 38 31 68 68 68c39 0 75 -32 75 -87zM251 -12c-108 0 -185 33 -241 87l77 124c39 -42 98 -71 163 -71c47 0 76 24 76 57c0 96 -296 56 -296 288
c0 107 83 205 234 205c84 0 159 -27 214 -76l-75 -120c-41 38 -94 55 -145 55c-41 0 -63 -21 -63 -51c0 -88 295 -61 295 -285c0 -127 -88 -213 -239 -213z" />
    <glyph glyph-name="uni1E60" unicode="&#x1e60;" horiz-adv-x="511" 
d="M251 -12c-108 0 -185 33 -241 87l77 124c39 -42 98 -71 163 -71c47 0 76 24 76 57c0 96 -296 56 -296 288c0 107 83 205 234 205c84 0 159 -27 214 -76l-75 -120c-41 38 -94 55 -145 55c-41 0 -63 -21 -63 -51c0 -88 295 -61 295 -285c0 -127 -88 -213 -239 -213z
M255 706c-40 0 -74 33 -74 74s34 75 74 75c41 0 75 -34 75 -75s-34 -74 -75 -74z" />
    <glyph glyph-name="Tbar" unicode="&#x166;" horiz-adv-x="487" 
d="M325 0h-162v253h-96v81h96v192h-143v141h447v-141h-142v-192h93v-81h-93v-253z" />
    <glyph glyph-name="Tcaron" unicode="&#x164;" horiz-adv-x="487" 
d="M309 723h-128l-78 144h82l60 -84l57 84h82zM325 0h-162v526h-143v141h447v-141h-142v-526z" />
    <glyph glyph-name="Tcommaaccent" unicode="&#x162;" horiz-adv-x="487" 
d="M319 -139c0 -62 -35 -117 -86 -154l-48 38c26 14 58 48 65 77c-3 -1 -10 -2 -16 -2c-32 0 -58 24 -58 60c0 38 31 68 68 68c39 0 75 -32 75 -87zM325 0h-162v526h-143v141h447v-141h-142v-526z" />
    <glyph glyph-name="uni021A" unicode="&#x21a;" horiz-adv-x="487" 
d="M319 -139c0 -62 -35 -117 -86 -154l-48 38c26 14 58 48 65 77c-3 -1 -10 -2 -16 -2c-32 0 -58 24 -58 60c0 38 31 68 68 68c39 0 75 -32 75 -87zM325 0h-162v526h-143v141h447v-141h-142v-526z" />
    <glyph glyph-name="uni1E6A" unicode="&#x1e6a;" horiz-adv-x="487" 
d="M325 0h-162v526h-143v141h447v-141h-142v-526zM243 706c-40 0 -74 33 -74 74s34 75 74 75c41 0 75 -34 75 -75s-34 -74 -75 -74z" />
    <glyph glyph-name="Uacute" unicode="&#xda;" horiz-adv-x="629" 
d="M486 867l-134 -144h-94l103 144h125zM315 -12c-159 0 -262 91 -262 249v430h163v-431c0 -67 35 -106 99 -106c63 0 98 39 98 106v431h163v-430c0 -158 -102 -249 -261 -249z" />
    <glyph glyph-name="Ubreve" unicode="&#x16c;" horiz-adv-x="629" 
d="M315 -12c-159 0 -262 91 -262 249v430h163v-431c0 -67 35 -106 99 -106c63 0 98 39 98 106v431h163v-430c0 -158 -102 -249 -261 -249zM467 777c-34 -46 -89 -75 -151 -75c-61 0 -116 29 -151 75l64 51c19 -28 50 -46 87 -46c36 0 68 17 87 46z" />
    <glyph glyph-name="Ucircumflex" unicode="&#xdb;" horiz-adv-x="629" 
d="M459 723h-82l-60 83l-57 -83h-82l75 144h128zM315 -12c-159 0 -262 91 -262 249v430h163v-431c0 -67 35 -106 99 -106c63 0 98 39 98 106v431h163v-430c0 -158 -102 -249 -261 -249z" />
    <glyph glyph-name="Udieresis" unicode="&#xdc;" horiz-adv-x="629" 
d="M488 780c0 -42 -34 -74 -76 -74c-40 0 -74 32 -74 74s34 75 74 75c42 0 76 -33 76 -75zM293 780c0 -41 -32 -74 -74 -74s-75 33 -75 74c0 42 33 75 75 75s74 -33 74 -75zM315 -12c-159 0 -262 91 -262 249v430h163v-431c0 -67 35 -106 99 -106c63 0 98 39 98 106v431h163
v-430c0 -158 -102 -249 -261 -249z" />
    <glyph glyph-name="Ugrave" unicode="&#xd9;" horiz-adv-x="629" 
d="M315 -12c-159 0 -262 91 -262 249v430h163v-431c0 -67 35 -106 99 -106c63 0 98 39 98 106v431h163v-430c0 -158 -102 -249 -261 -249zM372 723h-94l-134 144h125z" />
    <glyph glyph-name="Uhungarumlaut" unicode="&#x170;" horiz-adv-x="629" 
d="M315 -12c-159 0 -262 91 -262 249v430h163v-431c0 -67 35 -106 99 -106c63 0 98 39 98 106v431h163v-430c0 -158 -102 -249 -261 -249zM372 867l-99 -144h-78l68 144h109zM515 867l-99 -144h-78l68 144h109z" />
    <glyph glyph-name="Umacron" unicode="&#x16a;" horiz-adv-x="629" 
d="M315 -12c-159 0 -262 91 -262 249v430h163v-431c0 -67 35 -106 99 -106c63 0 98 39 98 106v431h163v-430c0 -158 -102 -249 -261 -249zM472 725h-313v81h313v-81z" />
    <glyph glyph-name="Uogonek" unicode="&#x172;" horiz-adv-x="629" 
d="M406 -99l56 -33c-17 -32 -45 -54 -88 -54c-52 0 -95 27 -95 89c0 30 10 59 31 85c-156 2 -257 92 -257 249v430h163v-431c0 -67 35 -106 99 -106c63 0 98 39 98 106v431h163v-430c0 -125 -64 -208 -168 -237c-41 -25 -60 -58 -60 -92c0 -26 13 -36 27 -36
c16 0 26 12 31 29z" />
    <glyph glyph-name="Uring" unicode="&#x16e;" horiz-adv-x="629" 
d="M316 690c-55 0 -100 46 -100 101s45 100 100 100s99 -45 99 -100s-44 -101 -99 -101zM316 753c21 0 37 17 37 38s-16 38 -37 38c-20 0 -38 -17 -38 -38s18 -38 38 -38zM315 -12c-159 0 -262 91 -262 249v430h163v-431c0 -67 35 -106 99 -106c63 0 98 39 98 106v431h163
v-430c0 -158 -102 -249 -261 -249z" />
    <glyph glyph-name="Utilde" unicode="&#x168;" horiz-adv-x="629" 
d="M315 -12c-159 0 -262 91 -262 249v430h163v-431c0 -67 35 -106 99 -106c63 0 98 39 98 106v431h163v-430c0 -158 -102 -249 -261 -249zM366 721c-58 0 -72 59 -102 59c-15 0 -27 -16 -27 -53h-72c0 84 36 134 102 134c58 0 72 -60 101 -60c16 0 28 17 28 54h71
c0 -84 -36 -134 -101 -134z" />
    <glyph glyph-name="uni1EE4" unicode="&#x1ee4;" horiz-adv-x="629" 
d="M315 -12c-159 0 -262 91 -262 249v430h163v-431c0 -67 35 -106 99 -106c63 0 98 39 98 106v431h163v-430c0 -158 -102 -249 -261 -249zM317 -200c-40 0 -74 33 -74 74s34 75 74 75c41 0 75 -34 75 -75s-34 -74 -75 -74z" />
    <glyph glyph-name="Uhorn" unicode="&#x1af;" horiz-adv-x="629" 
d="M677 726c0 -55 -33 -116 -101 -153v-336c0 -158 -102 -249 -261 -249s-262 91 -262 249v430h163v-431c0 -67 35 -106 99 -106c63 0 98 39 98 106v431h163v-34c19 16 36 39 40 58c-2 -1 -8 -2 -14 -2c-29 0 -51 22 -51 54c0 33 26 60 59 60c35 0 67 -28 67 -77z" />
    <glyph glyph-name="uni1EE6" unicode="&#x1ee6;" horiz-adv-x="629" 
d="M315 -12c-159 0 -262 91 -262 249v430h163v-431c0 -67 35 -106 99 -106c63 0 98 39 98 106v431h163v-430c0 -158 -102 -249 -261 -249zM290 751l-51 12c11 37 40 57 76 57c41 0 74 -21 74 -71c0 -21 -6 -37 -14 -52h-56c12 16 17 33 17 49c0 20 -11 28 -22 28
c-12 0 -20 -10 -24 -23z" />
    <glyph glyph-name="uni1EE8" unicode="&#x1ee8;" horiz-adv-x="629" 
d="M486 867l-134 -144h-94l103 144h125zM677 726c0 -55 -33 -116 -101 -153v-336c0 -158 -102 -249 -261 -249s-262 91 -262 249v430h163v-431c0 -67 35 -106 99 -106c63 0 98 39 98 106v431h163v-34c19 16 36 39 40 58c-2 -1 -8 -2 -14 -2c-29 0 -51 22 -51 54
c0 33 26 60 59 60c35 0 67 -28 67 -77z" />
    <glyph glyph-name="uni1EEA" unicode="&#x1eea;" horiz-adv-x="629" 
d="M372 723h-94l-134 144h125zM677 726c0 -55 -33 -116 -101 -153v-336c0 -158 -102 -249 -261 -249s-262 91 -262 249v430h163v-431c0 -67 35 -106 99 -106c63 0 98 39 98 106v431h163v-34c19 16 36 39 40 58c-2 -1 -8 -2 -14 -2c-29 0 -51 22 -51 54c0 33 26 60 59 60
c35 0 67 -28 67 -77z" />
    <glyph glyph-name="uni1EEC" unicode="&#x1eec;" horiz-adv-x="629" 
d="M290 751l-51 12c11 37 40 57 76 57c41 0 74 -21 74 -71c0 -21 -6 -37 -14 -52h-56c12 16 17 33 17 49c0 20 -11 28 -22 28c-12 0 -20 -10 -24 -23zM677 726c0 -55 -33 -116 -101 -153v-336c0 -158 -102 -249 -261 -249s-262 91 -262 249v430h163v-431
c0 -67 35 -106 99 -106c63 0 98 39 98 106v431h163v-34c19 16 36 39 40 58c-2 -1 -8 -2 -14 -2c-29 0 -51 22 -51 54c0 33 26 60 59 60c35 0 67 -28 67 -77z" />
    <glyph glyph-name="uni1EEE" unicode="&#x1eee;" horiz-adv-x="629" 
d="M677 726c0 -55 -33 -116 -101 -153v-336c0 -158 -102 -249 -261 -249s-262 91 -262 249v430h163v-431c0 -67 35 -106 99 -106c63 0 98 39 98 106v431h163v-34c19 16 36 39 40 58c-2 -1 -8 -2 -14 -2c-29 0 -51 22 -51 54c0 33 26 60 59 60c35 0 67 -28 67 -77zM364 721
c-58 0 -72 59 -102 59c-15 0 -27 -16 -27 -53h-72c0 84 36 134 102 134c58 0 72 -60 101 -60c16 0 28 17 28 54h71c0 -84 -36 -134 -101 -134z" />
    <glyph glyph-name="uni1EF0" unicode="&#x1ef0;" horiz-adv-x="629" 
d="M317 -200c-40 0 -74 33 -74 74s34 75 74 75c41 0 75 -34 75 -75s-34 -74 -75 -74zM677 726c0 -55 -33 -116 -101 -153v-336c0 -158 -102 -249 -261 -249s-262 91 -262 249v430h163v-431c0 -67 35 -106 99 -106c63 0 98 39 98 106v431h163v-34c19 16 36 39 40 58
c-2 -1 -8 -2 -14 -2c-29 0 -51 22 -51 54c0 33 26 60 59 60c35 0 67 -28 67 -77z" />
    <glyph glyph-name="Wacute" unicode="&#x1e82;" horiz-adv-x="793" 
d="M568 867l-134 -144h-94l103 144h125zM638 0h-167l-75 403l-74 -403h-167l-154 667h173l74 -425l87 425h124l86 -425l74 425h173z" />
    <glyph glyph-name="Wcircumflex" unicode="&#x174;" horiz-adv-x="793" 
d="M537 723h-82l-60 83l-57 -83h-82l75 144h128zM638 0h-167l-75 403l-74 -403h-167l-154 667h173l74 -425l87 425h124l86 -425l74 425h173z" />
    <glyph glyph-name="Wdieresis" unicode="&#x1e84;" horiz-adv-x="793" 
d="M568 780c0 -42 -34 -74 -76 -74c-40 0 -74 32 -74 74s34 75 74 75c42 0 76 -33 76 -75zM373 780c0 -41 -32 -74 -74 -74s-75 33 -75 74c0 42 33 75 75 75s74 -33 74 -75zM638 0h-167l-75 403l-74 -403h-167l-154 667h173l74 -425l87 425h124l86 -425l74 425h173z" />
    <glyph glyph-name="Wgrave" unicode="&#x1e80;" horiz-adv-x="793" 
d="M638 0h-167l-75 403l-74 -403h-167l-154 667h173l74 -425l87 425h124l86 -425l74 425h173zM454 723h-94l-134 144h125z" />
    <glyph glyph-name="Yacute" unicode="&#xdd;" horiz-adv-x="557" 
d="M360 0h-162v271l-206 396h177l110 -248l109 248h177l-205 -396v-271zM449 867l-134 -144h-94l103 144h125z" />
    <glyph glyph-name="Ycircumflex" unicode="&#x176;" horiz-adv-x="557" 
d="M420 723h-82l-60 83l-57 -83h-82l75 144h128zM360 0h-162v271l-206 396h177l110 -248l109 248h177l-205 -396v-271z" />
    <glyph glyph-name="Ydieresis" unicode="&#x178;" horiz-adv-x="557" 
d="M452 780c0 -42 -34 -74 -76 -74c-40 0 -74 32 -74 74s34 75 74 75c42 0 76 -33 76 -75zM257 780c0 -41 -32 -74 -74 -74s-75 33 -75 74c0 42 33 75 75 75s74 -33 74 -75zM360 0h-162v271l-206 396h177l110 -248l109 248h177l-205 -396v-271z" />
    <glyph glyph-name="Ygrave" unicode="&#x1ef2;" horiz-adv-x="557" 
d="M360 0h-162v271l-206 396h177l110 -248l109 248h177l-205 -396v-271zM336 723h-94l-134 144h125z" />
    <glyph glyph-name="Zacute" unicode="&#x179;" horiz-adv-x="495" 
d="M402 867l-134 -144h-94l103 144h125zM462 0h-429v132l223 394h-223v141h422v-129l-225 -397h232v-141z" />
    <glyph glyph-name="Zcaron" unicode="&#x17d;" horiz-adv-x="495" 
d="M312 723h-128l-78 144h82l60 -84l57 84h82zM462 0h-429v132l223 394h-223v141h422v-129l-225 -397h232v-141z" />
    <glyph glyph-name="Zdotaccent" unicode="&#x17b;" horiz-adv-x="495" 
d="M462 0h-429v132l223 394h-223v141h422v-129l-225 -397h232v-141zM243 706c-40 0 -74 33 -74 74s34 75 74 75c41 0 75 -34 75 -75s-34 -74 -75 -74z" />
    <glyph glyph-name="Eth" unicode="&#xd0;" horiz-adv-x="637" 
d="M311 0h-234v271h-66v123h66v273h234c190 0 301 -136 301 -334s-110 -333 -301 -333zM311 141c86 0 136 76 136 192c0 123 -47 193 -136 193h-72v-132h99v-123h-99v-130h72z" />
    <glyph glyph-name="Thorn" unicode="&#xde;" horiz-adv-x="556" 
d="M215 0h-162v667h162v-104h106c145 0 217 -102 217 -220s-72 -218 -217 -218h-106v-125zM300 266c43 0 74 29 74 77c0 49 -31 79 -74 79h-85v-156h85z" />
    <glyph glyph-name="aacute" unicode="&#xe1;" horiz-adv-x="492" 
d="M444 0h-144v47c-26 -36 -78 -59 -127 -59c-76 0 -151 55 -151 160c0 108 75 155 151 155c50 0 102 -19 127 -55v55c0 45 -31 75 -85 75c-40 0 -83 -18 -119 -50l-51 97c54 50 134 70 198 70c110 0 201 -47 201 -177v-318zM230 83c28 0 56 13 70 38v49
c-14 25 -42 38 -70 38c-37 0 -64 -23 -64 -62c0 -40 27 -63 64 -63zM414 700l-134 -144h-94l103 144h125z" />
    <glyph glyph-name="abreve" unicode="&#x103;" horiz-adv-x="492" 
d="M444 0h-144v47c-26 -36 -78 -59 -127 -59c-76 0 -151 55 -151 160c0 108 75 155 151 155c50 0 102 -19 127 -55v55c0 45 -31 75 -85 75c-40 0 -83 -18 -119 -50l-51 97c54 50 134 70 198 70c110 0 201 -47 201 -177v-318zM230 83c28 0 56 13 70 38v49
c-14 25 -42 38 -70 38c-37 0 -64 -23 -64 -62c0 -40 27 -63 64 -63zM396 610c-34 -46 -89 -75 -151 -75c-61 0 -116 29 -151 75l64 51c19 -28 50 -46 87 -46c36 0 68 17 87 46z" />
    <glyph glyph-name="acircumflex" unicode="&#xe2;" horiz-adv-x="492" 
d="M444 0h-144v47c-26 -36 -78 -59 -127 -59c-76 0 -151 55 -151 160c0 108 75 155 151 155c50 0 102 -19 127 -55v55c0 45 -31 75 -85 75c-40 0 -83 -18 -119 -50l-51 97c54 50 134 70 198 70c110 0 201 -47 201 -177v-318zM230 83c28 0 56 13 70 38v49
c-14 25 -42 38 -70 38c-37 0 -64 -23 -64 -62c0 -40 27 -63 64 -63zM388 556h-82l-60 83l-57 -83h-82l75 144h128z" />
    <glyph glyph-name="adieresis" unicode="&#xe4;" horiz-adv-x="492" 
d="M444 0h-144v47c-26 -36 -78 -59 -127 -59c-76 0 -151 55 -151 160c0 108 75 155 151 155c50 0 102 -19 127 -55v55c0 45 -31 75 -85 75c-40 0 -83 -18 -119 -50l-51 97c54 50 134 70 198 70c110 0 201 -47 201 -177v-318zM230 83c28 0 56 13 70 38v49
c-14 25 -42 38 -70 38c-37 0 -64 -23 -64 -62c0 -40 27 -63 64 -63zM417 613c0 -42 -34 -74 -76 -74c-40 0 -74 32 -74 74s34 75 74 75c42 0 76 -33 76 -75zM222 613c0 -41 -32 -74 -74 -74s-75 33 -75 74c0 42 33 75 75 75s74 -33 74 -75z" />
    <glyph glyph-name="agrave" unicode="&#xe0;" horiz-adv-x="492" 
d="M444 0h-144v47c-26 -36 -78 -59 -127 -59c-76 0 -151 55 -151 160c0 108 75 155 151 155c50 0 102 -19 127 -55v55c0 45 -31 75 -85 75c-40 0 -83 -18 -119 -50l-51 97c54 50 134 70 198 70c110 0 201 -47 201 -177v-318zM230 83c28 0 56 13 70 38v49
c-14 25 -42 38 -70 38c-37 0 -64 -23 -64 -62c0 -40 27 -63 64 -63zM300 556h-94l-134 144h125z" />
    <glyph glyph-name="amacron" unicode="&#x101;" horiz-adv-x="492" 
d="M444 0h-144v47c-26 -36 -78 -59 -127 -59c-76 0 -151 55 -151 160c0 108 75 155 151 155c50 0 102 -19 127 -55v55c0 45 -31 75 -85 75c-40 0 -83 -18 -119 -50l-51 97c54 50 134 70 198 70c110 0 201 -47 201 -177v-318zM230 83c28 0 56 13 70 38v49
c-14 25 -42 38 -70 38c-37 0 -64 -23 -64 -62c0 -40 27 -63 64 -63zM401 558h-313v81h313v-81z" />
    <glyph glyph-name="aogonek" unicode="&#x105;" horiz-adv-x="492" 
d="M442 -99l56 -33c-17 -32 -45 -54 -88 -54c-52 0 -95 27 -95 89c0 35 13 68 41 97h-56v47c-26 -36 -78 -59 -127 -59c-76 0 -151 55 -151 160c0 108 75 155 151 155c50 0 102 -19 127 -55v55c0 45 -31 75 -85 75c-40 0 -83 -18 -119 -50l-51 97c54 50 134 70 198 70
c110 0 201 -47 201 -177v-318c-41 -25 -60 -58 -60 -92c0 -26 13 -36 27 -36c16 0 26 12 31 29zM230 83c28 0 56 13 70 38v49c-14 25 -42 38 -70 38c-37 0 -64 -23 -64 -62c0 -40 27 -63 64 -63z" />
    <glyph glyph-name="aring" unicode="&#xe5;" horiz-adv-x="492" 
d="M444 0h-144v47c-26 -36 -78 -59 -127 -59c-76 0 -151 55 -151 160c0 108 75 155 151 155c50 0 102 -19 127 -55v55c0 45 -31 75 -85 75c-40 0 -83 -18 -119 -50l-51 97c54 50 134 70 198 70c110 0 201 -47 201 -177v-318zM230 83c28 0 56 13 70 38v49
c-14 25 -42 38 -70 38c-37 0 -64 -23 -64 -62c0 -40 27 -63 64 -63zM245 528c-55 0 -100 46 -100 101s45 100 100 100s99 -45 99 -100s-44 -101 -99 -101zM245 591c21 0 37 17 37 38s-16 38 -37 38c-20 0 -38 -17 -38 -38s18 -38 38 -38z" />
    <glyph glyph-name="atilde" unicode="&#xe3;" horiz-adv-x="492" 
d="M444 0h-144v47c-26 -36 -78 -59 -127 -59c-76 0 -151 55 -151 160c0 108 75 155 151 155c50 0 102 -19 127 -55v55c0 45 -31 75 -85 75c-40 0 -83 -18 -119 -50l-51 97c54 50 134 70 198 70c110 0 201 -47 201 -177v-318zM230 83c28 0 56 13 70 38v49
c-14 25 -42 38 -70 38c-37 0 -64 -23 -64 -62c0 -40 27 -63 64 -63zM295 554c-58 0 -72 59 -102 59c-15 0 -27 -16 -27 -53h-72c0 84 36 134 102 134c58 0 72 -60 101 -60c16 0 28 17 28 54h71c0 -84 -36 -134 -101 -134z" />
    <glyph glyph-name="uni1EA1" unicode="&#x1ea1;" horiz-adv-x="492" 
d="M444 0h-144v47c-26 -36 -78 -59 -127 -59c-76 0 -151 55 -151 160c0 108 75 155 151 155c50 0 102 -19 127 -55v55c0 45 -31 75 -85 75c-40 0 -83 -18 -119 -50l-51 97c54 50 134 70 198 70c110 0 201 -47 201 -177v-318zM230 83c28 0 56 13 70 38v49
c-14 25 -42 38 -70 38c-37 0 -64 -23 -64 -62c0 -40 27 -63 64 -63zM247 -200c-40 0 -74 33 -74 74s34 75 74 75c41 0 75 -34 75 -75s-34 -74 -75 -74z" />
    <glyph glyph-name="uni1EA3" unicode="&#x1ea3;" horiz-adv-x="492" 
d="M444 0h-144v47c-26 -36 -78 -59 -127 -59c-76 0 -151 55 -151 160c0 108 75 155 151 155c50 0 102 -19 127 -55v55c0 45 -31 75 -85 75c-40 0 -83 -18 -119 -50l-51 97c54 50 134 70 198 70c110 0 201 -47 201 -177v-318zM230 83c28 0 56 13 70 38v49
c-14 25 -42 38 -70 38c-37 0 -64 -23 -64 -62c0 -40 27 -63 64 -63zM221 581l-51 12c11 37 40 57 76 57c41 0 74 -21 74 -71c0 -21 -6 -37 -14 -52h-56c12 16 17 33 17 49c0 20 -11 28 -22 28c-12 0 -20 -10 -24 -23z" />
    <glyph glyph-name="uni1EA5" unicode="&#x1ea5;" horiz-adv-x="492" 
d="M444 0h-144v47c-26 -36 -78 -59 -127 -59c-76 0 -151 55 -151 160c0 108 75 155 151 155c50 0 102 -19 127 -55v55c0 45 -31 75 -85 75c-40 0 -83 -18 -119 -50l-51 97c54 50 134 70 198 70c110 0 201 -47 201 -177v-318zM230 83c28 0 56 13 70 38v49
c-14 25 -42 38 -70 38c-37 0 -64 -23 -64 -62c0 -40 27 -63 64 -63zM388 556h-82l-60 83l-57 -83h-82l75 144h128zM583 770l-134 -144h-94l103 144h125z" />
    <glyph glyph-name="uni1EAD" unicode="&#x1ead;" horiz-adv-x="492" 
d="M444 0h-144v47c-26 -36 -78 -59 -127 -59c-76 0 -151 55 -151 160c0 108 75 155 151 155c50 0 102 -19 127 -55v55c0 45 -31 75 -85 75c-40 0 -83 -18 -119 -50l-51 97c54 50 134 70 198 70c110 0 201 -47 201 -177v-318zM230 83c28 0 56 13 70 38v49
c-14 25 -42 38 -70 38c-37 0 -64 -23 -64 -62c0 -40 27 -63 64 -63zM387 556h-82l-60 83l-57 -83h-82l75 144h128zM247 -200c-40 0 -74 33 -74 74s34 75 74 75c41 0 75 -34 75 -75s-34 -74 -75 -74z" />
    <glyph glyph-name="uni1EA7" unicode="&#x1ea7;" horiz-adv-x="492" 
d="M444 0h-144v47c-26 -36 -78 -59 -127 -59c-76 0 -151 55 -151 160c0 108 75 155 151 155c50 0 102 -19 127 -55v55c0 45 -31 75 -85 75c-40 0 -83 -18 -119 -50l-51 97c54 50 134 70 198 70c110 0 201 -47 201 -177v-318zM230 83c28 0 56 13 70 38v49
c-14 25 -42 38 -70 38c-37 0 -64 -23 -64 -62c0 -40 27 -63 64 -63zM388 556h-82l-60 83l-57 -83h-82l75 144h128zM135 626h-94l-134 144h125z" />
    <glyph glyph-name="uni1EA9" unicode="&#x1ea9;" horiz-adv-x="492" 
d="M444 0h-144v47c-26 -36 -78 -59 -127 -59c-76 0 -151 55 -151 160c0 108 75 155 151 155c50 0 102 -19 127 -55v55c0 45 -31 75 -85 75c-40 0 -83 -18 -119 -50l-51 97c54 50 134 70 198 70c110 0 201 -47 201 -177v-318zM230 83c28 0 56 13 70 38v49
c-14 25 -42 38 -70 38c-37 0 -64 -23 -64 -62c0 -40 27 -63 64 -63zM388 556h-82l-60 83l-57 -83h-82l75 144h128zM325 721l-51 12c11 37 40 57 76 57c41 0 74 -21 74 -71c0 -21 -6 -37 -14 -52h-56c12 16 17 33 17 49c0 20 -11 28 -22 28c-12 0 -20 -10 -24 -23z" />
    <glyph glyph-name="uni1EAF" unicode="&#x1eaf;" horiz-adv-x="492" 
d="M444 0h-144v47c-26 -36 -78 -59 -127 -59c-76 0 -151 55 -151 160c0 108 75 155 151 155c50 0 102 -19 127 -55v55c0 45 -31 75 -85 75c-40 0 -83 -18 -119 -50l-51 97c54 50 134 70 198 70c110 0 201 -47 201 -177v-318zM230 83c28 0 56 13 70 38v49
c-14 25 -42 38 -70 38c-37 0 -64 -23 -64 -62c0 -40 27 -63 64 -63zM417 783l-134 -144h-94l103 144h125zM396 591c-34 -46 -89 -75 -151 -75c-61 0 -116 29 -151 75l64 51c19 -28 50 -46 87 -46c36 0 68 17 87 46z" />
    <glyph glyph-name="uni1EAB" unicode="&#x1eab;" horiz-adv-x="492" 
d="M444 0h-144v47c-26 -36 -78 -59 -127 -59c-76 0 -151 55 -151 160c0 108 75 155 151 155c50 0 102 -19 127 -55v55c0 45 -31 75 -85 75c-40 0 -83 -18 -119 -50l-51 97c54 50 134 70 198 70c110 0 201 -47 201 -177v-318zM230 83c28 0 56 13 70 38v49
c-14 25 -42 38 -70 38c-37 0 -64 -23 -64 -62c0 -40 27 -63 64 -63zM388 523h-82l-60 83l-57 -83h-82l75 144h128zM296 682c-58 0 -72 59 -102 59c-15 0 -27 -16 -27 -53h-72c0 84 36 134 102 134c58 0 72 -60 101 -60c16 0 28 17 28 54h71c0 -84 -36 -134 -101 -134z" />
    <glyph glyph-name="uni1EB1" unicode="&#x1eb1;" horiz-adv-x="492" 
d="M444 0h-144v47c-26 -36 -78 -59 -127 -59c-76 0 -151 55 -151 160c0 108 75 155 151 155c50 0 102 -19 127 -55v55c0 45 -31 75 -85 75c-40 0 -83 -18 -119 -50l-51 97c54 50 134 70 198 70c110 0 201 -47 201 -177v-318zM230 83c28 0 56 13 70 38v49
c-14 25 -42 38 -70 38c-37 0 -64 -23 -64 -62c0 -40 27 -63 64 -63zM301 639h-94l-134 144h125zM396 591c-34 -46 -89 -75 -151 -75c-61 0 -116 29 -151 75l64 51c19 -28 50 -46 87 -46c36 0 68 17 87 46z" />
    <glyph glyph-name="uni1EB3" unicode="&#x1eb3;" horiz-adv-x="492" 
d="M444 0h-144v47c-26 -36 -78 -59 -127 -59c-76 0 -151 55 -151 160c0 108 75 155 151 155c50 0 102 -19 127 -55v55c0 45 -31 75 -85 75c-40 0 -83 -18 -119 -50l-51 97c54 50 134 70 198 70c110 0 201 -47 201 -177v-318zM230 83c28 0 56 13 70 38v49
c-14 25 -42 38 -70 38c-37 0 -64 -23 -64 -62c0 -40 27 -63 64 -63zM222 696l-51 12c11 37 40 57 76 57c41 0 74 -21 74 -71c0 -21 -6 -37 -14 -52h-56c12 16 17 33 17 49c0 20 -11 28 -22 28c-12 0 -20 -10 -24 -23zM396 591c-34 -46 -89 -75 -151 -75
c-61 0 -116 29 -151 75l64 51c19 -28 50 -46 87 -46c36 0 68 17 87 46z" />
    <glyph glyph-name="uni1EB5" unicode="&#x1eb5;" horiz-adv-x="492" 
d="M444 0h-144v47c-26 -36 -78 -59 -127 -59c-76 0 -151 55 -151 160c0 108 75 155 151 155c50 0 102 -19 127 -55v55c0 45 -31 75 -85 75c-40 0 -83 -18 -119 -50l-51 97c54 50 134 70 198 70c110 0 201 -47 201 -177v-318zM230 83c28 0 56 13 70 38v49
c-14 25 -42 38 -70 38c-37 0 -64 -23 -64 -62c0 -40 27 -63 64 -63zM396 591c-34 -46 -89 -75 -151 -75c-61 0 -116 29 -151 75l64 51c19 -28 50 -46 87 -46c36 0 68 17 87 46zM293 654c-58 0 -72 59 -102 59c-15 0 -27 -16 -27 -53h-72c0 84 36 134 102 134
c58 0 72 -60 101 -60c16 0 28 17 28 54h71c0 -84 -36 -134 -101 -134z" />
    <glyph glyph-name="uni1EB7" unicode="&#x1eb7;" horiz-adv-x="492" 
d="M444 0h-144v47c-26 -36 -78 -59 -127 -59c-76 0 -151 55 -151 160c0 108 75 155 151 155c50 0 102 -19 127 -55v55c0 45 -31 75 -85 75c-40 0 -83 -18 -119 -50l-51 97c54 50 134 70 198 70c110 0 201 -47 201 -177v-318zM230 83c28 0 56 13 70 38v49
c-14 25 -42 38 -70 38c-37 0 -64 -23 -64 -62c0 -40 27 -63 64 -63zM247 -200c-40 0 -74 33 -74 74s34 75 74 75c41 0 75 -34 75 -75s-34 -74 -75 -74zM396 610c-34 -46 -89 -75 -151 -75c-61 0 -116 29 -151 75l64 51c19 -28 50 -46 87 -46c36 0 68 17 87 46z" />
    <glyph glyph-name="ae" unicode="&#xe6;" horiz-adv-x="758" 
d="M739 195h-289c6 -50 38 -91 102 -91c34 0 70 16 94 41l65 -88c-44 -46 -115 -69 -174 -69c-69 0 -118 24 -158 74c-36 -41 -94 -74 -175 -74c-101 0 -182 53 -182 157s69 158 154 158c50 0 105 -19 132 -54v54c0 44 -32 74 -89 74c-41 0 -85 -17 -123 -49l-51 97
c54 50 135 70 194 70c73 0 118 -26 143 -66c31 36 74 66 150 66c128 0 207 -107 207 -261v-39zM449 292h152c-2 38 -19 89 -76 89c-55 0 -74 -51 -76 -89zM308 160v10c-15 24 -45 38 -76 38c-38 0 -68 -22 -68 -56c0 -38 29 -56 64 -56c45 0 80 33 80 64z" />
    <glyph glyph-name="aeacute" unicode="&#x1fd;" horiz-adv-x="758" 
d="M543 700l-134 -144h-94l103 144h125zM739 195h-289c6 -50 38 -91 102 -91c34 0 70 16 94 41l65 -88c-44 -46 -115 -69 -174 -69c-69 0 -118 24 -158 74c-36 -41 -94 -74 -175 -74c-101 0 -182 53 -182 157s69 158 154 158c50 0 105 -19 132 -54v54c0 44 -32 74 -89 74
c-41 0 -85 -17 -123 -49l-51 97c54 50 135 70 194 70c73 0 118 -26 143 -66c31 36 74 66 150 66c128 0 207 -107 207 -261v-39zM449 292h152c-2 38 -19 89 -76 89c-55 0 -74 -51 -76 -89zM308 160v10c-15 24 -45 38 -76 38c-38 0 -68 -22 -68 -56c0 -38 29 -56 64 -56
c45 0 80 33 80 64z" />
    <glyph glyph-name="aacute.alt1" horiz-adv-x="516" 
d="M424 700l-134 -144h-94l103 144h125zM468 0h-144v57c-31 -47 -75 -69 -120 -69c-108 0 -181 92 -181 254c0 156 72 253 181 253c44 0 90 -21 119 -69v57h145v-483zM253 116c26 0 56 19 71 45v161c-15 26 -45 44 -71 44c-53 0 -82 -50 -82 -124c0 -75 29 -126 82 -126z
" />
    <glyph glyph-name="abreve.alt1" horiz-adv-x="516" 
d="M468 0h-144v57c-31 -47 -75 -69 -120 -69c-108 0 -181 92 -181 254c0 156 72 253 181 253c44 0 90 -21 119 -69v57h145v-483zM253 116c26 0 56 19 71 45v161c-15 26 -45 44 -71 44c-53 0 -82 -50 -82 -124c0 -75 29 -126 82 -126zM415 610c-34 -46 -89 -75 -151 -75
c-61 0 -116 29 -151 75l64 51c19 -28 50 -46 87 -46c36 0 68 17 87 46z" />
    <glyph glyph-name="acircumflex.alt1" horiz-adv-x="516" 
d="M403 556h-82l-60 83l-57 -83h-82l75 144h128zM468 0h-144v57c-31 -47 -75 -69 -120 -69c-108 0 -181 92 -181 254c0 156 72 253 181 253c44 0 90 -21 119 -69v57h145v-483zM253 116c26 0 56 19 71 45v161c-15 26 -45 44 -71 44c-53 0 -82 -50 -82 -124
c0 -75 29 -126 82 -126z" />
    <glyph glyph-name="adieresis.alt1" horiz-adv-x="516" 
d="M436 613c0 -42 -34 -74 -76 -74c-40 0 -74 32 -74 74s34 75 74 75c42 0 76 -33 76 -75zM241 613c0 -41 -32 -74 -74 -74s-75 33 -75 74c0 42 33 75 75 75s74 -33 74 -75zM468 0h-144v57c-31 -47 -75 -69 -120 -69c-108 0 -181 92 -181 254c0 156 72 253 181 253
c44 0 90 -21 119 -69v57h145v-483zM253 116c26 0 56 19 71 45v161c-15 26 -45 44 -71 44c-53 0 -82 -50 -82 -124c0 -75 29 -126 82 -126z" />
    <glyph glyph-name="agrave.alt1" horiz-adv-x="516" 
d="M468 0h-144v57c-31 -47 -75 -69 -120 -69c-108 0 -181 92 -181 254c0 156 72 253 181 253c44 0 90 -21 119 -69v57h145v-483zM253 116c26 0 56 19 71 45v161c-15 26 -45 44 -71 44c-53 0 -82 -50 -82 -124c0 -75 29 -126 82 -126zM310 556h-94l-134 144h125z" />
    <glyph glyph-name="amacron.alt1" horiz-adv-x="516" 
d="M420 558h-313v81h313v-81zM468 0h-144v57c-31 -47 -75 -69 -120 -69c-108 0 -181 92 -181 254c0 156 72 253 181 253c44 0 90 -21 119 -69v57h145v-483zM253 116c26 0 56 19 71 45v161c-15 26 -45 44 -71 44c-53 0 -82 -50 -82 -124c0 -75 29 -126 82 -126z" />
    <glyph glyph-name="aogonek.alt1" horiz-adv-x="516" 
d="M468 0c-41 -25 -60 -58 -60 -92c0 -26 13 -36 27 -36c16 0 26 12 31 29l56 -33c-17 -32 -45 -54 -88 -54c-52 0 -95 27 -95 89c0 35 13 68 41 97h-56v57c-31 -47 -75 -69 -120 -69c-108 0 -181 92 -181 254c0 156 72 253 181 253c44 0 90 -21 119 -69v57h145v-483z
M253 116c26 0 56 19 71 45v161c-15 26 -45 44 -71 44c-53 0 -82 -50 -82 -124c0 -75 29 -126 82 -126z" />
    <glyph glyph-name="aring.alt1" horiz-adv-x="516" 
d="M264 528c-55 0 -100 46 -100 101s45 100 100 100s99 -45 99 -100s-44 -101 -99 -101zM264 591c21 0 37 17 37 38s-16 38 -37 38c-20 0 -38 -17 -38 -38s18 -38 38 -38zM468 0h-144v57c-31 -47 -75 -69 -120 -69c-108 0 -181 92 -181 254c0 156 72 253 181 253
c44 0 90 -21 119 -69v57h145v-483zM253 116c26 0 56 19 71 45v161c-15 26 -45 44 -71 44c-53 0 -82 -50 -82 -124c0 -75 29 -126 82 -126z" />
    <glyph glyph-name="atilde.alt1" horiz-adv-x="516" 
d="M468 0h-144v57c-31 -47 -75 -69 -120 -69c-108 0 -181 92 -181 254c0 156 72 253 181 253c44 0 90 -21 119 -69v57h145v-483zM253 116c26 0 56 19 71 45v161c-15 26 -45 44 -71 44c-53 0 -82 -50 -82 -124c0 -75 29 -126 82 -126zM314 554c-58 0 -72 59 -102 59
c-15 0 -27 -16 -27 -53h-72c0 84 36 134 102 134c58 0 72 -60 101 -60c16 0 28 17 28 54h71c0 -84 -36 -134 -101 -134z" />
    <glyph glyph-name="uni1EA1.alt1" horiz-adv-x="516" 
d="M468 0h-144v57c-31 -47 -75 -69 -120 -69c-108 0 -181 92 -181 254c0 156 72 253 181 253c44 0 90 -21 119 -69v57h145v-483zM253 116c26 0 56 19 71 45v161c-15 26 -45 44 -71 44c-53 0 -82 -50 -82 -124c0 -75 29 -126 82 -126zM262 -200c-40 0 -74 33 -74 74
s34 75 74 75c41 0 75 -34 75 -75s-34 -74 -75 -74z" />
    <glyph glyph-name="uni1EA3.alt1" horiz-adv-x="516" 
d="M468 0h-144v57c-31 -47 -75 -69 -120 -69c-108 0 -181 92 -181 254c0 156 72 253 181 253c44 0 90 -21 119 -69v57h145v-483zM253 116c26 0 56 19 71 45v161c-15 26 -45 44 -71 44c-53 0 -82 -50 -82 -124c0 -75 29 -126 82 -126zM236 581l-51 12c11 37 40 57 76 57
c41 0 74 -21 74 -71c0 -21 -6 -37 -14 -52h-56c12 16 17 33 17 49c0 20 -11 28 -22 28c-12 0 -20 -10 -24 -23z" />
    <glyph glyph-name="uni1EA5.alt1" horiz-adv-x="516" 
d="M407 556h-82l-60 83l-57 -83h-82l75 144h128zM601 770l-134 -144h-94l103 144h125zM468 0h-144v57c-31 -47 -75 -69 -120 -69c-108 0 -181 92 -181 254c0 156 72 253 181 253c44 0 90 -21 119 -69v57h145v-483zM253 116c26 0 56 19 71 45v161c-15 26 -45 44 -71 44
c-53 0 -82 -50 -82 -124c0 -75 29 -126 82 -126z" />
    <glyph glyph-name="uni1EAD.alt1" horiz-adv-x="516" 
d="M408 556h-82l-60 83l-57 -83h-82l75 144h128zM468 0h-144v57c-31 -47 -75 -69 -120 -69c-108 0 -181 92 -181 254c0 156 72 253 181 253c44 0 90 -21 119 -69v57h145v-483zM253 116c26 0 56 19 71 45v161c-15 26 -45 44 -71 44c-53 0 -82 -50 -82 -124
c0 -75 29 -126 82 -126zM269 -200c-40 0 -74 33 -74 74s34 75 74 75c41 0 75 -34 75 -75s-34 -74 -75 -74z" />
    <glyph glyph-name="uni1EA7.alt1" horiz-adv-x="516" 
d="M410 556h-82l-60 83l-57 -83h-82l75 144h128zM468 0h-144v57c-31 -47 -75 -69 -120 -69c-108 0 -181 92 -181 254c0 156 72 253 181 253c44 0 90 -21 119 -69v57h145v-483zM253 116c26 0 56 19 71 45v161c-15 26 -45 44 -71 44c-53 0 -82 -50 -82 -124
c0 -75 29 -126 82 -126zM157 626h-94l-134 144h125z" />
    <glyph glyph-name="uni1EA9.alt1" horiz-adv-x="516" 
d="M407 556h-82l-60 83l-57 -83h-82l75 144h128zM468 0h-144v57c-31 -47 -75 -69 -120 -69c-108 0 -181 92 -181 254c0 156 72 253 181 253c44 0 90 -21 119 -69v57h145v-483zM253 116c26 0 56 19 71 45v161c-15 26 -45 44 -71 44c-53 0 -82 -50 -82 -124
c0 -75 29 -126 82 -126zM344 721l-51 12c11 37 40 57 76 57c41 0 74 -21 74 -71c0 -21 -6 -37 -14 -52h-56c12 16 17 33 17 49c0 20 -11 28 -22 28c-12 0 -20 -10 -24 -23z" />
    <glyph glyph-name="uni1EAF.alt1" horiz-adv-x="516" 
d="M436 783l-134 -144h-94l103 144h125zM468 0h-144v57c-31 -47 -75 -69 -120 -69c-108 0 -181 92 -181 254c0 156 72 253 181 253c44 0 90 -21 119 -69v57h145v-483zM253 116c26 0 56 19 71 45v161c-15 26 -45 44 -71 44c-53 0 -82 -50 -82 -124c0 -75 29 -126 82 -126z
M415 591c-34 -46 -89 -75 -151 -75c-61 0 -116 29 -151 75l64 51c19 -28 50 -46 87 -46c36 0 68 17 87 46z" />
    <glyph glyph-name="uni1EAB.alt1" horiz-adv-x="516" 
d="M408 523h-82l-60 83l-57 -83h-82l75 144h128zM468 0h-144v57c-31 -47 -75 -69 -120 -69c-108 0 -181 92 -181 254c0 156 72 253 181 253c44 0 90 -21 119 -69v57h145v-483zM253 116c26 0 56 19 71 45v161c-15 26 -45 44 -71 44c-53 0 -82 -50 -82 -124
c0 -75 29 -126 82 -126zM315 682c-58 0 -72 59 -102 59c-15 0 -27 -16 -27 -53h-72c0 84 36 134 102 134c58 0 72 -60 101 -60c16 0 28 17 28 54h71c0 -84 -36 -134 -101 -134z" />
    <glyph glyph-name="uni1EB1.alt1" horiz-adv-x="516" 
d="M468 0h-144v57c-31 -47 -75 -69 -120 -69c-108 0 -181 92 -181 254c0 156 72 253 181 253c44 0 90 -21 119 -69v57h145v-483zM253 116c26 0 56 19 71 45v161c-15 26 -45 44 -71 44c-53 0 -82 -50 -82 -124c0 -75 29 -126 82 -126zM320 639h-94l-134 144h125zM415 591
c-34 -46 -89 -75 -151 -75c-61 0 -116 29 -151 75l64 51c19 -28 50 -46 87 -46c36 0 68 17 87 46z" />
    <glyph glyph-name="uni1EB3.alt1" horiz-adv-x="516" 
d="M468 0h-144v57c-31 -47 -75 -69 -120 -69c-108 0 -181 92 -181 254c0 156 72 253 181 253c44 0 90 -21 119 -69v57h145v-483zM253 116c26 0 56 19 71 45v161c-15 26 -45 44 -71 44c-53 0 -82 -50 -82 -124c0 -75 29 -126 82 -126zM241 696l-51 12c11 37 40 57 76 57
c41 0 74 -21 74 -71c0 -21 -6 -37 -14 -52h-56c12 16 17 33 17 49c0 20 -11 28 -22 28c-12 0 -20 -10 -24 -23zM415 591c-34 -46 -89 -75 -151 -75c-61 0 -116 29 -151 75l64 51c19 -28 50 -46 87 -46c36 0 68 17 87 46z" />
    <glyph glyph-name="uni1EB5.alt1" horiz-adv-x="516" 
d="M415 591c-34 -46 -89 -75 -151 -75c-61 0 -116 29 -151 75l64 51c19 -28 50 -46 87 -46c36 0 68 17 87 46zM468 0h-144v57c-31 -47 -75 -69 -120 -69c-108 0 -181 92 -181 254c0 156 72 253 181 253c44 0 90 -21 119 -69v57h145v-483zM253 116c26 0 56 19 71 45v161
c-15 26 -45 44 -71 44c-53 0 -82 -50 -82 -124c0 -75 29 -126 82 -126zM313 655c-58 0 -72 59 -102 59c-15 0 -27 -16 -27 -53h-72c0 84 36 134 102 134c58 0 72 -60 101 -60c16 0 28 17 28 54h71c0 -84 -36 -134 -101 -134z" />
    <glyph glyph-name="uni1EB7.alt1" horiz-adv-x="516" 
d="M468 0h-144v57c-31 -47 -75 -69 -120 -69c-108 0 -181 92 -181 254c0 156 72 253 181 253c44 0 90 -21 119 -69v57h145v-483zM253 116c26 0 56 19 71 45v161c-15 26 -45 44 -71 44c-53 0 -82 -50 -82 -124c0 -75 29 -126 82 -126zM270 -200c-40 0 -74 33 -74 74
s34 75 74 75c41 0 75 -34 75 -75s-34 -74 -75 -74zM418 610c-34 -46 -89 -75 -151 -75c-61 0 -116 29 -151 75l64 51c19 -28 50 -46 87 -46c36 0 68 17 87 46z" />
    <glyph glyph-name="ae.alt1" horiz-adv-x="785" 
d="M253 116c26 0 56 19 71 45v161c-15 26 -45 44 -71 44c-53 0 -82 -50 -82 -124c0 -75 29 -126 82 -126zM468 62v-62h-144v57c-31 -47 -75 -69 -120 -69c-108 0 -181 92 -181 254c0 156 72 253 181 253c44 0 90 -21 119 -69v57h145v-56c23 39 60 68 121 68
c111 0 177 -105 177 -260v-40h-298c6 -49 40 -91 107 -91c34 0 72 15 97 41l65 -91c-32 -39 -83 -66 -137 -66c-73 0 -111 37 -132 74zM628 292c-2 39 -20 89 -80 89c-58 0 -77 -50 -80 -89h160z" />
    <glyph glyph-name="aeacute.alt1" horiz-adv-x="785" 
d="M253 116c26 0 56 19 71 45v161c-15 26 -45 44 -71 44c-53 0 -82 -50 -82 -124c0 -75 29 -126 82 -126zM468 62v-62h-144v57c-31 -47 -75 -69 -120 -69c-108 0 -181 92 -181 254c0 156 72 253 181 253c44 0 90 -21 119 -69v57h145v-56c23 39 60 68 121 68
c111 0 177 -105 177 -260v-40h-298c6 -49 40 -91 107 -91c34 0 72 15 97 41l65 -91c-32 -39 -83 -66 -137 -66c-73 0 -111 37 -132 74zM628 292c-2 39 -20 89 -80 89c-58 0 -77 -50 -80 -89h160zM567 700l-134 -144h-94l103 144h125z" />
    <glyph glyph-name="uni1E03" unicode="&#x1e03;" horiz-adv-x="516" 
d="M193 161c14 -27 44 -45 71 -45c52 0 82 51 82 126c0 74 -30 125 -82 125c-27 0 -57 -19 -71 -45v-161zM193 0h-145v667h145v-241c29 48 75 69 119 69c109 0 182 -97 182 -253c0 -162 -74 -254 -182 -254c-44 0 -88 22 -119 69v-57zM264 706c-40 0 -74 33 -74 74
s34 75 74 75c41 0 75 -34 75 -75s-34 -74 -75 -74z" />
    <glyph glyph-name="cacute" unicode="&#x107;" horiz-adv-x="429" 
d="M424 700l-134 -144h-94l103 144h125zM253 -12c-136 0 -230 104 -230 254s94 253 230 253c81 0 136 -33 162 -66l-70 -99c-19 23 -43 37 -75 37c-59 0 -99 -50 -99 -125s40 -126 99 -126c32 0 56 14 75 38l70 -100c-26 -33 -81 -66 -162 -66z" />
    <glyph glyph-name="ccedilla" unicode="&#xe7;" horiz-adv-x="429" 
d="M255 -195c-42 0 -81 15 -102 33l26 54c23 -18 49 -29 72 -29s43 11 43 30c0 14 -9 23 -23 23c-11 0 -20 -5 -27 -13l-50 29l22 59c-116 16 -193 115 -193 251c0 150 94 253 230 253c81 0 136 -33 162 -66l-70 -99c-19 23 -43 37 -75 37c-59 0 -99 -50 -99 -125
s40 -126 99 -126c32 0 56 14 75 38l70 -100c-23 -29 -68 -57 -132 -64l-16 -38c10 6 19 10 32 10c35 0 64 -29 64 -71c0 -54 -47 -86 -108 -86z" />
    <glyph glyph-name="ccircumflex" unicode="&#x109;" horiz-adv-x="429" 
d="M398 556h-82l-60 83l-57 -83h-82l75 144h128zM253 -12c-136 0 -230 104 -230 254s94 253 230 253c81 0 136 -33 162 -66l-70 -99c-19 23 -43 37 -75 37c-59 0 -99 -50 -99 -125s40 -126 99 -126c32 0 56 14 75 38l70 -100c-26 -33 -81 -66 -162 -66z" />
    <glyph glyph-name="cdotaccent" unicode="&#x10b;" horiz-adv-x="429" 
d="M253 -12c-136 0 -230 104 -230 254s94 253 230 253c81 0 136 -33 162 -66l-70 -99c-19 23 -43 37 -75 37c-59 0 -99 -50 -99 -125s40 -126 99 -126c32 0 56 14 75 38l70 -100c-26 -33 -81 -66 -162 -66zM253 539c-40 0 -74 33 -74 74s34 75 74 75c41 0 75 -34 75 -75
s-34 -74 -75 -74z" />
    <glyph glyph-name="ccaron" unicode="&#x10d;" horiz-adv-x="429" 
d="M323 556h-128l-78 144h82l60 -84l57 84h82zM253 -12c-136 0 -230 104 -230 254s94 253 230 253c81 0 136 -33 162 -66l-70 -99c-19 23 -43 37 -75 37c-59 0 -99 -50 -99 -125s40 -126 99 -126c32 0 56 14 75 38l70 -100c-26 -33 -81 -66 -162 -66z" />
    <glyph glyph-name="dcaron" unicode="&#x10f;" horiz-adv-x="642" 
d="M647 592c0 -62 -35 -117 -86 -154l-48 38c26 14 58 48 65 77c-3 -1 -10 -2 -16 -2c-32 0 -58 24 -58 60c0 38 31 68 68 68c39 0 75 -32 75 -87zM468 0h-144v57c-31 -47 -75 -69 -120 -69c-108 0 -181 92 -181 254c0 156 72 253 181 253c44 0 90 -21 120 -69v241h144v-667
zM253 116c26 0 56 19 71 45v162c-15 26 -45 44 -71 44c-53 0 -82 -51 -82 -125c0 -75 29 -126 82 -126z" />
    <glyph glyph-name="dcroat" unicode="&#x111;" horiz-adv-x="521" 
d="M468 0h-144v57c-31 -47 -75 -69 -120 -69c-108 0 -181 92 -181 254c0 156 72 253 181 253c44 0 90 -21 120 -69v100h-130v81h130v60h144v-60h47v-81h-47v-526zM253 116c26 0 56 19 71 45v162c-15 26 -45 44 -71 44c-53 0 -82 -51 -82 -125c0 -75 29 -126 82 -126z" />
    <glyph glyph-name="uni1E0B" unicode="&#x1e0b;" horiz-adv-x="516" 
d="M468 0h-144v57c-31 -47 -75 -69 -120 -69c-108 0 -181 92 -181 254c0 156 72 253 181 253c44 0 90 -21 120 -69v241h144v-667zM253 116c26 0 56 19 71 45v162c-15 26 -45 44 -71 44c-53 0 -82 -51 -82 -125c0 -75 29 -126 82 -126zM254 706c-40 0 -74 33 -74 74
s34 75 74 75c41 0 75 -34 75 -75s-34 -74 -75 -74z" />
    <glyph glyph-name="eacute" unicode="&#xe9;" horiz-adv-x="484" 
d="M419 700l-134 -144h-94l103 144h125zM257 -12c-140 0 -234 100 -234 254c0 140 86 253 226 253c136 0 216 -105 216 -260v-40h-297c5 -50 39 -93 105 -93c31 0 75 16 100 42l64 -87c-45 -46 -115 -69 -180 -69zM327 292c-2 39 -20 89 -80 89c-58 0 -77 -50 -80 -89h160z
" />
    <glyph glyph-name="ebreve" unicode="&#x115;" horiz-adv-x="484" 
d="M257 -12c-140 0 -234 100 -234 254c0 140 86 253 226 253c136 0 216 -105 216 -260v-40h-297c5 -50 39 -93 105 -93c31 0 75 16 100 42l64 -87c-45 -46 -115 -69 -180 -69zM327 292c-2 39 -20 89 -80 89c-58 0 -77 -50 -80 -89h160zM401 610c-34 -46 -89 -75 -151 -75
c-61 0 -116 29 -151 75l64 51c19 -28 50 -46 87 -46c36 0 68 17 87 46z" />
    <glyph glyph-name="ecircumflex" unicode="&#xea;" horiz-adv-x="484" 
d="M389 556h-82l-60 83l-57 -83h-82l75 144h128zM257 -12c-140 0 -234 100 -234 254c0 140 86 253 226 253c136 0 216 -105 216 -260v-40h-297c5 -50 39 -93 105 -93c31 0 75 16 100 42l64 -87c-45 -46 -115 -69 -180 -69zM327 292c-2 39 -20 89 -80 89
c-58 0 -77 -50 -80 -89h160z" />
    <glyph glyph-name="edieresis" unicode="&#xeb;" horiz-adv-x="484" 
d="M420 613c0 -42 -34 -74 -76 -74c-40 0 -74 32 -74 74s34 75 74 75c42 0 76 -33 76 -75zM225 613c0 -41 -32 -74 -74 -74s-75 33 -75 74c0 42 33 75 75 75s74 -33 74 -75zM257 -12c-140 0 -234 100 -234 254c0 140 86 253 226 253c136 0 216 -105 216 -260v-40h-297
c5 -50 39 -93 105 -93c31 0 75 16 100 42l64 -87c-45 -46 -115 -69 -180 -69zM327 292c-2 39 -20 89 -80 89c-58 0 -77 -50 -80 -89h160z" />
    <glyph glyph-name="edotaccent" unicode="&#x117;" horiz-adv-x="484" 
d="M257 -12c-140 0 -234 100 -234 254c0 140 86 253 226 253c136 0 216 -105 216 -260v-40h-297c5 -50 39 -93 105 -93c31 0 75 16 100 42l64 -87c-45 -46 -115 -69 -180 -69zM327 292c-2 39 -20 89 -80 89c-58 0 -77 -50 -80 -89h160zM249 539c-40 0 -74 33 -74 74
s34 75 74 75c41 0 75 -34 75 -75s-34 -74 -75 -74z" />
    <glyph glyph-name="egrave" unicode="&#xe8;" horiz-adv-x="484" 
d="M257 -12c-140 0 -234 100 -234 254c0 140 86 253 226 253c136 0 216 -105 216 -260v-40h-297c5 -50 39 -93 105 -93c31 0 75 16 100 42l64 -87c-45 -46 -115 -69 -180 -69zM327 292c-2 39 -20 89 -80 89c-58 0 -77 -50 -80 -89h160zM306 556h-94l-134 144h125z" />
    <glyph glyph-name="emacron" unicode="&#x113;" horiz-adv-x="484" 
d="M257 -12c-140 0 -234 100 -234 254c0 140 86 253 226 253c136 0 216 -105 216 -260v-40h-297c5 -50 39 -93 105 -93c31 0 75 16 100 42l64 -87c-45 -46 -115 -69 -180 -69zM327 292c-2 39 -20 89 -80 89c-58 0 -77 -50 -80 -89h160zM401 558h-313v81h313v-81z" />
    <glyph glyph-name="eogonek" unicode="&#x119;" horiz-adv-x="484" 
d="M336 -99l56 -33c-17 -32 -45 -54 -88 -54c-52 0 -95 27 -95 89c0 31 10 59 31 86c-131 7 -217 105 -217 253c0 140 86 253 226 253c136 0 216 -105 216 -260v-40h-297c5 -50 39 -93 105 -93c31 0 75 16 100 42l64 -87c-27 -27 -62 -47 -100 -57c-40 -25 -59 -58 -59 -92
c0 -26 13 -36 27 -36c16 0 26 12 31 29zM327 292c-2 39 -20 89 -80 89c-58 0 -77 -50 -80 -89h160z" />
    <glyph glyph-name="ecaron" unicode="&#x11b;" horiz-adv-x="484" 
d="M314 556h-128l-78 144h82l60 -84l57 84h82zM257 -12c-140 0 -234 100 -234 254c0 140 86 253 226 253c136 0 216 -105 216 -260v-40h-297c5 -50 39 -93 105 -93c31 0 75 16 100 42l64 -87c-45 -46 -115 -69 -180 -69zM327 292c-2 39 -20 89 -80 89c-58 0 -77 -50 -80 -89
h160z" />
    <glyph glyph-name="uni1EB9" unicode="&#x1eb9;" horiz-adv-x="484" 
d="M257 -12c-140 0 -234 100 -234 254c0 140 86 253 226 253c136 0 216 -105 216 -260v-40h-297c5 -50 39 -93 105 -93c31 0 75 16 100 42l64 -87c-45 -46 -115 -69 -180 -69zM327 292c-2 39 -20 89 -80 89c-58 0 -77 -50 -80 -89h160zM249 -200c-40 0 -74 33 -74 74
s34 75 74 75c41 0 75 -34 75 -75s-34 -74 -75 -74z" />
    <glyph glyph-name="uni1EBB" unicode="&#x1ebb;" horiz-adv-x="484" 
d="M257 -12c-140 0 -234 100 -234 254c0 140 86 253 226 253c136 0 216 -105 216 -260v-40h-297c5 -50 39 -93 105 -93c31 0 75 16 100 42l64 -87c-45 -46 -115 -69 -180 -69zM327 292c-2 39 -20 89 -80 89c-58 0 -77 -50 -80 -89h160zM219 581l-51 12c11 37 40 57 76 57
c41 0 74 -21 74 -71c0 -21 -6 -37 -14 -52h-56c12 16 17 33 17 49c0 20 -11 28 -22 28c-12 0 -20 -10 -24 -23z" />
    <glyph glyph-name="uni1EBD" unicode="&#x1ebd;" horiz-adv-x="484" 
d="M257 -12c-140 0 -234 100 -234 254c0 140 86 253 226 253c136 0 216 -105 216 -260v-40h-297c5 -50 39 -93 105 -93c31 0 75 16 100 42l64 -87c-45 -46 -115 -69 -180 -69zM327 292c-2 39 -20 89 -80 89c-58 0 -77 -50 -80 -89h160zM294 554c-58 0 -72 59 -102 59
c-15 0 -27 -16 -27 -53h-72c0 84 36 134 102 134c58 0 72 -60 101 -60c16 0 28 17 28 54h71c0 -84 -36 -134 -101 -134z" />
    <glyph glyph-name="uni1EBF" unicode="&#x1ebf;" horiz-adv-x="484" 
d="M388 556h-82l-60 83l-57 -83h-82l75 144h128zM583 770l-134 -144h-94l103 144h125zM257 -12c-140 0 -234 100 -234 254c0 140 86 253 226 253c136 0 216 -105 216 -260v-40h-297c5 -50 39 -93 105 -93c31 0 75 16 100 42l64 -87c-45 -46 -115 -69 -180 -69zM327 292
c-2 39 -20 89 -80 89c-58 0 -77 -50 -80 -89h160z" />
    <glyph glyph-name="uni1EC1" unicode="&#x1ec1;" horiz-adv-x="484" 
d="M388 556h-82l-60 83l-57 -83h-82l75 144h128zM257 -12c-140 0 -234 100 -234 254c0 140 86 253 226 253c136 0 216 -105 216 -260v-40h-297c5 -50 39 -93 105 -93c31 0 75 16 100 42l64 -87c-45 -46 -115 -69 -180 -69zM327 292c-2 39 -20 89 -80 89
c-58 0 -77 -50 -80 -89h160zM135 626h-94l-134 144h125z" />
    <glyph glyph-name="uni1EC3" unicode="&#x1ec3;" horiz-adv-x="484" 
d="M388 556h-82l-60 83l-57 -83h-82l75 144h128zM257 -12c-140 0 -234 100 -234 254c0 140 86 253 226 253c136 0 216 -105 216 -260v-40h-297c5 -50 39 -93 105 -93c31 0 75 16 100 42l64 -87c-45 -46 -115 -69 -180 -69zM327 292c-2 39 -20 89 -80 89
c-58 0 -77 -50 -80 -89h160zM325 721l-51 12c11 37 40 57 76 57c41 0 74 -21 74 -71c0 -21 -6 -37 -14 -52h-56c12 16 17 33 17 49c0 20 -11 28 -22 28c-12 0 -20 -10 -24 -23z" />
    <glyph glyph-name="uni1EC5" unicode="&#x1ec5;" horiz-adv-x="484" 
d="M387 523h-82l-60 83l-57 -83h-82l75 144h128zM257 -12c-140 0 -234 100 -234 254c0 140 86 253 226 253c136 0 216 -105 216 -260v-40h-297c5 -50 39 -93 105 -93c31 0 75 16 100 42l64 -87c-45 -46 -115 -69 -180 -69zM327 292c-2 39 -20 89 -80 89
c-58 0 -77 -50 -80 -89h160zM296 682c-58 0 -72 59 -102 59c-15 0 -27 -16 -27 -53h-72c0 84 36 134 102 134c58 0 72 -60 101 -60c16 0 28 17 28 54h71c0 -84 -36 -134 -101 -134z" />
    <glyph glyph-name="uni1EC7" unicode="&#x1ec7;" horiz-adv-x="484" 
d="M390 556h-82l-60 83l-57 -83h-82l75 144h128zM257 -12c-140 0 -234 100 -234 254c0 140 86 253 226 253c136 0 216 -105 216 -260v-40h-297c5 -50 39 -93 105 -93c31 0 75 16 100 42l64 -87c-45 -46 -115 -69 -180 -69zM327 292c-2 39 -20 89 -80 89
c-58 0 -77 -50 -80 -89h160zM249 -200c-40 0 -74 33 -74 74s34 75 74 75c41 0 75 -34 75 -75s-34 -74 -75 -74z" />
    <glyph glyph-name="fl.alt1" horiz-adv-x="585" 
d="M218 0h-145v357h-62v126h62v29c0 103 61 165 152 165c37 0 66 -6 90 -18l-25 -107c-6 5 -17 9 -29 9c-26 0 -43 -18 -43 -49v-29h78v-126h-78v-357zM491 -12c-93 0 -137 46 -137 137v542h145v-506c0 -28 11 -45 33 -45c14 0 27 5 33 11l26 -112c-18 -15 -53 -27 -100 -27
z" />
    <glyph glyph-name="f_f_l.alt1" horiz-adv-x="891" 
d="M524 0h-145v357h-62v126h62v29c0 103 61 165 152 165c37 0 66 -6 90 -18l-25 -107c-6 5 -17 9 -29 9c-26 0 -43 -18 -43 -49v-29h78v-126h-78v-357zM796 -12c-93 0 -137 46 -137 137v542h145v-506c0 -28 11 -45 33 -45c14 0 27 5 33 11l26 -112c-18 -15 -53 -27 -100 -27
zM218 0h-145v357h-62v126h62v29c0 103 60 165 158 165c44 0 89 -12 115 -37l-43 -96c-11 11 -23 17 -41 17c-26 0 -44 -18 -44 -49v-29h78v-126h-78v-357z" />
    <glyph glyph-name="uni1E1F" unicode="&#x1e1f;" horiz-adv-x="306" 
d="M230 706c-40 0 -74 33 -74 74s34 75 74 75c41 0 75 -34 75 -75s-34 -74 -75 -74zM218 0h-145v357h-62v126h62v29c0 103 60 165 158 165c44 0 89 -12 115 -37l-43 -96c-11 11 -23 17 -41 17c-26 0 -44 -18 -44 -49v-29h78v-126h-78v-357z" />
    <glyph glyph-name="gcircumflex" unicode="&#x11d;" horiz-adv-x="516" 
d="M403 556h-82l-60 83l-57 -83h-82l75 144h128zM229 -196c-74 0 -134 18 -186 63l55 108c33 -34 77 -50 124 -50c48 0 101 25 101 105v49c-31 -48 -74 -70 -119 -70c-108 0 -181 82 -181 243c0 157 72 243 181 243c44 0 90 -21 119 -69v57h144v-450
c0 -185 -128 -229 -238 -229zM253 136c26 0 56 18 70 45v142c-14 26 -44 44 -70 44c-53 0 -82 -42 -82 -115c0 -74 29 -116 82 -116z" />
    <glyph glyph-name="gbreve" unicode="&#x11f;" horiz-adv-x="516" 
d="M229 -196c-74 0 -134 18 -186 63l55 108c33 -34 77 -50 124 -50c48 0 101 25 101 105v49c-31 -48 -74 -70 -119 -70c-108 0 -181 82 -181 243c0 157 72 243 181 243c44 0 90 -21 119 -69v57h144v-450c0 -185 -128 -229 -238 -229zM253 136c26 0 56 18 70 45v142
c-14 26 -44 44 -70 44c-53 0 -82 -42 -82 -115c0 -74 29 -116 82 -116zM407 610c-34 -46 -89 -75 -151 -75c-61 0 -116 29 -151 75l64 51c19 -28 50 -46 87 -46c36 0 68 17 87 46z" />
    <glyph glyph-name="gdotaccent" unicode="&#x121;" horiz-adv-x="516" 
d="M229 -196c-74 0 -134 18 -186 63l55 108c33 -34 77 -50 124 -50c48 0 101 25 101 105v49c-31 -48 -74 -70 -119 -70c-108 0 -181 82 -181 243c0 157 72 243 181 243c44 0 90 -21 119 -69v57h144v-450c0 -185 -128 -229 -238 -229zM253 136c26 0 56 18 70 45v142
c-14 26 -44 44 -70 44c-53 0 -82 -42 -82 -115c0 -74 29 -116 82 -116zM263 539c-40 0 -74 33 -74 74s34 75 74 75c41 0 75 -34 75 -75s-34 -74 -75 -74z" />
    <glyph glyph-name="gcommaaccent" unicode="&#x123;" horiz-adv-x="516" 
d="M186 612c0 64 29 122 83 160l48 -38c-23 -11 -59 -44 -64 -72c1 0 3 1 7 1c32 0 65 -27 65 -64s-30 -68 -69 -68c-27 0 -70 17 -70 81zM229 -196c-74 0 -134 18 -186 63l55 108c33 -34 77 -50 124 -50c48 0 101 25 101 105v49c-31 -48 -74 -70 -119 -70
c-108 0 -181 82 -181 243c0 157 72 243 181 243c44 0 90 -21 119 -69v57h144v-450c0 -185 -128 -229 -238 -229zM253 136c26 0 56 18 70 45v142c-14 26 -44 44 -70 44c-53 0 -82 -42 -82 -115c0 -74 29 -116 82 -116z" />
    <glyph glyph-name="hbar" unicode="&#x127;" horiz-adv-x="525" 
d="M332 526h-132v-103c24 36 79 72 143 72c93 0 133 -53 133 -131v-364h-144v307c0 44 -21 60 -57 60c-35 0 -61 -26 -75 -51v-316h-144v526h-45v81h45v60h144v-60h132v-81z" />
    <glyph glyph-name="hcircumflex" unicode="&#x125;" horiz-adv-x="518" 
d="M399 723h-82l-60 83l-57 -83h-82l75 144h128zM469 0h-144v307c0 44 -21 60 -57 60c-35 0 -61 -26 -75 -51v-316h-144v667h144v-244c24 36 79 72 143 72c93 0 133 -53 133 -131v-364z" />
    <glyph glyph-name="uni1E23" unicode="&#x1e23;" horiz-adv-x="518" 
d="M469 0h-144v307c0 44 -21 60 -57 60c-35 0 -61 -26 -75 -51v-316h-144v667h144v-244c24 36 79 72 143 72c93 0 133 -53 133 -131v-364zM258 706c-40 0 -74 33 -74 74s34 75 74 75c41 0 75 -34 75 -75s-34 -74 -75 -74z" />
    <glyph glyph-name="dotlessi" unicode="&#x131;" horiz-adv-x="241" 
d="M193 0h-145v483h145v-483z" />
    <glyph glyph-name="iacute" unicode="&#xed;" horiz-adv-x="241" 
d="M292 700l-134 -144h-94l103 144h125zM193 0h-145v483h145v-483z" />
    <glyph glyph-name="ibreve" unicode="&#x12d;" horiz-adv-x="241" 
d="M193 0h-145v483h145v-483zM272 610c-34 -46 -89 -75 -151 -75c-61 0 -116 29 -151 75l64 51c19 -28 50 -46 87 -46c36 0 68 17 87 46z" />
    <glyph glyph-name="icircumflex" unicode="&#xee;" horiz-adv-x="241" 
d="M262 556h-82l-60 83l-57 -83h-82l75 144h128zM193 0h-145v483h145v-483z" />
    <glyph glyph-name="idieresis" unicode="&#xef;" horiz-adv-x="241" 
d="M293 613c0 -42 -34 -74 -76 -74c-40 0 -74 32 -74 74s34 75 74 75c42 0 76 -33 76 -75zM98 613c0 -41 -32 -74 -74 -74s-75 33 -75 74c0 42 33 75 75 75s74 -33 74 -75zM193 0h-145v483h145v-483z" />
    <glyph glyph-name="igrave" unicode="&#xec;" horiz-adv-x="241" 
d="M193 0h-145v483h145v-483zM178 556h-94l-134 144h125z" />
    <glyph glyph-name="imacron" unicode="&#x12b;" horiz-adv-x="241" 
d="M193 0h-145v483h145v-483zM277 558h-313v81h313v-81z" />
    <glyph glyph-name="iogonek" unicode="&#x12f;" horiz-adv-x="241" 
d="M191 -99l56 -33c-17 -32 -45 -54 -88 -54c-52 0 -95 27 -95 89c0 35 13 68 41 97h-57v483h145v-483c-41 -25 -60 -58 -60 -92c0 -26 13 -36 27 -36c16 0 26 12 31 29zM121 529c-47 0 -84 38 -84 84c0 47 37 84 84 84c46 0 83 -37 83 -84c0 -46 -37 -84 -83 -84z" />
    <glyph glyph-name="itilde" unicode="&#x129;" horiz-adv-x="241" 
d="M193 0h-145v483h145v-483zM171 554c-58 0 -72 59 -102 59c-15 0 -27 -16 -27 -53h-72c0 84 36 134 102 134c58 0 72 -60 101 -60c16 0 28 17 28 54h71c0 -84 -36 -134 -101 -134z" />
    <glyph glyph-name="uni1EC9" unicode="&#x1ec9;" horiz-adv-x="241" 
d="M193 0h-145v483h145v-483zM96 581l-51 12c11 37 40 57 76 57c41 0 74 -21 74 -71c0 -21 -6 -37 -14 -52h-56c12 16 17 33 17 49c0 20 -11 28 -22 28c-12 0 -20 -10 -24 -23z" />
    <glyph glyph-name="uni1ECB" unicode="&#x1ecb;" horiz-adv-x="241" 
d="M121 529c-47 0 -84 38 -84 84c0 47 37 84 84 84c46 0 83 -37 83 -84c0 -46 -37 -84 -83 -84zM193 0h-145v483h145v-483zM122 -200c-40 0 -74 33 -74 74s34 75 74 75c41 0 75 -34 75 -75s-34 -74 -75 -74z" />
    <glyph glyph-name="ij" unicode="&#x133;" horiz-adv-x="482" 
d="M121 529c-47 0 -84 38 -84 84c0 47 37 84 84 84c46 0 83 -37 83 -84c0 -46 -37 -84 -83 -84zM193 0h-145v483h145v-483zM362 529c-47 0 -84 38 -84 84c0 47 37 84 84 84c46 0 83 -37 83 -84c0 -46 -37 -84 -83 -84zM266 -196c-47 0 -70 8 -98 27l33 110
c12 -11 23 -16 43 -16c28 0 45 19 45 63v495h145v-495c0 -113 -52 -184 -168 -184z" />
    <glyph glyph-name="uni0237" unicode="&#x237;" horiz-adv-x="241" 
d="M21 -196c-45 0 -68 8 -94 27l33 115c12 -10 23 -16 43 -16c28 0 45 20 45 58v495h145v-495c0 -113 -50 -184 -172 -184z" />
    <glyph glyph-name="jcircumflex" unicode="&#x135;" horiz-adv-x="241" 
d="M263 556h-82l-60 83l-57 -83h-82l75 144h128zM21 -196c-45 0 -68 8 -94 27l33 115c12 -10 23 -16 43 -16c28 0 45 20 45 58v495h145v-495c0 -113 -50 -184 -172 -184z" />
    <glyph glyph-name="kcommaaccent" unicode="&#x137;" horiz-adv-x="485" 
d="M319 -139c0 -62 -35 -117 -86 -154l-48 38c26 14 58 48 65 77c-3 -1 -10 -2 -16 -2c-32 0 -58 24 -58 60c0 38 31 68 68 68c39 0 75 -32 75 -87zM488 0h-169l-84 175l-42 -63v-112h-145v667h145v-381l120 197h167l-145 -217z" />
    <glyph glyph-name="kgreenlandic" unicode="&#x138;" horiz-adv-x="485" 
d="M488 0h-169l-84 175l-42 -63v-112h-145v483h145v-197l120 197h167l-145 -217z" />
    <glyph glyph-name="lacute" unicode="&#x13a;" horiz-adv-x="241" 
d="M292 867l-134 -144h-94l103 144h125zM193 0h-145v667h145v-667z" />
    <glyph glyph-name="lcommaaccent" unicode="&#x13c;" horiz-adv-x="241" 
d="M197 -139c0 -62 -35 -117 -86 -154l-48 38c26 14 58 48 65 77c-3 -1 -10 -2 -16 -2c-32 0 -58 24 -58 60c0 38 31 68 68 68c39 0 75 -32 75 -87zM193 0h-145v667h145v-667z" />
    <glyph glyph-name="lcaron" unicode="&#x13e;" horiz-adv-x="365" 
d="M382 593c0 -62 -35 -117 -86 -154l-48 38c26 14 58 48 65 77c-3 -1 -10 -2 -16 -2c-32 0 -58 24 -58 60c0 38 31 68 68 68c39 0 75 -32 75 -87zM193 0h-145v667h145v-667z" />
    <glyph glyph-name="ldot" unicode="&#x140;" horiz-adv-x="407" 
d="M193 0h-145v667h145v-667zM413 244c0 -48 -40 -89 -89 -89s-89 41 -89 89c0 49 40 90 89 90s89 -41 89 -90z" />
    <glyph glyph-name="lslash" unicode="&#x142;" horiz-adv-x="285" 
d="M11 206v104l59 34v323h145v-239l59 34v-104l-59 -34v-324h-145v240z" />
    <glyph glyph-name="lacute.alt1" horiz-adv-x="279" 
d="M292 867l-134 -144h-94l103 144h125zM185 -12c-93 0 -137 46 -137 137v542h145v-506c0 -28 11 -45 33 -45c14 0 27 5 33 11l26 -112c-18 -15 -53 -27 -100 -27z" />
    <glyph glyph-name="lcommaaccent.alt1" horiz-adv-x="279" 
d="M201 -139c0 -62 -35 -117 -86 -154l-48 38c26 14 58 48 65 77c-3 -1 -10 -2 -16 -2c-32 0 -58 24 -58 60c0 38 31 68 68 68c39 0 75 -32 75 -87zM185 -12c-93 0 -137 46 -137 137v542h145v-506c0 -28 11 -45 33 -45c14 0 27 5 33 11l26 -112c-18 -15 -53 -27 -100 -27z
" />
    <glyph glyph-name="lcaron.alt1" horiz-adv-x="365" 
d="M382 593c0 -62 -35 -117 -86 -154l-48 38c26 14 58 48 65 77c-3 -1 -10 -2 -16 -2c-32 0 -58 24 -58 60c0 38 31 68 68 68c39 0 75 -32 75 -87zM185 -12c-93 0 -137 46 -137 137v542h145v-506c0 -28 11 -45 33 -45c14 0 27 5 33 11l26 -112c-18 -15 -53 -27 -100 -27z
" />
    <glyph glyph-name="ldot.alt1" horiz-adv-x="407" 
d="M185 -12c-93 0 -137 46 -137 137v542h145v-506c0 -28 11 -45 33 -45c14 0 27 5 33 11l26 -112c-18 -15 -53 -27 -100 -27zM413 244c0 -48 -40 -89 -89 -89s-89 41 -89 89c0 49 40 90 89 90s89 -41 89 -90z" />
    <glyph glyph-name="lslash.alt1" horiz-adv-x="303" 
d="M11 206v104l58 33v324h145v-240l60 35v-104l-60 -35v-162c0 -28 11 -45 33 -45c14 0 27 5 33 11l26 -112c-18 -15 -53 -27 -100 -27c-93 0 -137 46 -137 137v114z" />
    <glyph glyph-name="nacute" unicode="&#x144;" 
d="M429 700l-134 -144h-94l103 144h125zM469 0h-145v305c0 44 -21 62 -56 62c-36 0 -61 -26 -75 -51v-316h-145v483h145v-60c24 36 78 72 142 72c93 0 134 -55 134 -133v-362z" />
    <glyph glyph-name="napostrophe" unicode="&#x149;" 
d="M173 684c0 -62 -35 -117 -86 -154l-48 38c26 14 58 48 65 77c-3 -1 -10 -2 -16 -2c-32 0 -58 24 -58 60c0 38 31 68 68 68c39 0 75 -32 75 -87zM469 0h-145v305c0 44 -21 62 -56 62c-36 0 -61 -26 -75 -51v-316h-145v483h145v-60c24 36 78 72 142 72
c93 0 134 -55 134 -133v-362z" />
    <glyph glyph-name="ncaron" unicode="&#x148;" 
d="M324 556h-128l-78 144h82l60 -84l57 84h82zM469 0h-145v305c0 44 -21 62 -56 62c-36 0 -61 -26 -75 -51v-316h-145v483h145v-60c24 36 78 72 142 72c93 0 134 -55 134 -133v-362z" />
    <glyph glyph-name="ncommaaccent" unicode="&#x146;" 
d="M333 -139c0 -62 -35 -117 -86 -154l-48 38c26 14 58 48 65 77c-3 -1 -10 -2 -16 -2c-32 0 -58 24 -58 60c0 38 31 68 68 68c39 0 75 -32 75 -87zM469 0h-145v305c0 44 -21 62 -56 62c-36 0 -61 -26 -75 -51v-316h-145v483h145v-60c24 36 78 72 142 72
c93 0 134 -55 134 -133v-362z" />
    <glyph glyph-name="ntilde" unicode="&#xf1;" 
d="M469 0h-145v305c0 44 -21 62 -56 62c-36 0 -61 -26 -75 -51v-316h-145v483h145v-60c24 36 78 72 142 72c93 0 134 -55 134 -133v-362zM309 554c-58 0 -72 59 -102 59c-15 0 -27 -16 -27 -53h-72c0 84 36 134 102 134c58 0 72 -60 101 -60c16 0 28 17 28 54h71
c0 -84 -36 -134 -101 -134z" />
    <glyph glyph-name="eng" unicode="&#x14b;" 
d="M469 362v-374c0 -113 -50 -184 -172 -184c-45 0 -68 8 -94 27l32 117c13 -11 24 -16 44 -16c28 0 45 19 45 56v317c0 44 -21 62 -56 62c-36 0 -61 -26 -75 -51v-316h-145v483h145v-60c24 36 78 72 142 72c93 0 134 -55 134 -133z" />
    <glyph glyph-name="oacute" unicode="&#xf3;" horiz-adv-x="505" 
d="M423 700l-134 -144h-94l103 144h125zM252 -12c-150 0 -229 119 -229 254s79 253 229 253s230 -118 230 -253s-80 -254 -230 -254zM252 116c56 0 81 55 81 126c0 70 -25 125 -81 125c-55 0 -80 -55 -80 -125c0 -71 25 -126 80 -126z" />
    <glyph glyph-name="obreve" unicode="&#x14f;" horiz-adv-x="505" 
d="M252 -12c-150 0 -229 119 -229 254s79 253 229 253s230 -118 230 -253s-80 -254 -230 -254zM252 116c56 0 81 55 81 126c0 70 -25 125 -81 125c-55 0 -80 -55 -80 -125c0 -71 25 -126 80 -126zM403 610c-34 -46 -89 -75 -151 -75c-61 0 -116 29 -151 75l64 51
c19 -28 50 -46 87 -46c36 0 68 17 87 46z" />
    <glyph glyph-name="ocircumflex" unicode="&#xf4;" horiz-adv-x="505" 
d="M394 556h-82l-60 83l-57 -83h-82l75 144h128zM252 -12c-150 0 -229 119 -229 254s79 253 229 253s230 -118 230 -253s-80 -254 -230 -254zM252 116c56 0 81 55 81 126c0 70 -25 125 -81 125c-55 0 -80 -55 -80 -125c0 -71 25 -126 80 -126z" />
    <glyph glyph-name="odieresis" unicode="&#xf6;" horiz-adv-x="505" 
d="M425 613c0 -42 -34 -74 -76 -74c-40 0 -74 32 -74 74s34 75 74 75c42 0 76 -33 76 -75zM230 613c0 -41 -32 -74 -74 -74s-75 33 -75 74c0 42 33 75 75 75s74 -33 74 -75zM252 -12c-150 0 -229 119 -229 254s79 253 229 253s230 -118 230 -253s-80 -254 -230 -254z
M252 116c56 0 81 55 81 126c0 70 -25 125 -81 125c-55 0 -80 -55 -80 -125c0 -71 25 -126 80 -126z" />
    <glyph glyph-name="ograve" unicode="&#xf2;" horiz-adv-x="505" 
d="M252 -12c-150 0 -229 119 -229 254s79 253 229 253s230 -118 230 -253s-80 -254 -230 -254zM252 116c56 0 81 55 81 126c0 70 -25 125 -81 125c-55 0 -80 -55 -80 -125c0 -71 25 -126 80 -126zM309 556h-94l-134 144h125z" />
    <glyph glyph-name="ohungarumlaut" unicode="&#x151;" horiz-adv-x="505" 
d="M308 700l-99 -144h-78l68 144h109zM451 700l-99 -144h-78l68 144h109zM252 -12c-150 0 -229 119 -229 254s79 253 229 253s230 -118 230 -253s-80 -254 -230 -254zM252 116c56 0 81 55 81 126c0 70 -25 125 -81 125c-55 0 -80 -55 -80 -125c0 -71 25 -126 80 -126z" />
    <glyph glyph-name="omacron" unicode="&#x14d;" horiz-adv-x="505" 
d="M409 558h-313v81h313v-81zM252 -12c-150 0 -229 119 -229 254s79 253 229 253s230 -118 230 -253s-80 -254 -230 -254zM252 116c56 0 81 55 81 126c0 70 -25 125 -81 125c-55 0 -80 -55 -80 -125c0 -71 25 -126 80 -126z" />
    <glyph glyph-name="oslash" unicode="&#xf8;" horiz-adv-x="505" 
d="M109 0h-81l51 67c-37 47 -56 109 -56 175c0 135 79 253 229 253c49 0 91 -13 125 -35l17 23h82l-51 -67c38 -46 57 -108 57 -174c0 -135 -80 -254 -230 -254c-50 0 -92 13 -126 35zM252 116c56 0 81 55 81 126c0 16 -2 32 -5 47l-120 -158c12 -10 26 -15 44 -15zM172 242
c0 -17 2 -32 4 -46l119 156c-12 9 -26 15 -43 15c-55 0 -80 -55 -80 -125z" />
    <glyph glyph-name="oslashacute" unicode="&#x1ff;" horiz-adv-x="505" 
d="M423 700l-134 -144h-94l103 144h125zM109 0h-81l51 67c-37 47 -56 109 -56 175c0 135 79 253 229 253c49 0 91 -13 125 -35l17 23h82l-51 -67c38 -46 57 -108 57 -174c0 -135 -80 -254 -230 -254c-50 0 -92 13 -126 35zM252 116c56 0 81 55 81 126c0 16 -2 32 -5 47
l-120 -158c12 -10 26 -15 44 -15zM172 242c0 -17 2 -32 4 -46l119 156c-12 9 -26 15 -43 15c-55 0 -80 -55 -80 -125z" />
    <glyph glyph-name="otilde" unicode="&#xf5;" horiz-adv-x="505" 
d="M252 -12c-150 0 -229 119 -229 254s79 253 229 253s230 -118 230 -253s-80 -254 -230 -254zM252 116c56 0 81 55 81 126c0 70 -25 125 -81 125c-55 0 -80 -55 -80 -125c0 -71 25 -126 80 -126zM302 554c-58 0 -72 59 -102 59c-15 0 -27 -16 -27 -53h-72
c0 84 36 134 102 134c58 0 72 -60 101 -60c16 0 28 17 28 54h71c0 -84 -36 -134 -101 -134z" />
    <glyph glyph-name="uni1ECD" unicode="&#x1ecd;" horiz-adv-x="505" 
d="M252 -12c-150 0 -229 119 -229 254s79 253 229 253s230 -118 230 -253s-80 -254 -230 -254zM252 116c56 0 81 55 81 126c0 70 -25 125 -81 125c-55 0 -80 -55 -80 -125c0 -71 25 -126 80 -126zM253 -200c-40 0 -74 33 -74 74s34 75 74 75c41 0 75 -34 75 -75
s-34 -74 -75 -74z" />
    <glyph glyph-name="uni1ECF" unicode="&#x1ecf;" horiz-adv-x="505" 
d="M252 -12c-150 0 -229 119 -229 254s79 253 229 253s230 -118 230 -253s-80 -254 -230 -254zM252 116c56 0 81 55 81 126c0 70 -25 125 -81 125c-55 0 -80 -55 -80 -125c0 -71 25 -126 80 -126zM229 581l-51 12c11 37 40 57 76 57c41 0 74 -21 74 -71
c0 -21 -6 -37 -14 -52h-56c12 16 17 33 17 49c0 20 -11 28 -22 28c-12 0 -20 -10 -24 -23z" />
    <glyph glyph-name="uni1ED1" unicode="&#x1ed1;" horiz-adv-x="505" 
d="M392 556h-82l-60 83l-57 -83h-82l75 144h128zM586 770l-134 -144h-94l103 144h125zM252 -12c-150 0 -229 119 -229 254s79 253 229 253s230 -118 230 -253s-80 -254 -230 -254zM252 116c56 0 81 55 81 126c0 70 -25 125 -81 125c-55 0 -80 -55 -80 -125
c0 -71 25 -126 80 -126z" />
    <glyph glyph-name="uni1ED3" unicode="&#x1ed3;" horiz-adv-x="505" 
d="M392 556h-82l-60 83l-57 -83h-82l75 144h128zM252 -12c-150 0 -229 119 -229 254s79 253 229 253s230 -118 230 -253s-80 -254 -230 -254zM252 116c56 0 81 55 81 126c0 70 -25 125 -81 125c-55 0 -80 -55 -80 -125c0 -71 25 -126 80 -126zM139 626h-94l-134 144h125z
" />
    <glyph glyph-name="uni1ED5" unicode="&#x1ed5;" horiz-adv-x="505" 
d="M392 556h-82l-60 83l-57 -83h-82l75 144h128zM252 -12c-150 0 -229 119 -229 254s79 253 229 253s230 -118 230 -253s-80 -254 -230 -254zM252 116c56 0 81 55 81 126c0 70 -25 125 -81 125c-55 0 -80 -55 -80 -125c0 -71 25 -126 80 -126zM329 721l-51 12
c11 37 40 57 76 57c41 0 74 -21 74 -71c0 -21 -6 -37 -14 -52h-56c12 16 17 33 17 49c0 20 -11 28 -22 28c-12 0 -20 -10 -24 -23z" />
    <glyph glyph-name="uni1ED7" unicode="&#x1ed7;" horiz-adv-x="505" 
d="M393 523h-82l-60 83l-57 -83h-82l75 144h128zM252 -12c-150 0 -229 119 -229 254s79 253 229 253s230 -118 230 -253s-80 -254 -230 -254zM252 116c56 0 81 55 81 126c0 70 -25 125 -81 125c-55 0 -80 -55 -80 -125c0 -71 25 -126 80 -126zM301 682c-58 0 -72 59 -102 59
c-15 0 -27 -16 -27 -53h-72c0 84 36 134 102 134c58 0 72 -60 101 -60c16 0 28 17 28 54h71c0 -84 -36 -134 -101 -134z" />
    <glyph glyph-name="uni1ED9" unicode="&#x1ed9;" horiz-adv-x="505" 
d="M393 556h-82l-60 83l-57 -83h-82l75 144h128zM252 -12c-150 0 -229 119 -229 254s79 253 229 253s230 -118 230 -253s-80 -254 -230 -254zM252 116c56 0 81 55 81 126c0 70 -25 125 -81 125c-55 0 -80 -55 -80 -125c0 -71 25 -126 80 -126zM252 -200c-40 0 -74 33 -74 74
s34 75 74 75c41 0 75 -34 75 -75s-34 -74 -75 -74z" />
    <glyph glyph-name="ohorn" unicode="&#x1a1;" horiz-adv-x="505" 
d="M497 533c0 -50 -25 -95 -63 -128c32 -45 48 -102 48 -163c0 -135 -80 -254 -230 -254s-229 119 -229 254s79 253 229 253c60 0 110 -19 147 -51c17 15 32 36 37 54c-3 -1 -9 -2 -15 -2c-29 0 -51 21 -51 54s27 60 59 60c36 0 68 -29 68 -77zM252 116c56 0 81 55 81 126
c0 70 -25 125 -81 125c-55 0 -80 -55 -80 -125c0 -71 25 -126 80 -126z" />
    <glyph glyph-name="uni1EDB" unicode="&#x1edb;" horiz-adv-x="505" 
d="M423 700l-134 -144h-94l103 144h125zM497 533c0 -50 -25 -95 -63 -128c32 -45 48 -102 48 -163c0 -135 -80 -254 -230 -254s-229 119 -229 254s79 253 229 253c60 0 110 -19 147 -51c17 15 32 36 37 54c-3 -1 -9 -2 -15 -2c-29 0 -51 21 -51 54s27 60 59 60
c36 0 68 -29 68 -77zM252 116c56 0 81 55 81 126c0 70 -25 125 -81 125c-55 0 -80 -55 -80 -125c0 -71 25 -126 80 -126z" />
    <glyph glyph-name="uni1EDD" unicode="&#x1edd;" horiz-adv-x="505" 
d="M497 533c0 -50 -25 -95 -63 -128c32 -45 48 -102 48 -163c0 -135 -80 -254 -230 -254s-229 119 -229 254s79 253 229 253c60 0 110 -19 147 -51c17 15 32 36 37 54c-3 -1 -9 -2 -15 -2c-29 0 -51 21 -51 54s27 60 59 60c36 0 68 -29 68 -77zM252 116c56 0 81 55 81 126
c0 70 -25 125 -81 125c-55 0 -80 -55 -80 -125c0 -71 25 -126 80 -126zM309 556h-94l-134 144h125z" />
    <glyph glyph-name="uni1EDF" unicode="&#x1edf;" horiz-adv-x="505" 
d="M497 533c0 -50 -25 -95 -63 -128c32 -45 48 -102 48 -163c0 -135 -80 -254 -230 -254s-229 119 -229 254s79 253 229 253c60 0 110 -19 147 -51c17 15 32 36 37 54c-3 -1 -9 -2 -15 -2c-29 0 -51 21 -51 54s27 60 59 60c36 0 68 -29 68 -77zM252 116c56 0 81 55 81 126
c0 70 -25 125 -81 125c-55 0 -80 -55 -80 -125c0 -71 25 -126 80 -126zM228 581l-51 12c11 37 40 57 76 57c41 0 74 -21 74 -71c0 -21 -6 -37 -14 -52h-56c12 16 17 33 17 49c0 20 -11 28 -22 28c-12 0 -20 -10 -24 -23z" />
    <glyph glyph-name="uni1EE1" unicode="&#x1ee1;" horiz-adv-x="505" 
d="M497 533c0 -50 -25 -95 -63 -128c32 -45 48 -102 48 -163c0 -135 -80 -254 -230 -254s-229 119 -229 254s79 253 229 253c60 0 110 -19 147 -51c17 15 32 36 37 54c-3 -1 -9 -2 -15 -2c-29 0 -51 21 -51 54s27 60 59 60c36 0 68 -29 68 -77zM252 116c56 0 81 55 81 126
c0 70 -25 125 -81 125c-55 0 -80 -55 -80 -125c0 -71 25 -126 80 -126zM283 554c-58 0 -72 59 -102 59c-15 0 -27 -16 -27 -53h-72c0 84 36 134 102 134c58 0 72 -60 101 -60c16 0 28 17 28 54h71c0 -84 -36 -134 -101 -134z" />
    <glyph glyph-name="uni1EE3" unicode="&#x1ee3;" horiz-adv-x="505" 
d="M497 533c0 -50 -25 -95 -63 -128c32 -45 48 -102 48 -163c0 -135 -80 -254 -230 -254s-229 119 -229 254s79 253 229 253c60 0 110 -19 147 -51c17 15 32 36 37 54c-3 -1 -9 -2 -15 -2c-29 0 -51 21 -51 54s27 60 59 60c36 0 68 -29 68 -77zM252 116c56 0 81 55 81 126
c0 70 -25 125 -81 125c-55 0 -80 -55 -80 -125c0 -71 25 -126 80 -126zM253 -200c-40 0 -74 33 -74 74s34 75 74 75c41 0 75 -34 75 -75s-34 -74 -75 -74z" />
    <glyph glyph-name="oe" unicode="&#x153;" horiz-adv-x="794" 
d="M775 195h-297c7 -49 39 -93 107 -93c34 0 72 16 97 41l65 -86c-44 -46 -115 -69 -180 -69c-81 0 -126 38 -160 85c-33 -47 -81 -85 -155 -85c-150 0 -229 119 -229 254s79 253 229 253c74 0 122 -38 155 -84c32 47 79 84 152 84c136 0 216 -107 216 -261v-39zM477 292
h160c-2 38 -20 89 -80 89c-58 0 -77 -51 -80 -89zM333 242c0 74 -27 125 -81 125c-53 0 -80 -51 -80 -125c0 -75 27 -127 80 -127c54 0 81 52 81 127z" />
    <glyph glyph-name="uni1E57" unicode="&#x1e57;" horiz-adv-x="515" 
d="M312 -12c-44 0 -89 20 -119 69v-241h-145v667h145v-57c30 48 74 69 119 69c109 0 181 -92 181 -253c0 -159 -72 -254 -181 -254zM263 116c53 0 82 51 82 126c0 74 -29 125 -82 125c-26 0 -56 -17 -70 -44v-162c14 -26 44 -45 70 -45zM264 539c-40 0 -74 33 -74 74
s34 75 74 75c41 0 75 -34 75 -75s-34 -74 -75 -74z" />
    <glyph glyph-name="racute" unicode="&#x155;" horiz-adv-x="335" 
d="M355 700l-134 -144h-94l103 144h125zM193 0h-145v483h145v-61c25 40 81 74 129 74v-140c-8 2 -19 4 -31 4c-35 0 -78 -19 -98 -48v-312z" />
    <glyph glyph-name="rcaron" unicode="&#x159;" horiz-adv-x="335" 
d="M249 556h-128l-78 144h82l60 -84l57 84h82zM193 0h-145v483h145v-61c25 40 81 74 129 74v-140c-8 2 -19 4 -31 4c-35 0 -78 -19 -98 -48v-312z" />
    <glyph glyph-name="rcommaaccent" unicode="&#x157;" horiz-adv-x="335" 
d="M243 -139c0 -62 -35 -117 -86 -154l-48 38c26 14 58 48 65 77c-3 -1 -10 -2 -16 -2c-32 0 -58 24 -58 60c0 38 31 68 68 68c39 0 75 -32 75 -87zM193 0h-145v483h145v-61c25 40 81 74 129 74v-140c-8 2 -19 4 -31 4c-35 0 -78 -19 -98 -48v-312z" />
    <glyph glyph-name="sacute" unicode="&#x15b;" horiz-adv-x="424" 
d="M384 700l-134 -144h-94l103 144h125zM210 -12c-83 0 -157 28 -198 69l58 99c32 -29 90 -57 137 -57c40 0 60 16 60 39c0 64 -238 20 -238 205c0 81 65 152 188 152c70 0 132 -25 178 -61l-56 -97c-24 24 -71 48 -121 48c-31 0 -53 -15 -53 -34c0 -58 240 -22 240 -207
c0 -91 -76 -156 -195 -156z" />
    <glyph glyph-name="scaron" unicode="&#x161;" horiz-adv-x="424" 
d="M279 556h-128l-78 144h82l60 -84l57 84h82zM210 -12c-83 0 -157 28 -198 69l58 99c32 -29 90 -57 137 -57c40 0 60 16 60 39c0 64 -238 20 -238 205c0 81 65 152 188 152c70 0 132 -25 178 -61l-56 -97c-24 24 -71 48 -121 48c-31 0 -53 -15 -53 -34
c0 -58 240 -22 240 -207c0 -91 -76 -156 -195 -156z" />
    <glyph glyph-name="scircumflex" unicode="&#x15d;" horiz-adv-x="424" 
d="M354 556h-82l-60 83l-57 -83h-82l75 144h128zM210 -12c-83 0 -157 28 -198 69l58 99c32 -29 90 -57 137 -57c40 0 60 16 60 39c0 64 -238 20 -238 205c0 81 65 152 188 152c70 0 132 -25 178 -61l-56 -97c-24 24 -71 48 -121 48c-31 0 -53 -15 -53 -34
c0 -58 240 -22 240 -207c0 -91 -76 -156 -195 -156z" />
    <glyph glyph-name="scedilla" unicode="&#x15f;" horiz-adv-x="424" 
d="M206 -197c-42 0 -81 15 -102 33l26 54c23 -18 49 -29 72 -29s43 11 43 30c0 14 -9 23 -23 23c-11 0 -20 -5 -27 -13l-50 29l23 61c-66 7 -122 32 -156 66l58 99c32 -29 90 -57 137 -57c40 0 60 16 60 39c0 64 -238 20 -238 205c0 81 65 152 188 152c70 0 132 -25 178 -61
l-56 -97c-24 24 -71 48 -121 48c-31 0 -53 -15 -53 -34c0 -58 240 -22 240 -207c0 -85 -66 -146 -171 -155l-16 -39c10 6 19 10 32 10c35 0 64 -29 64 -71c0 -54 -47 -86 -108 -86z" />
    <glyph glyph-name="scommaaccent" unicode="&#x219;" horiz-adv-x="424" 
d="M291 -139c0 -62 -35 -117 -86 -154l-48 38c26 14 58 48 65 77c-3 -1 -10 -2 -16 -2c-32 0 -58 24 -58 60c0 38 31 68 68 68c39 0 75 -32 75 -87zM210 -12c-83 0 -157 28 -198 69l58 99c32 -29 90 -57 137 -57c40 0 60 16 60 39c0 64 -238 20 -238 205
c0 81 65 152 188 152c70 0 132 -25 178 -61l-56 -97c-24 24 -71 48 -121 48c-31 0 -53 -15 -53 -34c0 -58 240 -22 240 -207c0 -91 -76 -156 -195 -156z" />
    <glyph glyph-name="uni1E61" unicode="&#x1e61;" horiz-adv-x="424" 
d="M210 -12c-83 0 -157 28 -198 69l58 99c32 -29 90 -57 137 -57c40 0 60 16 60 39c0 64 -238 20 -238 205c0 81 65 152 188 152c70 0 132 -25 178 -61l-56 -97c-24 24 -71 48 -121 48c-31 0 -53 -15 -53 -34c0 -58 240 -22 240 -207c0 -91 -76 -156 -195 -156zM211 539
c-40 0 -74 33 -74 74s34 75 74 75c41 0 75 -34 75 -75s-34 -74 -75 -74z" />
    <glyph glyph-name="germandbls" unicode="&#xdf;" horiz-adv-x="607" 
d="M594 144c0 -86 -74 -156 -186 -156c-82 0 -135 27 -179 69l53 100c22 -28 66 -57 112 -57c35 0 55 16 55 39c0 62 -207 35 -207 201c0 98 101 117 101 164c0 28 -29 45 -66 45c-47 0 -82 -25 -82 -80v-469h-144v469c0 113 84 208 228 208c110 0 211 -63 211 -154
c0 -111 -109 -126 -109 -174c0 -56 213 -20 213 -205z" />
    <glyph glyph-name="longs" unicode="&#x17f;" horiz-adv-x="306" 
d="M218 0h-145v357h-62v126h62v29c0 103 60 165 158 165c44 0 89 -12 115 -37l-43 -97c-11 11 -24 17 -42 17c-25 0 -43 -18 -43 -48v-512z" />
    <glyph glyph-name="tbar" unicode="&#x167;" horiz-adv-x="315" 
d="M209 -12c-93 0 -137 46 -137 137v78h-61v81h61v73h-61v126h61v132h145v-132h78v-126h-78v-73h49v-81h-49v-42c0 -28 11 -45 33 -45c14 0 27 5 33 11l26 -112c-18 -15 -53 -27 -100 -27z" />
    <glyph glyph-name="tcaron" unicode="&#x165;" horiz-adv-x="342" 
d="M398 684c0 -62 -35 -117 -86 -154l-48 38c26 14 58 48 65 77c-3 -1 -10 -2 -16 -2c-32 0 -58 24 -58 60c0 38 31 68 68 68c39 0 75 -32 75 -87zM209 -12c-93 0 -137 46 -137 137v232h-61v126h61v132h145v-132h78v-126h-78v-196c0 -28 11 -45 33 -45c14 0 27 5 33 11
l26 -112c-18 -15 -53 -27 -100 -27z" />
    <glyph glyph-name="tcommaaccent" unicode="&#x163;" horiz-adv-x="315" 
d="M233 -139c0 -62 -35 -117 -86 -154l-48 38c26 14 58 48 65 77c-3 -1 -10 -2 -16 -2c-32 0 -58 24 -58 60c0 38 31 68 68 68c39 0 75 -32 75 -87zM209 -12c-93 0 -137 46 -137 137v232h-61v126h61v132h145v-132h78v-126h-78v-196c0 -28 11 -45 33 -45c14 0 27 5 33 11
l26 -112c-18 -15 -53 -27 -100 -27z" />
    <glyph glyph-name="uni021B" unicode="&#x21b;" horiz-adv-x="315" 
d="M233 -139c0 -62 -35 -117 -86 -154l-48 38c26 14 58 48 65 77c-3 -1 -10 -2 -16 -2c-32 0 -58 24 -58 60c0 38 31 68 68 68c39 0 75 -32 75 -87zM209 -12c-93 0 -137 46 -137 137v232h-61v126h61v132h145v-132h78v-126h-78v-196c0 -28 11 -45 33 -45c14 0 27 5 33 11
l26 -112c-18 -15 -53 -27 -100 -27z" />
    <glyph glyph-name="uni1E6B" unicode="&#x1e6b;" horiz-adv-x="315" 
d="M209 -12c-93 0 -137 46 -137 137v232h-61v126h61v132h145v-132h78v-126h-78v-196c0 -28 11 -45 33 -45c14 0 27 5 33 11l26 -112c-18 -15 -53 -27 -100 -27zM147 706c-40 0 -74 33 -74 74s34 75 74 75c41 0 75 -34 75 -75s-34 -74 -75 -74z" />
    <glyph glyph-name="uacute" unicode="&#xfa;" 
d="M429 700l-134 -144h-94l103 144h125zM468 0h-144v58c-25 -35 -78 -70 -143 -70c-93 0 -133 53 -133 131v364h145v-306c0 -44 20 -61 56 -61c35 0 61 25 75 50v317h144v-483z" />
    <glyph glyph-name="ubreve" unicode="&#x16d;" 
d="M468 0h-144v58c-25 -35 -78 -70 -143 -70c-93 0 -133 53 -133 131v364h145v-306c0 -44 20 -61 56 -61c35 0 61 25 75 50v317h144v-483zM410 610c-34 -46 -89 -75 -151 -75c-61 0 -116 29 -151 75l64 51c19 -28 50 -46 87 -46c36 0 68 17 87 46z" />
    <glyph glyph-name="ucircumflex" unicode="&#xfb;" 
d="M400 556h-82l-60 83l-57 -83h-82l75 144h128zM468 0h-144v58c-25 -35 -78 -70 -143 -70c-93 0 -133 53 -133 131v364h145v-306c0 -44 20 -61 56 -61c35 0 61 25 75 50v317h144v-483z" />
    <glyph glyph-name="udieresis" unicode="&#xfc;" 
d="M431 613c0 -42 -34 -74 -76 -74c-40 0 -74 32 -74 74s34 75 74 75c42 0 76 -33 76 -75zM236 613c0 -41 -32 -74 -74 -74s-75 33 -75 74c0 42 33 75 75 75s74 -33 74 -75zM468 0h-144v58c-25 -35 -78 -70 -143 -70c-93 0 -133 53 -133 131v364h145v-306
c0 -44 20 -61 56 -61c35 0 61 25 75 50v317h144v-483z" />
    <glyph glyph-name="ugrave" unicode="&#xf9;" 
d="M468 0h-144v58c-25 -35 -78 -70 -143 -70c-93 0 -133 53 -133 131v364h145v-306c0 -44 20 -61 56 -61c35 0 61 25 75 50v317h144v-483zM315 556h-94l-134 144h125z" />
    <glyph glyph-name="uhungarumlaut" unicode="&#x171;" 
d="M468 0h-144v58c-25 -35 -78 -70 -143 -70c-93 0 -133 53 -133 131v364h145v-306c0 -44 20 -61 56 -61c35 0 61 25 75 50v317h144v-483zM314 700l-99 -144h-78l68 144h109zM457 700l-99 -144h-78l68 144h109z" />
    <glyph glyph-name="umacron" unicode="&#x16b;" 
d="M468 0h-144v58c-25 -35 -78 -70 -143 -70c-93 0 -133 53 -133 131v364h145v-306c0 -44 20 -61 56 -61c35 0 61 25 75 50v317h144v-483zM414 558h-313v81h313v-81z" />
    <glyph glyph-name="uogonek" unicode="&#x173;" 
d="M468 0c-41 -25 -60 -58 -60 -92c0 -26 13 -36 27 -36c16 0 26 12 31 29l56 -33c-17 -32 -45 -54 -88 -54c-52 0 -95 27 -95 89c0 35 13 68 41 97h-56v58c-25 -35 -78 -70 -143 -70c-93 0 -133 53 -133 131v364h145v-306c0 -44 20 -61 56 -61c35 0 61 25 75 50v317h144
v-483z" />
    <glyph glyph-name="uring" unicode="&#x16f;" 
d="M259 528c-55 0 -100 46 -100 101s45 100 100 100s99 -45 99 -100s-44 -101 -99 -101zM259 591c21 0 37 17 37 38s-16 38 -37 38c-20 0 -38 -17 -38 -38s18 -38 38 -38zM468 0h-144v58c-25 -35 -78 -70 -143 -70c-93 0 -133 53 -133 131v364h145v-306c0 -44 20 -61 56 -61
c35 0 61 25 75 50v317h144v-483z" />
    <glyph glyph-name="utilde" unicode="&#x169;" 
d="M468 0h-144v58c-25 -35 -78 -70 -143 -70c-93 0 -133 53 -133 131v364h145v-306c0 -44 20 -61 56 -61c35 0 61 25 75 50v317h144v-483zM308 554c-58 0 -72 59 -102 59c-15 0 -27 -16 -27 -53h-72c0 84 36 134 102 134c58 0 72 -60 101 -60c16 0 28 17 28 54h71
c0 -84 -36 -134 -101 -134z" />
    <glyph glyph-name="uni1EE5" unicode="&#x1ee5;" 
d="M468 0h-144v58c-25 -35 -78 -70 -143 -70c-93 0 -133 53 -133 131v364h145v-306c0 -44 20 -61 56 -61c35 0 61 25 75 50v317h144v-483zM259 -200c-40 0 -74 33 -74 74s34 75 74 75c41 0 75 -34 75 -75s-34 -74 -75 -74z" />
    <glyph glyph-name="uhorn" unicode="&#x1b0;" 
d="M468 0h-144v58c-25 -35 -78 -70 -143 -70c-93 0 -133 53 -133 131v364h145v-306c0 -44 20 -61 56 -61c35 0 61 25 75 50v317h138c7 10 12 20 15 30c-2 -1 -9 -2 -15 -2c-29 0 -51 22 -51 54c0 33 27 60 59 60c36 0 68 -28 68 -77c0 -46 -23 -96 -70 -133v-415z" />
    <glyph glyph-name="uni1EE7" unicode="&#x1ee7;" 
d="M468 0h-144v58c-25 -35 -78 -70 -143 -70c-93 0 -133 53 -133 131v364h145v-306c0 -44 20 -61 56 -61c35 0 61 25 75 50v317h144v-483zM234 581l-51 12c11 37 40 57 76 57c41 0 74 -21 74 -71c0 -21 -6 -37 -14 -52h-56c12 16 17 33 17 49c0 20 -11 28 -22 28
c-12 0 -20 -10 -24 -23z" />
    <glyph glyph-name="uni1EE9" unicode="&#x1ee9;" 
d="M429 700l-134 -144h-94l103 144h125zM468 0h-144v58c-25 -35 -78 -70 -143 -70c-93 0 -133 53 -133 131v364h145v-306c0 -44 20 -61 56 -61c35 0 61 25 75 50v317h138c7 10 12 20 15 30c-2 -1 -9 -2 -15 -2c-29 0 -51 22 -51 54c0 33 27 60 59 60c36 0 68 -28 68 -77
c0 -46 -23 -96 -70 -133v-415z" />
    <glyph glyph-name="uni1EEB" unicode="&#x1eeb;" 
d="M315 556h-94l-134 144h125zM468 0h-144v58c-25 -35 -78 -70 -143 -70c-93 0 -133 53 -133 131v364h145v-306c0 -44 20 -61 56 -61c35 0 61 25 75 50v317h138c7 10 12 20 15 30c-2 -1 -9 -2 -15 -2c-29 0 -51 22 -51 54c0 33 27 60 59 60c36 0 68 -28 68 -77
c0 -46 -23 -96 -70 -133v-415z" />
    <glyph glyph-name="uni1EED" unicode="&#x1eed;" 
d="M234 581l-51 12c11 37 40 57 76 57c41 0 74 -21 74 -71c0 -21 -6 -37 -14 -52h-56c12 16 17 33 17 49c0 20 -11 28 -22 28c-12 0 -20 -10 -24 -23zM468 0h-144v58c-25 -35 -78 -70 -143 -70c-93 0 -133 53 -133 131v364h145v-306c0 -44 20 -61 56 -61c35 0 61 25 75 50
v317h138c7 10 12 20 15 30c-2 -1 -9 -2 -15 -2c-29 0 -51 22 -51 54c0 33 27 60 59 60c36 0 68 -28 68 -77c0 -46 -23 -96 -70 -133v-415z" />
    <glyph glyph-name="uni1EEF" unicode="&#x1eef;" 
d="M468 0h-144v58c-25 -35 -78 -70 -143 -70c-93 0 -133 53 -133 131v364h145v-306c0 -44 20 -61 56 -61c35 0 61 25 75 50v317h138c7 10 12 20 15 30c-2 -1 -9 -2 -15 -2c-29 0 -51 22 -51 54c0 33 27 60 59 60c36 0 68 -28 68 -77c0 -46 -23 -96 -70 -133v-415zM303 554
c-58 0 -72 59 -102 59c-15 0 -27 -16 -27 -53h-72c0 84 36 134 102 134c58 0 72 -60 101 -60c16 0 28 17 28 54h71c0 -84 -36 -134 -101 -134z" />
    <glyph glyph-name="uni1EF1" unicode="&#x1ef1;" 
d="M259 -200c-40 0 -74 33 -74 74s34 75 74 75c41 0 75 -34 75 -75s-34 -74 -75 -74zM468 0h-144v58c-25 -35 -78 -70 -143 -70c-93 0 -133 53 -133 131v364h145v-306c0 -44 20 -61 56 -61c35 0 61 25 75 50v317h138c7 10 12 20 15 30c-2 -1 -9 -2 -15 -2
c-29 0 -51 22 -51 54c0 33 27 60 59 60c36 0 68 -28 68 -77c0 -46 -23 -96 -70 -133v-415z" />
    <glyph glyph-name="wacute" unicode="&#x1e83;" horiz-adv-x="714" 
d="M527 700l-134 -144h-94l103 144h125zM588 0h-154l-77 299l-77 -299h-154l-128 483h148l67 -299l76 299h132l79 -299l67 299h150z" />
    <glyph glyph-name="wcircumflex" unicode="&#x175;" horiz-adv-x="714" 
d="M498 556h-82l-60 83l-57 -83h-82l75 144h128zM588 0h-154l-77 299l-77 -299h-154l-128 483h148l67 -299l76 299h132l79 -299l67 299h150z" />
    <glyph glyph-name="wdieresis" unicode="&#x1e85;" horiz-adv-x="714" 
d="M529 613c0 -42 -34 -74 -76 -74c-40 0 -74 32 -74 74s34 75 74 75c42 0 76 -33 76 -75zM334 613c0 -41 -32 -74 -74 -74s-75 33 -75 74c0 42 33 75 75 75s74 -33 74 -75zM588 0h-154l-77 299l-77 -299h-154l-128 483h148l67 -299l76 299h132l79 -299l67 299h150z" />
    <glyph glyph-name="wgrave" unicode="&#x1e81;" horiz-adv-x="714" 
d="M588 0h-154l-77 299l-77 -299h-154l-128 483h148l67 -299l76 299h132l79 -299l67 299h150zM413 556h-94l-134 144h125z" />
    <glyph glyph-name="yacute" unicode="&#xfd;" horiz-adv-x="466" 
d="M45 -188l20 127c8 -5 21 -7 30 -7c27 0 45 8 52 28l11 31l-164 492h153l85 -309l87 309h153l-187 -555c-33 -99 -91 -123 -177 -124c-16 0 -49 3 -63 8zM403 700l-134 -144h-94l103 144h125z" />
    <glyph glyph-name="ycircumflex" unicode="&#x177;" horiz-adv-x="466" 
d="M45 -188l20 127c8 -5 21 -7 30 -7c27 0 45 8 52 28l11 31l-164 492h153l85 -309l87 309h153l-187 -555c-33 -99 -91 -123 -177 -124c-16 0 -49 3 -63 8zM374 556h-82l-60 83l-57 -83h-82l75 144h128z" />
    <glyph glyph-name="ydieresis" unicode="&#xff;" horiz-adv-x="466" 
d="M45 -188l20 127c8 -5 21 -7 30 -7c27 0 45 8 52 28l11 31l-164 492h153l85 -309l87 309h153l-187 -555c-33 -99 -91 -123 -177 -124c-16 0 -49 3 -63 8zM406 613c0 -42 -34 -74 -76 -74c-40 0 -74 32 -74 74s34 75 74 75c42 0 76 -33 76 -75zM211 613
c0 -41 -32 -74 -74 -74s-75 33 -75 74c0 42 33 75 75 75s74 -33 74 -75z" />
    <glyph glyph-name="ygrave" unicode="&#x1ef3;" horiz-adv-x="466" 
d="M45 -188l20 127c8 -5 21 -7 30 -7c27 0 45 8 52 28l11 31l-164 492h153l85 -309l87 309h153l-187 -555c-33 -99 -91 -123 -177 -124c-16 0 -49 3 -63 8zM289 556h-94l-134 144h125z" />
    <glyph glyph-name="yacute.alt1" 
d="M428 700l-134 -144h-94l103 144h125zM233 -196c-76 0 -138 20 -185 63l55 108c32 -35 82 -50 123 -50c63 0 98 37 98 106v51c-25 -36 -78 -70 -143 -70c-93 0 -133 53 -133 131v340h145v-283c0 -43 20 -60 56 -60c35 0 61 25 75 49v294h144v-444
c0 -149 -83 -235 -235 -235z" />
    <glyph glyph-name="ycircumflex.alt1" 
d="M400 556h-82l-60 83l-57 -83h-82l75 144h128zM233 -196c-76 0 -138 20 -185 63l55 108c32 -35 82 -50 123 -50c63 0 98 37 98 106v51c-25 -36 -78 -70 -143 -70c-93 0 -133 53 -133 131v340h145v-283c0 -43 20 -60 56 -60c35 0 61 25 75 49v294h144v-444
c0 -149 -83 -235 -235 -235z" />
    <glyph glyph-name="ydieresis.alt1" 
d="M430 613c0 -42 -34 -74 -76 -74c-40 0 -74 32 -74 74s34 75 74 75c42 0 76 -33 76 -75zM235 613c0 -41 -32 -74 -74 -74s-75 33 -75 74c0 42 33 75 75 75s74 -33 74 -75zM233 -196c-76 0 -138 20 -185 63l55 108c32 -35 82 -50 123 -50c63 0 98 37 98 106v51
c-25 -36 -78 -70 -143 -70c-93 0 -133 53 -133 131v340h145v-283c0 -43 20 -60 56 -60c35 0 61 25 75 49v294h144v-444c0 -149 -83 -235 -235 -235z" />
    <glyph glyph-name="ygrave.alt1" 
d="M233 -196c-76 0 -138 20 -185 63l55 108c32 -35 82 -50 123 -50c63 0 98 37 98 106v51c-25 -36 -78 -70 -143 -70c-93 0 -133 53 -133 131v340h145v-283c0 -43 20 -60 56 -60c35 0 61 25 75 49v294h144v-444c0 -149 -83 -235 -235 -235zM315 556h-94l-134 144h125z" />
    <glyph glyph-name="zacute" unicode="&#x17a;" horiz-adv-x="417" 
d="M379 700l-134 -144h-94l103 144h125zM387 0h-357v107l167 250h-167v126h353v-103l-169 -254h173v-126z" />
    <glyph glyph-name="zcaron" unicode="&#x17e;" horiz-adv-x="417" 
d="M270 556h-128l-78 144h82l60 -84l57 84h82zM387 0h-357v107l167 250h-167v126h353v-103l-169 -254h173v-126z" />
    <glyph glyph-name="zdotaccent" unicode="&#x17c;" horiz-adv-x="417" 
d="M387 0h-357v107l167 250h-167v126h353v-103l-169 -254h173v-126zM206 539c-40 0 -74 33 -74 74s34 75 74 75c41 0 75 -34 75 -75s-34 -74 -75 -74z" />
    <glyph glyph-name="eth" unicode="&#xf0;" horiz-adv-x="505" 
d="M119 472l-28 65l103 45c-17 16 -33 32 -49 46l100 88c28 -25 55 -51 79 -77l84 37l27 -63l-65 -29c72 -96 112 -200 112 -318c0 -169 -80 -278 -230 -278c-146 0 -229 103 -229 234c0 130 74 232 183 232c64 0 103 -36 129 -83c-14 52 -49 106 -92 156zM252 116
c55 0 81 47 81 105c0 59 -26 106 -81 106c-54 0 -80 -47 -80 -106c0 -58 26 -105 80 -105z" />
    <glyph glyph-name="thorn" unicode="&#xfe;" horiz-adv-x="515" 
d="M312 -12c-44 0 -89 20 -119 68v-240h-145v851h145v-240c30 47 74 68 119 68c109 0 181 -92 181 -253c0 -159 -72 -254 -181 -254zM263 116c53 0 82 51 82 126c0 74 -29 125 -82 125c-26 0 -56 -17 -70 -44v-162c14 -26 44 -45 70 -45z" />
    <glyph glyph-name="Aacute.smcp" unicode="&#xf7e1;" horiz-adv-x="504" 
d="M422 750l-134 -144h-94l103 144h125zM163 550h178l170 -550h-161l-20 81h-155l-21 -81h-161zM299 211l-47 183l-47 -183h94z" />
    <glyph glyph-name="Abreve.smcp" unicode="&#xf66d;" horiz-adv-x="504" 
d="M163 550h178l170 -550h-161l-20 81h-155l-21 -81h-161zM299 211l-47 183l-47 -183h94zM403 660c-34 -46 -89 -75 -151 -75c-61 0 -116 29 -151 75l64 51c19 -28 50 -46 87 -46c36 0 68 17 87 46z" />
    <glyph glyph-name="Acircumflex.smcp" unicode="&#xf7e2;" horiz-adv-x="504" 
d="M393 606h-82l-60 83l-57 -83h-82l75 144h128zM163 550h178l170 -550h-161l-20 81h-155l-21 -81h-161zM299 211l-47 183l-47 -183h94z" />
    <glyph glyph-name="Adieresis.smcp" unicode="&#xf7e4;" horiz-adv-x="504" 
d="M424 678c0 -42 -34 -74 -76 -74c-40 0 -74 32 -74 74s34 75 74 75c42 0 76 -33 76 -75zM229 678c0 -41 -32 -74 -74 -74s-75 33 -75 74c0 42 33 75 75 75s74 -33 74 -75zM163 550h178l170 -550h-161l-20 81h-155l-21 -81h-161zM299 211l-47 183l-47 -183h94z" />
    <glyph glyph-name="Agrave.smcp" unicode="&#xf7e0;" horiz-adv-x="504" 
d="M163 550h178l170 -550h-161l-20 81h-155l-21 -81h-161zM299 211l-47 183l-47 -183h94zM309 606h-94l-134 144h125z" />
    <glyph glyph-name="Amacron.smcp" unicode="&#xf66e;" horiz-adv-x="504" 
d="M409 608h-313v81h313v-81zM163 550h178l170 -550h-161l-20 81h-155l-21 -81h-161zM299 211l-47 183l-47 -183h94z" />
    <glyph glyph-name="Aogonek.smcp" unicode="&#xf66f;" horiz-adv-x="504" 
d="M163 550h178l170 -550c-41 -25 -60 -58 -60 -92c0 -26 13 -36 27 -36c16 0 26 12 31 29l56 -33c-17 -32 -45 -54 -88 -54c-52 0 -95 27 -95 89c0 35 13 68 41 97h-73l-20 81h-155l-21 -81h-161zM299 211l-47 183l-47 -183h94z" />
    <glyph glyph-name="Aring.smcp" unicode="&#xf7e5;" horiz-adv-x="504" 
d="M253 573c-55 0 -100 46 -100 101s45 100 100 100s99 -45 99 -100s-44 -101 -99 -101zM253 636c21 0 37 17 37 38s-16 38 -37 38c-20 0 -38 -17 -38 -38s18 -38 38 -38zM163 550h178l170 -550h-161l-20 81h-155l-21 -81h-161zM299 211l-47 183l-47 -183h94z" />
    <glyph glyph-name="Atilde.smcp" unicode="&#xf7e3;" horiz-adv-x="504" 
d="M163 550h178l170 -550h-161l-20 81h-155l-21 -81h-161zM299 211l-47 183l-47 -183h94zM302 604c-58 0 -72 59 -102 59c-15 0 -27 -16 -27 -53h-72c0 84 36 134 102 134c58 0 72 -60 101 -60c16 0 28 17 28 54h71c0 -84 -36 -134 -101 -134z" />
    <glyph glyph-name="uni1EA0.smcp" horiz-adv-x="504" 
d="M163 550h178l170 -550h-161l-20 81h-155l-21 -81h-161zM299 211l-47 183l-47 -183h94zM252 -200c-40 0 -74 33 -74 74s34 75 74 75c41 0 75 -34 75 -75s-34 -74 -75 -74z" />
    <glyph glyph-name="uni1EA2.smcp" horiz-adv-x="504" 
d="M163 550h178l170 -550h-161l-20 81h-155l-21 -81h-161zM299 211l-47 183l-47 -183h94zM228 634l-51 12c11 37 40 57 76 57c41 0 74 -21 74 -71c0 -21 -6 -37 -14 -52h-56c12 16 17 33 17 49c0 20 -11 28 -22 28c-12 0 -20 -10 -24 -23z" />
    <glyph glyph-name="uni1EA4.smcp" horiz-adv-x="504" 
d="M394 606h-82l-60 83l-57 -83h-82l75 144h128zM588 820l-134 -144h-94l103 144h125zM163 550h178l170 -550h-161l-20 81h-155l-21 -81h-161zM299 211l-47 183l-47 -183h94z" />
    <glyph glyph-name="uni1EAC.smcp" horiz-adv-x="504" 
d="M393 606h-82l-60 83l-57 -83h-82l75 144h128zM163 550h178l170 -550h-161l-20 81h-155l-21 -81h-161zM299 211l-47 183l-47 -183h94zM252 -200c-40 0 -74 33 -74 74s34 75 74 75c41 0 75 -34 75 -75s-34 -74 -75 -74z" />
    <glyph glyph-name="uni1EA6.smcp" horiz-adv-x="504" 
d="M394 606h-82l-60 83l-57 -83h-82l75 144h128zM163 550h178l170 -550h-161l-20 81h-155l-21 -81h-161zM299 211l-47 183l-47 -183h94zM141 676h-94l-134 144h125z" />
    <glyph glyph-name="uni1EA8.smcp" horiz-adv-x="504" 
d="M393 606h-82l-60 83l-57 -83h-82l75 144h128zM163 550h178l170 -550h-161l-20 81h-155l-21 -81h-161zM299 211l-47 183l-47 -183h94zM330 771l-51 12c11 37 40 57 76 57c41 0 74 -21 74 -71c0 -21 -6 -37 -14 -52h-56c12 16 17 33 17 49c0 20 -11 28 -22 28
c-12 0 -20 -10 -24 -23z" />
    <glyph glyph-name="uni1EAE.smcp" horiz-adv-x="504" 
d="M425 837l-134 -144h-94l103 144h125zM163 550h178l170 -550h-161l-20 81h-155l-21 -81h-161zM299 211l-47 183l-47 -183h94zM403 645c-34 -46 -89 -75 -151 -75c-61 0 -116 29 -151 75l64 51c19 -28 50 -46 87 -46c36 0 68 17 87 46z" />
    <glyph glyph-name="uni1EAA.smcp" horiz-adv-x="504" 
d="M392 573h-82l-60 83l-57 -83h-82l75 144h128zM163 550h178l170 -550h-161l-20 81h-155l-21 -81h-161zM299 211l-47 183l-47 -183h94zM302 732c-58 0 -72 59 -102 59c-15 0 -27 -16 -27 -53h-72c0 84 36 134 102 134c58 0 72 -60 101 -60c16 0 28 17 28 54h71
c0 -84 -36 -134 -101 -134z" />
    <glyph glyph-name="uni1EB0.smcp" horiz-adv-x="504" 
d="M163 550h178l170 -550h-161l-20 81h-155l-21 -81h-161zM299 211l-47 183l-47 -183h94zM310 693h-94l-134 144h125zM403 645c-34 -46 -89 -75 -151 -75c-61 0 -116 29 -151 75l64 51c19 -28 50 -46 87 -46c36 0 68 17 87 46z" />
    <glyph glyph-name="uni1EB2.smcp" horiz-adv-x="504" 
d="M163 550h178l170 -550h-161l-20 81h-155l-21 -81h-161zM299 211l-47 183l-47 -183h94zM228 750l-51 12c11 37 40 57 76 57c41 0 74 -21 74 -71c0 -21 -6 -37 -14 -52h-56c12 16 17 33 17 49c0 20 -11 28 -22 28c-12 0 -20 -10 -24 -23zM403 645c-34 -46 -89 -75 -151 -75
c-61 0 -116 29 -151 75l64 51c19 -28 50 -46 87 -46c36 0 68 17 87 46z" />
    <glyph glyph-name="uni1EB4.smcp" horiz-adv-x="504" 
d="M403 645c-34 -46 -89 -75 -151 -75c-61 0 -116 29 -151 75l64 51c19 -28 50 -46 87 -46c36 0 68 17 87 46zM163 550h178l170 -550h-161l-20 81h-155l-21 -81h-161zM299 211l-47 183l-47 -183h94zM302 706c-58 0 -72 59 -102 59c-15 0 -27 -16 -27 -53h-72
c0 84 36 134 102 134c58 0 72 -60 101 -60c16 0 28 17 28 54h71c0 -84 -36 -134 -101 -134z" />
    <glyph glyph-name="uni1EB6.smcp" horiz-adv-x="504" 
d="M163 550h178l170 -550h-161l-20 81h-155l-21 -81h-161zM299 211l-47 183l-47 -183h94zM253 -200c-40 0 -74 33 -74 74s34 75 74 75c41 0 75 -34 75 -75s-34 -74 -75 -74zM403 660c-34 -46 -89 -75 -151 -75c-61 0 -116 29 -151 75l64 51c19 -28 50 -46 87 -46
c36 0 68 17 87 46z" />
    <glyph glyph-name="AE.smcp" unicode="&#xf7e6;" horiz-adv-x="705" 
d="M673 0h-356v81h-130l-34 -81h-162l264 550h418v-128h-206v-79h200v-128h-200v-87h206v-128zM317 211v183l-78 -183h78z" />
    <glyph glyph-name="AEacute.smcp" unicode="&#xf670;" horiz-adv-x="705" 
d="M563 750l-134 -144h-94l103 144h125zM673 0h-356v81h-130l-34 -81h-162l264 550h418v-128h-206v-79h200v-128h-200v-87h206v-128zM317 211v183l-78 -183h78z" />
    <glyph glyph-name="uni1E02.smcp" horiz-adv-x="508" 
d="M322 0h-274v550h265c112 0 161 -70 161 -141c0 -65 -38 -109 -89 -125c59 -13 99 -68 99 -134c0 -81 -50 -150 -162 -150zM288 126c28 0 44 17 44 45c0 25 -16 45 -44 45h-90v-90h90zM283 343c26 0 39 16 39 40c0 23 -12 41 -39 41h-85v-81h85zM262 589
c-40 0 -74 33 -74 74s34 75 74 75c41 0 75 -34 75 -75s-34 -74 -75 -74z" />
    <glyph glyph-name="Cacute.smcp" unicode="&#xf671;" horiz-adv-x="495" 
d="M448 750l-134 -144h-94l103 144h125zM277 -12c-158 0 -253 120 -253 287c0 168 95 287 253 287c117 0 175 -77 205 -153l-123 -49c-15 42 -43 71 -82 71c-65 0 -101 -66 -101 -156c0 -89 36 -156 101 -156c40 0 69 30 82 72l123 -47c-29 -76 -87 -156 -205 -156z" />
    <glyph glyph-name="Ccaron.smcp" unicode="&#xf672;" horiz-adv-x="495" 
d="M343 606h-128l-78 144h82l60 -84l57 84h82zM277 -12c-158 0 -253 120 -253 287c0 168 95 287 253 287c117 0 175 -77 205 -153l-123 -49c-15 42 -43 71 -82 71c-65 0 -101 -66 -101 -156c0 -89 36 -156 101 -156c40 0 69 30 82 72l123 -47c-29 -76 -87 -156 -205 -156z
" />
    <glyph glyph-name="Ccedilla.smcp" unicode="&#xf7e7;" horiz-adv-x="495" 
d="M271 -197c-42 0 -81 15 -102 33l26 54c23 -18 49 -29 72 -29s43 11 43 30c0 14 -9 23 -23 23c-11 0 -20 -5 -27 -13l-50 29l23 61c-132 20 -209 133 -209 284c0 168 95 287 253 287c117 0 175 -77 205 -153l-123 -49c-15 42 -43 71 -82 71c-65 0 -101 -66 -101 -156
c0 -89 36 -156 101 -156c40 0 69 30 82 72l123 -47c-27 -71 -80 -145 -183 -155l-16 -39c10 6 19 10 32 10c35 0 64 -29 64 -71c0 -54 -47 -86 -108 -86z" />
    <glyph glyph-name="Ccircumflex.smcp" unicode="&#xf673;" horiz-adv-x="495" 
d="M418 606h-82l-60 83l-57 -83h-82l75 144h128zM277 -12c-158 0 -253 120 -253 287c0 168 95 287 253 287c117 0 175 -77 205 -153l-123 -49c-15 42 -43 71 -82 71c-65 0 -101 -66 -101 -156c0 -89 36 -156 101 -156c40 0 69 30 82 72l123 -47c-29 -76 -87 -156 -205 -156z
" />
    <glyph glyph-name="Cdotaccent.smcp" unicode="&#xf674;" horiz-adv-x="495" 
d="M277 -12c-158 0 -253 120 -253 287c0 168 95 287 253 287c117 0 175 -77 205 -153l-123 -49c-15 42 -43 71 -82 71c-65 0 -101 -66 -101 -156c0 -89 36 -156 101 -156c40 0 69 30 82 72l123 -47c-29 -76 -87 -156 -205 -156zM276 589c-40 0 -74 33 -74 74s34 75 74 75
c41 0 75 -34 75 -75s-34 -74 -75 -74z" />
    <glyph glyph-name="Dcaron.smcp" unicode="&#xf675;" horiz-adv-x="539" 
d="M332 606h-128l-78 144h82l60 -84l57 84h82zM253 0h-208v550h207c167 0 260 -112 260 -275c0 -164 -92 -275 -259 -275zM252 130c71 0 108 58 108 145c0 91 -34 145 -107 145h-58v-290h57z" />
    <glyph glyph-name="Dcroat.smcp" unicode="&#xf676;" horiz-adv-x="549" 
d="M263 0h-208v225h-44v100h44v225h207c167 0 260 -112 260 -275c0 -164 -92 -275 -259 -275zM280 225h-75v-95h57c71 0 108 58 108 145c0 91 -34 145 -107 145h-58v-95h75v-100z" />
    <glyph glyph-name="uni1E0A.smcp" horiz-adv-x="539" 
d="M256 0h-208v550h207c167 0 260 -112 260 -275c0 -164 -92 -275 -259 -275zM255 130c71 0 108 58 108 145c0 91 -34 145 -107 145h-58v-290h57zM274 589c-40 0 -74 33 -74 74s34 75 74 75c41 0 75 -34 75 -75s-34 -74 -75 -74z" />
    <glyph glyph-name="Eacute.smcp" unicode="&#xf7e9;" horiz-adv-x="436" 
d="M397 750l-134 -144h-94l103 144h125zM404 0h-356v550h356v-128h-206v-79h200v-128h-200v-87h206v-128z" />
    <glyph glyph-name="Ebreve.smcp" unicode="&#xf677;" horiz-adv-x="436" 
d="M404 0h-356v550h356v-128h-206v-79h200v-128h-200v-87h206v-128zM377 660c-34 -46 -89 -75 -151 -75c-61 0 -116 29 -151 75l64 51c19 -28 50 -46 87 -46c36 0 68 17 87 46z" />
    <glyph glyph-name="Ecaron.smcp" unicode="&#xf678;" horiz-adv-x="436" 
d="M292 606h-128l-78 144h82l60 -84l57 84h82zM404 0h-356v550h356v-128h-206v-79h200v-128h-200v-87h206v-128z" />
    <glyph glyph-name="Ecircumflex.smcp" unicode="&#xf7ea;" horiz-adv-x="436" 
d="M367 606h-82l-60 83l-57 -83h-82l75 144h128zM404 0h-356v550h356v-128h-206v-79h200v-128h-200v-87h206v-128z" />
    <glyph glyph-name="Edieresis.smcp" unicode="&#xf7eb;" horiz-adv-x="436" 
d="M399 663c0 -42 -34 -74 -76 -74c-40 0 -74 32 -74 74s34 75 74 75c42 0 76 -33 76 -75zM204 663c0 -41 -32 -74 -74 -74s-75 33 -75 74c0 42 33 75 75 75s74 -33 74 -75zM404 0h-356v550h356v-128h-206v-79h200v-128h-200v-87h206v-128z" />
    <glyph glyph-name="Edotaccent.smcp" unicode="&#xf679;" horiz-adv-x="436" 
d="M404 0h-356v550h356v-128h-206v-79h200v-128h-200v-87h206v-128zM228 589c-40 0 -74 33 -74 74s34 75 74 75c41 0 75 -34 75 -75s-34 -74 -75 -74z" />
    <glyph glyph-name="Egrave.smcp" unicode="&#xf7e8;" horiz-adv-x="436" 
d="M404 0h-356v550h356v-128h-206v-79h200v-128h-200v-87h206v-128zM282 606h-94l-134 144h125z" />
    <glyph glyph-name="Emacron.smcp" unicode="&#xf67a;" horiz-adv-x="436" 
d="M404 0h-356v550h356v-128h-206v-79h200v-128h-200v-87h206v-128zM383 608h-313v81h313v-81z" />
    <glyph glyph-name="Eogonek.smcp" unicode="&#xf67c;" horiz-adv-x="436" 
d="M402 -99l56 -33c-17 -32 -45 -54 -88 -54c-52 0 -95 27 -95 89c0 35 13 68 41 97h-268v550h356v-128h-206v-79h200v-128h-200v-87h206v-128c-41 -25 -60 -58 -60 -92c0 -26 13 -36 27 -36c16 0 26 12 31 29z" />
    <glyph glyph-name="uni1EB8.smcp" horiz-adv-x="436" 
d="M404 0h-356v550h356v-128h-206v-79h200v-128h-200v-87h206v-128zM227 -200c-40 0 -74 33 -74 74s34 75 74 75c41 0 75 -34 75 -75s-34 -74 -75 -74z" />
    <glyph glyph-name="uni1EBA.smcp" horiz-adv-x="436" 
d="M404 0h-356v550h356v-128h-206v-79h200v-128h-200v-87h206v-128zM203 634l-51 12c11 37 40 57 76 57c41 0 74 -21 74 -71c0 -21 -6 -37 -14 -52h-56c12 16 17 33 17 49c0 20 -11 28 -22 28c-12 0 -20 -10 -24 -23z" />
    <glyph glyph-name="uni1EBC.smcp" horiz-adv-x="436" 
d="M404 0h-356v550h356v-128h-206v-79h200v-128h-200v-87h206v-128zM277 604c-58 0 -72 59 -102 59c-15 0 -27 -16 -27 -53h-72c0 84 36 134 102 134c58 0 72 -60 101 -60c16 0 28 17 28 54h71c0 -84 -36 -134 -101 -134z" />
    <glyph glyph-name="uni1EBE.smcp" horiz-adv-x="436" 
d="M367 606h-82l-60 83l-57 -83h-82l75 144h128zM561 820l-134 -144h-94l103 144h125zM404 0h-356v550h356v-128h-206v-79h200v-128h-200v-87h206v-128z" />
    <glyph glyph-name="uni1EC0.smcp" horiz-adv-x="436" 
d="M367 606h-82l-60 83l-57 -83h-82l75 144h128zM404 0h-356v550h356v-128h-206v-79h200v-128h-200v-87h206v-128zM114 676h-94l-134 144h125z" />
    <glyph glyph-name="uni1EC2.smcp" horiz-adv-x="436" 
d="M368 606h-82l-60 83l-57 -83h-82l75 144h128zM404 0h-356v550h356v-128h-206v-79h200v-128h-200v-87h206v-128zM305 771l-51 12c11 37 40 57 76 57c41 0 74 -21 74 -71c0 -21 -6 -37 -14 -52h-56c12 16 17 33 17 49c0 20 -11 28 -22 28c-12 0 -20 -10 -24 -23z" />
    <glyph glyph-name="uni1EC4.smcp" horiz-adv-x="436" 
d="M366 573h-82l-60 83l-57 -83h-82l75 144h128zM404 0h-356v550h356v-128h-206v-79h200v-128h-200v-87h206v-128zM276 732c-58 0 -72 59 -102 59c-15 0 -27 -16 -27 -53h-72c0 84 36 134 102 134c58 0 72 -60 101 -60c16 0 28 17 28 54h71c0 -84 -36 -134 -101 -134z" />
    <glyph glyph-name="uni1EC6.smcp" horiz-adv-x="436" 
d="M368 606h-82l-60 83l-57 -83h-82l75 144h128zM404 0h-356v550h356v-128h-206v-79h200v-128h-200v-87h206v-128zM227 -200c-40 0 -74 33 -74 74s34 75 74 75c41 0 75 -34 75 -75s-34 -74 -75 -74z" />
    <glyph glyph-name="uni1E1E.smcp" horiz-adv-x="430" 
d="M230 589c-40 0 -74 33 -74 74s34 75 74 75c41 0 75 -34 75 -75s-34 -74 -75 -74zM198 0h-150v550h356v-128h-206v-79h200v-128h-200v-215z" />
    <glyph glyph-name="Gbreve.smcp" unicode="&#xf67d;" horiz-adv-x="518" 
d="M278 -12c-156 0 -254 116 -254 287c0 172 99 287 254 287c101 0 167 -64 198 -139l-121 -55c-14 35 -38 62 -77 62c-61 0 -101 -54 -101 -155c0 -100 40 -156 103 -156c29 0 51 11 64 24v53h-81v119h223v-234c-54 -58 -120 -93 -208 -93zM430 660
c-34 -46 -89 -75 -151 -75c-61 0 -116 29 -151 75l64 51c19 -28 50 -46 87 -46c36 0 68 17 87 46z" />
    <glyph glyph-name="Gcircumflex.smcp" unicode="&#xf67e;" horiz-adv-x="518" 
d="M278 -12c-156 0 -254 116 -254 287c0 172 99 287 254 287c101 0 167 -64 198 -139l-121 -55c-14 35 -38 62 -77 62c-61 0 -101 -54 -101 -155c0 -100 40 -156 103 -156c29 0 51 11 64 24v53h-81v119h223v-234c-54 -58 -120 -93 -208 -93zM419 606h-82l-60 83l-57 -83h-82
l75 144h128z" />
    <glyph glyph-name="Gcommaaccent.smcp" unicode="&#xf67f;" horiz-adv-x="518" 
d="M278 -12c-156 0 -254 116 -254 287c0 172 99 287 254 287c101 0 167 -64 198 -139l-121 -55c-14 35 -38 62 -77 62c-61 0 -101 -54 -101 -155c0 -100 40 -156 103 -156c29 0 51 11 64 24v53h-81v119h223v-234c-54 -58 -120 -93 -208 -93zM353 -139
c0 -62 -35 -117 -86 -154l-48 38c26 14 58 48 65 77c-3 -1 -10 -2 -16 -2c-32 0 -58 24 -58 60c0 38 31 68 68 68c39 0 75 -32 75 -87z" />
    <glyph glyph-name="Gdotaccent.smcp" unicode="&#xf680;" horiz-adv-x="518" 
d="M278 -12c-156 0 -254 116 -254 287c0 172 99 287 254 287c101 0 167 -64 198 -139l-121 -55c-14 35 -38 62 -77 62c-61 0 -101 -54 -101 -155c0 -100 40 -156 103 -156c29 0 51 11 64 24v53h-81v119h223v-234c-54 -58 -120 -93 -208 -93zM276 589c-40 0 -74 33 -74 74
s34 75 74 75c41 0 75 -34 75 -75s-34 -74 -75 -74z" />
    <glyph glyph-name="Gbreve.smcp.alt1" horiz-adv-x="526" 
d="M271 -12c-149 0 -247 116 -247 287c0 172 99 287 254 287c101 0 167 -64 198 -139l-121 -54c-14 34 -38 62 -77 62c-61 0 -101 -55 -101 -156c0 -100 40 -156 101 -156c41 0 71 37 80 77h-95v119h245c0 -200 -80 -327 -237 -327zM430 660c-34 -46 -89 -75 -151 -75
c-61 0 -116 29 -151 75l64 51c19 -28 50 -46 87 -46c36 0 68 17 87 46z" />
    <glyph glyph-name="Gcommaaccent.smcp.alt1" horiz-adv-x="526" 
d="M353 -139c0 -62 -35 -117 -86 -154l-48 38c26 14 58 48 65 77c-3 -1 -10 -2 -16 -2c-32 0 -58 24 -58 60c0 38 31 68 68 68c39 0 75 -32 75 -87zM271 -12c-149 0 -247 116 -247 287c0 172 99 287 254 287c101 0 167 -64 198 -139l-121 -54c-14 34 -38 62 -77 62
c-61 0 -101 -55 -101 -156c0 -100 40 -156 101 -156c41 0 71 37 80 77h-95v119h245c0 -200 -80 -327 -237 -327z" />
    <glyph glyph-name="Gcircumflex.smcp.alt1" horiz-adv-x="526" 
d="M414 606h-82l-60 83l-57 -83h-82l75 144h128zM271 -12c-149 0 -247 116 -247 287c0 172 99 287 254 287c101 0 167 -64 198 -139l-121 -54c-14 34 -38 62 -77 62c-61 0 -101 -55 -101 -156c0 -100 40 -156 101 -156c41 0 71 37 80 77h-95v119h245
c0 -200 -80 -327 -237 -327z" />
    <glyph glyph-name="Gdotaccent.smcp.alt1" horiz-adv-x="526" 
d="M271 -12c-149 0 -247 116 -247 287c0 172 99 287 254 287c101 0 167 -64 198 -139l-121 -54c-14 34 -38 62 -77 62c-61 0 -101 -55 -101 -156c0 -100 40 -156 101 -156c41 0 71 37 80 77h-95v119h245c0 -200 -80 -327 -237 -327zM277 589c-40 0 -74 33 -74 74
s34 75 74 75c41 0 75 -34 75 -75s-34 -74 -75 -74z" />
    <glyph glyph-name="Hbar.smcp" unicode="&#xf682;" horiz-adv-x="578" 
d="M520 0h-150v216h-161v-216h-150v410h-48v81h48v59h150v-59h161v59h150v-59h44v-81h-44v-410zM209 346h161v64h-161v-64z" />
    <glyph glyph-name="Hcircumflex.smcp" unicode="&#xf681;" horiz-adv-x="557" 
d="M419 606h-82l-60 83l-57 -83h-82l75 144h128zM509 0h-150v216h-161v-216h-150v550h150v-204h161v204h150v-550z" />
    <glyph glyph-name="uni1E22.smcp" horiz-adv-x="557" 
d="M509 0h-150v216h-161v-216h-150v550h150v-204h161v204h150v-550zM279 589c-40 0 -74 33 -74 74s34 75 74 75c41 0 75 -34 75 -75s-34 -74 -75 -74z" />
    <glyph glyph-name="Iacute.smcp" unicode="&#xf7ed;" horiz-adv-x="247" 
d="M294 750l-134 -144h-94l103 144h125zM198 0h-150v550h150v-550z" />
    <glyph glyph-name="Ibreve.smcp" unicode="&#xf683;" horiz-adv-x="247" 
d="M198 0h-150v550h150v-550zM275 660c-34 -46 -89 -75 -151 -75c-61 0 -116 29 -151 75l64 51c19 -28 50 -46 87 -46c36 0 68 17 87 46z" />
    <glyph glyph-name="Igrave.smcp" unicode="&#xf7ec;" horiz-adv-x="247" 
d="M198 0h-150v550h150v-550zM180 606h-94l-134 144h125z" />
    <glyph glyph-name="Icircumflex.smcp" unicode="&#xf7ee;" horiz-adv-x="247" 
d="M262 606h-82l-60 83l-57 -83h-82l75 144h128zM198 0h-150v550h150v-550z" />
    <glyph glyph-name="Idieresis.smcp" unicode="&#xf7ef;" horiz-adv-x="247" 
d="M295 663c0 -42 -34 -74 -76 -74c-40 0 -74 32 -74 74s34 75 74 75c42 0 76 -33 76 -75zM100 663c0 -41 -32 -74 -74 -74s-75 33 -75 74c0 42 33 75 75 75s74 -33 74 -75zM198 0h-150v550h150v-550z" />
    <glyph glyph-name="Idotaccent.smcp" unicode="&#xf6ad;" horiz-adv-x="247" 
d="M198 0h-150v550h150v-550zM123 589c-40 0 -74 33 -74 74s34 75 74 75c41 0 75 -34 75 -75s-34 -74 -75 -74z" />
    <glyph glyph-name="Imacron.smcp" unicode="&#xf685;" horiz-adv-x="247" 
d="M280 608h-313v81h313v-81zM198 0h-150v550h150v-550z" />
    <glyph glyph-name="Iogonek.smcp" unicode="&#xf686;" horiz-adv-x="247" 
d="M198 0c-41 -25 -60 -58 -60 -92c0 -26 13 -36 27 -36c16 0 26 12 31 29l56 -33c-17 -32 -45 -54 -88 -54c-52 0 -95 27 -95 89c0 35 13 68 41 97h-62v550h150v-550z" />
    <glyph glyph-name="Itilde.smcp" unicode="&#xf687;" horiz-adv-x="247" 
d="M198 0h-150v550h150v-550zM175 604c-58 0 -72 59 -102 59c-15 0 -27 -16 -27 -53h-72c0 84 36 134 102 134c58 0 72 -60 101 -60c16 0 28 17 28 54h71c0 -84 -36 -134 -101 -134z" />
    <glyph glyph-name="uni1EC8.smcp" horiz-adv-x="247" 
d="M198 0h-150v550h150v-550zM101 634l-51 12c11 37 40 57 76 57c41 0 74 -21 74 -71c0 -21 -6 -37 -14 -52h-56c12 16 17 33 17 49c0 20 -11 28 -22 28c-12 0 -20 -10 -24 -23z" />
    <glyph glyph-name="uni1ECA.smcp" horiz-adv-x="247" 
d="M198 0h-150v550h150v-550zM126 -200c-40 0 -74 33 -74 74s34 75 74 75c41 0 75 -34 75 -75s-34 -74 -75 -74z" />
    <glyph glyph-name="IJ.smcp" unicode="&#xf684;" horiz-adv-x="626" 
d="M378 -12c-45 0 -92 12 -127 42l46 117c17 -17 41 -28 65 -28c40 0 66 24 66 65v366h150v-383c0 -124 -80 -179 -200 -179zM198 0h-150v550h150v-550z" />
    <glyph glyph-name="Jcircumflex.smcp" unicode="&#xf688;" horiz-adv-x="380" 
d="M397 606h-82l-60 83l-57 -83h-82l75 144h128zM131 -12c-45 0 -92 12 -127 42l46 117c17 -17 41 -28 65 -28c40 0 66 24 66 65v366h150v-383c0 -124 -80 -179 -200 -179z" />
    <glyph glyph-name="Kcommaaccent.smcp" unicode="&#xf689;" horiz-adv-x="511" 
d="M333 -139c0 -62 -35 -117 -86 -154l-48 38c26 14 58 48 65 77c-3 -1 -10 -2 -16 -2c-32 0 -58 24 -58 60c0 38 31 68 68 68c39 0 75 -32 75 -87zM514 0h-174l-112 192l-30 -47v-145h-150v550h150v-213l133 213h172l-181 -258z" />
    <glyph glyph-name="Lacute.smcp" unicode="&#xf68a;" horiz-adv-x="406" 
d="M383 0h-335v550h150v-420h185v-130zM386 750l-134 -144h-94l103 144h125z" />
    <glyph glyph-name="Lcaron.smcp" unicode="&#xf68b;" horiz-adv-x="414" 
d="M384 472c0 -62 -35 -117 -86 -154l-48 38c26 14 58 48 65 77c-3 -1 -10 -2 -16 -2c-32 0 -58 24 -58 60c0 38 31 68 68 68c39 0 75 -32 75 -87zM383 0h-335v550h150v-420h185v-130z" />
    <glyph glyph-name="Lcommaaccent.smcp" unicode="&#xf68c;" horiz-adv-x="406" 
d="M290 -139c0 -62 -35 -117 -86 -154l-48 38c26 14 58 48 65 77c-3 -1 -10 -2 -16 -2c-32 0 -58 24 -58 60c0 38 31 68 68 68c39 0 75 -32 75 -87zM383 0h-335v550h150v-420h185v-130z" />
    <glyph glyph-name="Ldot.smcp" unicode="&#xf68d;" horiz-adv-x="474" 
d="M383 0h-335v550h150v-420h185v-130zM453 307c0 -48 -40 -89 -89 -89s-89 41 -89 89c0 49 40 90 89 90s89 -41 89 -90z" />
    <glyph glyph-name="Lslash.smcp" unicode="&#xf6f9;" horiz-adv-x="412" 
d="M11 137v130l43 25v258h150v-171l69 40v-131l-69 -40v-118h185v-130h-335v162z" />
    <glyph glyph-name="Nacute.smcp" unicode="&#xf68e;" horiz-adv-x="552" 
d="M446 750l-134 -144h-94l103 144h125zM504 0h-148l-158 279v-279h-150v550h158l148 -264v264h150v-550z" />
    <glyph glyph-name="Ncaron.smcp" unicode="&#xf68f;" horiz-adv-x="552" 
d="M341 606h-128l-78 144h82l60 -84l57 84h82zM504 0h-148l-158 279v-279h-150v550h158l148 -264v264h150v-550z" />
    <glyph glyph-name="Ncommaaccent.smcp" unicode="&#xf690;" horiz-adv-x="552" 
d="M353 -139c0 -62 -35 -117 -86 -154l-48 38c26 14 58 48 65 77c-3 -1 -10 -2 -16 -2c-32 0 -58 24 -58 60c0 38 31 68 68 68c39 0 75 -32 75 -87zM504 0h-148l-158 279v-279h-150v550h158l148 -264v264h150v-550z" />
    <glyph glyph-name="Ntilde.smcp" unicode="&#xf7f1;" horiz-adv-x="552" 
d="M504 0h-148l-158 279v-279h-150v550h158l148 -264v264h150v-550zM325 604c-58 0 -72 59 -102 59c-15 0 -27 -16 -27 -53h-72c0 84 36 134 102 134c58 0 72 -60 101 -60c16 0 28 17 28 54h71c0 -84 -36 -134 -101 -134z" />
    <glyph glyph-name="Eng.smcp" unicode="&#xf67b;" horiz-adv-x="552" 
d="M304 -196c-46 0 -92 12 -128 42l47 117c17 -17 41 -28 65 -28c40 0 66 24 66 65l-156 286v-286h-150v550h158l148 -271v271h150v-567c0 -124 -80 -179 -200 -179z" />
    <glyph glyph-name="Oacute.smcp" unicode="&#xf7f3;" horiz-adv-x="552" 
d="M275 -12c-158 0 -251 121 -251 287s93 287 251 287s252 -121 252 -287s-94 -287 -252 -287zM275 119c65 0 100 68 100 156s-35 156 -100 156c-64 0 -99 -68 -99 -156s35 -156 99 -156zM446 750l-134 -144h-94l103 144h125z" />
    <glyph glyph-name="Obreve.smcp" unicode="&#xf691;" horiz-adv-x="552" 
d="M275 -12c-158 0 -251 121 -251 287s93 287 251 287s252 -121 252 -287s-94 -287 -252 -287zM275 119c65 0 100 68 100 156s-35 156 -100 156c-64 0 -99 -68 -99 -156s35 -156 99 -156zM427 660c-34 -46 -89 -75 -151 -75c-61 0 -116 29 -151 75l64 51
c19 -28 50 -46 87 -46c36 0 68 17 87 46z" />
    <glyph glyph-name="Ocircumflex.smcp" unicode="&#xf7f4;" horiz-adv-x="552" 
d="M275 -12c-158 0 -251 121 -251 287s93 287 251 287s252 -121 252 -287s-94 -287 -252 -287zM275 119c65 0 100 68 100 156s-35 156 -100 156c-64 0 -99 -68 -99 -156s35 -156 99 -156zM417 606h-82l-60 83l-57 -83h-82l75 144h128z" />
    <glyph glyph-name="Odieresis.smcp" unicode="&#xf7f6;" horiz-adv-x="552" 
d="M275 -12c-158 0 -251 121 -251 287s93 287 251 287s252 -121 252 -287s-94 -287 -252 -287zM275 119c65 0 100 68 100 156s-35 156 -100 156c-64 0 -99 -68 -99 -156s35 -156 99 -156zM449 663c0 -42 -34 -74 -76 -74c-40 0 -74 32 -74 74s34 75 74 75
c42 0 76 -33 76 -75zM254 663c0 -41 -32 -74 -74 -74s-75 33 -75 74c0 42 33 75 75 75s74 -33 74 -75z" />
    <glyph glyph-name="Ograve.smcp" unicode="&#xf7f2;" horiz-adv-x="552" 
d="M275 -12c-158 0 -251 121 -251 287s93 287 251 287s252 -121 252 -287s-94 -287 -252 -287zM275 119c65 0 100 68 100 156s-35 156 -100 156c-64 0 -99 -68 -99 -156s35 -156 99 -156zM332 606h-94l-134 144h125z" />
    <glyph glyph-name="Ohungarumlaut.smcp" unicode="&#xf692;" horiz-adv-x="552" 
d="M275 -12c-158 0 -251 121 -251 287s93 287 251 287s252 -121 252 -287s-94 -287 -252 -287zM275 119c65 0 100 68 100 156s-35 156 -100 156c-64 0 -99 -68 -99 -156s35 -156 99 -156zM333 750l-99 -144h-78l68 144h109zM476 750l-99 -144h-78l68 144h109z" />
    <glyph glyph-name="Omacron.smcp" unicode="&#xf693;" horiz-adv-x="552" 
d="M275 -12c-158 0 -251 121 -251 287s93 287 251 287s252 -121 252 -287s-94 -287 -252 -287zM275 119c65 0 100 68 100 156s-35 156 -100 156c-64 0 -99 -68 -99 -156s35 -156 99 -156zM433 608h-313v81h313v-81z" />
    <glyph glyph-name="Otilde.smcp" unicode="&#xf7f5;" horiz-adv-x="552" 
d="M275 -12c-158 0 -251 121 -251 287s93 287 251 287s252 -121 252 -287s-94 -287 -252 -287zM275 119c65 0 100 68 100 156s-35 156 -100 156c-64 0 -99 -68 -99 -156s35 -156 99 -156zM327 604c-58 0 -72 59 -102 59c-15 0 -27 -16 -27 -53h-72c0 84 36 134 102 134
c58 0 72 -60 101 -60c16 0 28 17 28 54h71c0 -84 -36 -134 -101 -134z" />
    <glyph glyph-name="Oslash.smcp" unicode="&#xf7f8;" horiz-adv-x="552" 
d="M275 -12c-50 0 -93 12 -129 33l-15 -21h-95l51 73c-41 51 -63 121 -63 202c0 166 93 287 251 287c50 0 94 -13 130 -35l16 23h95l-52 -74c41 -51 63 -121 63 -201c0 -166 -94 -287 -252 -287zM176 275c0 -24 2 -46 7 -65l143 203c-14 11 -31 18 -51 18
c-64 0 -99 -68 -99 -156zM275 119c65 0 100 68 100 156c0 23 -3 44 -7 63l-142 -203c13 -10 30 -16 49 -16z" />
    <glyph glyph-name="Oslashacute.smcp" unicode="&#xf694;" horiz-adv-x="552" 
d="M275 -12c-50 0 -93 12 -129 33l-15 -21h-95l51 73c-41 51 -63 121 -63 202c0 166 93 287 251 287c50 0 94 -13 130 -35l16 23h95l-52 -74c41 -51 63 -121 63 -201c0 -166 -94 -287 -252 -287zM176 275c0 -24 2 -46 7 -65l143 203c-14 11 -31 18 -51 18
c-64 0 -99 -68 -99 -156zM275 119c65 0 100 68 100 156c0 23 -3 44 -7 63l-142 -203c13 -10 30 -16 49 -16zM446 750l-134 -144h-94l103 144h125z" />
    <glyph glyph-name="uni1ECC.smcp" horiz-adv-x="552" 
d="M275 -12c-158 0 -251 121 -251 287s93 287 251 287s252 -121 252 -287s-94 -287 -252 -287zM275 119c65 0 100 68 100 156s-35 156 -100 156c-64 0 -99 -68 -99 -156s35 -156 99 -156zM276 -200c-40 0 -74 33 -74 74s34 75 74 75c41 0 75 -34 75 -75s-34 -74 -75 -74z
" />
    <glyph glyph-name="uni1ECE.smcp" horiz-adv-x="552" 
d="M275 -12c-158 0 -251 121 -251 287s93 287 251 287s252 -121 252 -287s-94 -287 -252 -287zM275 119c65 0 100 68 100 156s-35 156 -100 156c-64 0 -99 -68 -99 -156s35 -156 99 -156zM252 639l-51 12c11 37 40 57 76 57c41 0 74 -21 74 -71c0 -21 -6 -37 -14 -52h-56
c12 16 17 33 17 49c0 20 -11 28 -22 28c-12 0 -20 -10 -24 -23z" />
    <glyph glyph-name="uni1ED0.smcp" horiz-adv-x="552" 
d="M275 -12c-158 0 -251 121 -251 287s93 287 251 287s252 -121 252 -287s-94 -287 -252 -287zM275 119c65 0 100 68 100 156s-35 156 -100 156c-64 0 -99 -68 -99 -156s35 -156 99 -156zM417 606h-82l-60 83l-57 -83h-82l75 144h128zM611 820l-134 -144h-94l103 144h125z
" />
    <glyph glyph-name="uni1ED2.smcp" horiz-adv-x="552" 
d="M275 -12c-158 0 -251 121 -251 287s93 287 251 287s252 -121 252 -287s-94 -287 -252 -287zM275 119c65 0 100 68 100 156s-35 156 -100 156c-64 0 -99 -68 -99 -156s35 -156 99 -156zM417 606h-82l-60 83l-57 -83h-82l75 144h128zM165 676h-94l-134 144h125z" />
    <glyph glyph-name="uni1ED4.smcp" horiz-adv-x="552" 
d="M275 -12c-158 0 -251 121 -251 287s93 287 251 287s252 -121 252 -287s-94 -287 -252 -287zM275 119c65 0 100 68 100 156s-35 156 -100 156c-64 0 -99 -68 -99 -156s35 -156 99 -156zM417 606h-82l-60 83l-57 -83h-82l75 144h128zM355 771l-51 12c11 37 40 57 76 57
c41 0 74 -21 74 -71c0 -21 -6 -37 -14 -52h-56c12 16 17 33 17 49c0 20 -11 28 -22 28c-12 0 -20 -10 -24 -23z" />
    <glyph glyph-name="uni1ED6.smcp" horiz-adv-x="552" 
d="M275 -12c-158 0 -251 121 -251 287s93 287 251 287s252 -121 252 -287s-94 -287 -252 -287zM275 119c65 0 100 68 100 156s-35 156 -100 156c-64 0 -99 -68 -99 -156s35 -156 99 -156zM418 573h-82l-60 83l-57 -83h-82l75 144h128zM328 732c-58 0 -72 59 -102 59
c-15 0 -27 -16 -27 -53h-72c0 84 36 134 102 134c58 0 72 -60 101 -60c16 0 28 17 28 54h71c0 -84 -36 -134 -101 -134z" />
    <glyph glyph-name="uni1ED8.smcp" horiz-adv-x="552" 
d="M275 -12c-158 0 -251 121 -251 287s93 287 251 287s252 -121 252 -287s-94 -287 -252 -287zM275 119c65 0 100 68 100 156s-35 156 -100 156c-64 0 -99 -68 -99 -156s35 -156 99 -156zM418 606h-82l-60 83l-57 -83h-82l75 144h128zM277 -200c-40 0 -74 33 -74 74
s34 75 74 75c41 0 75 -34 75 -75s-34 -74 -75 -74z" />
    <glyph glyph-name="Ohorn.smcp" horiz-adv-x="552" 
d="M275 -12c-158 0 -251 121 -251 287s93 287 251 287c83 0 148 -34 192 -90c15 14 28 34 33 51c-2 -1 -9 -2 -14 -2c-29 0 -51 22 -51 54c0 33 26 61 59 61c36 0 67 -29 67 -78c0 -52 -26 -99 -67 -131c21 -43 33 -95 33 -152c0 -166 -94 -287 -252 -287zM275 119
c65 0 100 68 100 156s-35 156 -100 156c-64 0 -99 -68 -99 -156s35 -156 99 -156z" />
    <glyph glyph-name="uni1EDA.smcp" horiz-adv-x="552" 
d="M275 -12c-158 0 -251 121 -251 287s93 287 251 287c83 0 148 -34 192 -90c15 14 28 34 33 51c-2 -1 -9 -2 -14 -2c-29 0 -51 22 -51 54c0 33 26 61 59 61c36 0 67 -29 67 -78c0 -52 -26 -99 -67 -131c21 -43 33 -95 33 -152c0 -166 -94 -287 -252 -287zM275 119
c65 0 100 68 100 156s-35 156 -100 156c-64 0 -99 -68 -99 -156s35 -156 99 -156zM446 750l-134 -144h-94l103 144h125z" />
    <glyph glyph-name="uni1EDC.smcp" horiz-adv-x="552" 
d="M275 -12c-158 0 -251 121 -251 287s93 287 251 287c83 0 148 -34 192 -90c15 14 28 34 33 51c-2 -1 -9 -2 -14 -2c-29 0 -51 22 -51 54c0 33 26 61 59 61c36 0 67 -29 67 -78c0 -52 -26 -99 -67 -131c21 -43 33 -95 33 -152c0 -166 -94 -287 -252 -287zM275 119
c65 0 100 68 100 156s-35 156 -100 156c-64 0 -99 -68 -99 -156s35 -156 99 -156zM332 606h-94l-134 144h125z" />
    <glyph glyph-name="uni1EDE.smcp" horiz-adv-x="552" 
d="M275 -12c-158 0 -251 121 -251 287s93 287 251 287c83 0 148 -34 192 -90c15 14 28 34 33 51c-2 -1 -9 -2 -14 -2c-29 0 -51 22 -51 54c0 33 26 61 59 61c36 0 67 -29 67 -78c0 -52 -26 -99 -67 -131c21 -43 33 -95 33 -152c0 -166 -94 -287 -252 -287zM275 119
c65 0 100 68 100 156s-35 156 -100 156c-64 0 -99 -68 -99 -156s35 -156 99 -156zM252 639l-51 12c11 37 40 57 76 57c41 0 74 -21 74 -71c0 -21 -6 -37 -14 -52h-56c12 16 17 33 17 49c0 20 -11 28 -22 28c-12 0 -20 -10 -24 -23z" />
    <glyph glyph-name="uni1EE0.smcp" horiz-adv-x="552" 
d="M275 -12c-158 0 -251 121 -251 287s93 287 251 287c83 0 148 -34 192 -90c15 14 28 34 33 51c-2 -1 -9 -2 -14 -2c-29 0 -51 22 -51 54c0 33 26 61 59 61c36 0 67 -29 67 -78c0 -52 -26 -99 -67 -131c21 -43 33 -95 33 -152c0 -166 -94 -287 -252 -287zM275 119
c65 0 100 68 100 156s-35 156 -100 156c-64 0 -99 -68 -99 -156s35 -156 99 -156zM326 604c-58 0 -72 59 -102 59c-15 0 -27 -16 -27 -53h-72c0 84 36 134 102 134c58 0 72 -60 101 -60c16 0 28 17 28 54h71c0 -84 -36 -134 -101 -134z" />
    <glyph glyph-name="uni1EE2.smcp" horiz-adv-x="552" 
d="M275 -12c-158 0 -251 121 -251 287s93 287 251 287c83 0 148 -34 192 -90c15 14 28 34 33 51c-2 -1 -9 -2 -14 -2c-29 0 -51 22 -51 54c0 33 26 61 59 61c36 0 67 -29 67 -78c0 -52 -26 -99 -67 -131c21 -43 33 -95 33 -152c0 -166 -94 -287 -252 -287zM275 119
c65 0 100 68 100 156s-35 156 -100 156c-64 0 -99 -68 -99 -156s35 -156 99 -156zM276 -200c-40 0 -74 33 -74 74s34 75 74 75c41 0 75 -34 75 -75s-34 -74 -75 -74z" />
    <glyph glyph-name="OE.smcp" unicode="&#xf6fa;" horiz-adv-x="751" 
d="M718 0h-355v44c-29 -40 -75 -56 -121 -56c-136 0 -218 121 -218 287s82 287 218 287c46 0 92 -17 121 -56v44h355v-130h-205v-76h199v-130h-199v-84h205v-130zM363 189v173c-17 46 -48 69 -86 69c-67 0 -101 -68 -101 -156s34 -156 101 -156c39 0 69 24 86 70z" />
    <glyph glyph-name="uni1E56.smcp" horiz-adv-x="491" 
d="M198 0h-150v550h242c122 0 186 -85 186 -185s-61 -184 -186 -184h-92v-181zM272 311c34 0 52 23 52 54c0 32 -19 55 -52 55h-74v-109h74zM260 589c-40 0 -74 33 -74 74s34 75 74 75c41 0 75 -34 75 -75s-34 -74 -75 -74z" />
    <glyph glyph-name="Racute.smcp" unicode="&#xf695;" horiz-adv-x="508" 
d="M432 750l-134 -144h-94l103 144h125zM481 0h-164l-71 181h-48v-181h-150v550h243c118 0 185 -83 185 -184c0 -94 -50 -143 -92 -161zM272 311c34 0 53 23 53 54c0 32 -20 55 -53 55h-74v-109h74z" />
    <glyph glyph-name="Rcaron.smcp" unicode="&#xf696;" horiz-adv-x="508" 
d="M314 606h-128l-78 144h82l60 -84l57 84h82zM481 0h-164l-71 181h-48v-181h-150v550h243c118 0 185 -83 185 -184c0 -94 -50 -143 -92 -161zM272 311c34 0 53 23 53 54c0 32 -20 55 -53 55h-74v-109h74z" />
    <glyph glyph-name="Rcommaaccent.smcp" unicode="&#xf697;" horiz-adv-x="508" 
d="M324 -139c0 -62 -35 -117 -86 -154l-48 38c26 14 58 48 65 77c-3 -1 -10 -2 -16 -2c-32 0 -58 24 -58 60c0 38 31 68 68 68c39 0 75 -32 75 -87zM481 0h-164l-71 181h-48v-181h-150v550h243c118 0 185 -83 185 -184c0 -94 -50 -143 -92 -161zM272 311c34 0 53 23 53 54
c0 32 -20 55 -53 55h-74v-109h74z" />
    <glyph glyph-name="Sacute.smcp" unicode="&#xf698;" horiz-adv-x="449" 
d="M398 750l-134 -144h-94l103 144h125zM219 -12c-89 0 -159 27 -207 70l61 114c33 -34 89 -59 143 -59c40 0 64 17 64 44c0 71 -249 45 -249 236c0 90 74 169 204 169c78 0 140 -23 190 -64l-61 -107c-34 30 -84 46 -125 46c-34 0 -55 -16 -55 -40c0 -65 249 -42 249 -234
c0 -106 -80 -175 -214 -175z" />
    <glyph glyph-name="Scaron.smcp" unicode="&#xf6fd;" horiz-adv-x="449" 
d="M296 606h-128l-78 144h82l60 -84l57 84h82zM219 -12c-89 0 -159 27 -207 70l61 114c33 -34 89 -59 143 -59c40 0 64 17 64 44c0 71 -249 45 -249 236c0 90 74 169 204 169c78 0 140 -23 190 -64l-61 -107c-34 30 -84 46 -125 46c-34 0 -55 -16 -55 -40
c0 -65 249 -42 249 -234c0 -106 -80 -175 -214 -175z" />
    <glyph glyph-name="Scircumflex.smcp" unicode="&#xf69a;" horiz-adv-x="449" 
d="M371 606h-82l-60 83l-57 -83h-82l75 144h128zM219 -12c-89 0 -159 27 -207 70l61 114c33 -34 89 -59 143 -59c40 0 64 17 64 44c0 71 -249 45 -249 236c0 90 74 169 204 169c78 0 140 -23 190 -64l-61 -107c-34 30 -84 46 -125 46c-34 0 -55 -16 -55 -40
c0 -65 249 -42 249 -234c0 -106 -80 -175 -214 -175z" />
    <glyph glyph-name="Scedilla.smcp" unicode="&#xf699;" horiz-adv-x="449" 
d="M222 -197c-42 0 -81 15 -102 33l26 54c23 -18 49 -29 72 -29s43 11 43 30c0 14 -9 23 -23 23c-11 0 -20 -5 -27 -13l-50 29l22 60c-72 6 -130 31 -171 68l61 114c33 -34 89 -59 143 -59c40 0 64 17 64 44c0 71 -249 45 -249 236c0 90 74 169 204 169
c78 0 140 -23 190 -64l-61 -107c-34 30 -84 46 -125 46c-34 0 -55 -16 -55 -40c0 -65 249 -42 249 -234c0 -98 -68 -163 -183 -173l-16 -40c10 6 19 10 32 10c35 0 64 -29 64 -71c0 -54 -47 -86 -108 -86z" />
    <glyph glyph-name="Scommaaccent.smcp" unicode="&#xf69b;" horiz-adv-x="449" 
d="M302 -139c0 -62 -35 -117 -86 -154l-48 38c26 14 58 48 65 77c-3 -1 -10 -2 -16 -2c-32 0 -58 24 -58 60c0 38 31 68 68 68c39 0 75 -32 75 -87zM219 -12c-89 0 -159 27 -207 70l61 114c33 -34 89 -59 143 -59c40 0 64 17 64 44c0 71 -249 45 -249 236
c0 90 74 169 204 169c78 0 140 -23 190 -64l-61 -107c-34 30 -84 46 -125 46c-34 0 -55 -16 -55 -40c0 -65 249 -42 249 -234c0 -106 -80 -175 -214 -175z" />
    <glyph glyph-name="uni1E60.smcp" horiz-adv-x="449" 
d="M219 -12c-89 0 -159 27 -207 70l61 114c33 -34 89 -59 143 -59c40 0 64 17 64 44c0 71 -249 45 -249 236c0 90 74 169 204 169c78 0 140 -23 190 -64l-61 -107c-34 30 -84 46 -125 46c-34 0 -55 -16 -55 -40c0 -65 249 -42 249 -234c0 -106 -80 -175 -214 -175zM232 589
c-40 0 -74 33 -74 74s34 75 74 75c41 0 75 -34 75 -75s-34 -74 -75 -74z" />
    <glyph glyph-name="Tbar.smcp" unicode="&#xf69c;" horiz-adv-x="412" 
d="M281 0h-150v195h-72v81h72v144h-115v130h379v-130h-114v-144h67v-81h-67v-195z" />
    <glyph glyph-name="Tcaron.smcp" unicode="&#xf69d;" horiz-adv-x="412" 
d="M272 606h-128l-78 144h82l60 -84l57 84h82zM281 0h-150v420h-115v130h379v-130h-114v-420z" />
    <glyph glyph-name="Tcommaaccent.smcp" unicode="&#xf69e;" horiz-adv-x="412" 
d="M281 -139c0 -62 -35 -117 -86 -154l-48 38c26 14 58 48 65 77c-3 -1 -10 -2 -16 -2c-32 0 -58 24 -58 60c0 38 31 68 68 68c39 0 75 -32 75 -87zM281 0h-150v420h-115v130h379v-130h-114v-420z" />
    <glyph glyph-name="uni021A.smcp" horiz-adv-x="412" 
d="M281 -139c0 -62 -35 -117 -86 -154l-48 38c26 14 58 48 65 77c-3 -1 -10 -2 -16 -2c-32 0 -58 24 -58 60c0 38 31 68 68 68c39 0 75 -32 75 -87zM281 0h-150v420h-115v130h379v-130h-114v-420z" />
    <glyph glyph-name="uni1E6A.smcp" horiz-adv-x="412" 
d="M281 0h-150v420h-115v130h379v-130h-114v-420zM209 589c-40 0 -74 33 -74 74s34 75 74 75c41 0 75 -34 75 -75s-34 -74 -75 -74z" />
    <glyph glyph-name="Uacute.smcp" unicode="&#xf7fa;" horiz-adv-x="556" 
d="M449 750l-134 -144h-94l103 144h125zM278 -12c-142 0 -230 79 -230 218v344h151v-344c0 -53 28 -87 79 -87s79 34 79 87v344h151v-343c0 -140 -87 -219 -230 -219z" />
    <glyph glyph-name="Ubreve.smcp" unicode="&#xf69f;" horiz-adv-x="556" 
d="M278 -12c-142 0 -230 79 -230 218v344h151v-344c0 -53 28 -87 79 -87s79 34 79 87v344h151v-343c0 -140 -87 -219 -230 -219zM430 660c-34 -46 -89 -75 -151 -75c-61 0 -116 29 -151 75l64 51c19 -28 50 -46 87 -46c36 0 68 17 87 46z" />
    <glyph glyph-name="Ucircumflex.smcp" unicode="&#xf7fb;" horiz-adv-x="556" 
d="M419 606h-82l-60 83l-57 -83h-82l75 144h128zM278 -12c-142 0 -230 79 -230 218v344h151v-344c0 -53 28 -87 79 -87s79 34 79 87v344h151v-343c0 -140 -87 -219 -230 -219z" />
    <glyph glyph-name="Udieresis.smcp" unicode="&#xf7fc;" horiz-adv-x="556" 
d="M450 663c0 -42 -34 -74 -76 -74c-40 0 -74 32 -74 74s34 75 74 75c42 0 76 -33 76 -75zM255 663c0 -41 -32 -74 -74 -74s-75 33 -75 74c0 42 33 75 75 75s74 -33 74 -75zM278 -12c-142 0 -230 79 -230 218v344h151v-344c0 -53 28 -87 79 -87s79 34 79 87v344h151v-343
c0 -140 -87 -219 -230 -219z" />
    <glyph glyph-name="Ugrave.smcp" unicode="&#xf7f9;" horiz-adv-x="556" 
d="M278 -12c-142 0 -230 79 -230 218v344h151v-344c0 -53 28 -87 79 -87s79 34 79 87v344h151v-343c0 -140 -87 -219 -230 -219zM335 606h-94l-134 144h125z" />
    <glyph glyph-name="Uhungarumlaut.smcp" unicode="&#xf6a0;" horiz-adv-x="556" 
d="M278 -12c-142 0 -230 79 -230 218v344h151v-344c0 -53 28 -87 79 -87s79 34 79 87v344h151v-343c0 -140 -87 -219 -230 -219zM334 750l-99 -144h-78l68 144h109zM477 750l-99 -144h-78l68 144h109z" />
    <glyph glyph-name="Umacron.smcp" unicode="&#xf6a1;" horiz-adv-x="556" 
d="M278 -12c-142 0 -230 79 -230 218v344h151v-344c0 -53 28 -87 79 -87s79 34 79 87v344h151v-343c0 -140 -87 -219 -230 -219zM435 608h-313v81h313v-81z" />
    <glyph glyph-name="Uogonek.smcp" unicode="&#xf6a2;" horiz-adv-x="556" 
d="M364 -99l56 -33c-17 -32 -45 -54 -88 -54c-52 0 -95 27 -95 89c0 30 10 59 31 85c-136 4 -220 82 -220 218v344h151v-344c0 -53 28 -87 79 -87s79 34 79 87v344h151v-343c0 -109 -52 -180 -142 -207c-41 -25 -60 -58 -60 -92c0 -26 13 -36 27 -36c16 0 26 12 31 29z" />
    <glyph glyph-name="Uring.smcp" unicode="&#xf6a3;" horiz-adv-x="556" 
d="M278 -12c-142 0 -230 79 -230 218v344h151v-344c0 -53 28 -87 79 -87s79 34 79 87v344h151v-343c0 -140 -87 -219 -230 -219zM279 573c-55 0 -100 46 -100 101s45 100 100 100s99 -45 99 -100s-44 -101 -99 -101zM279 636c21 0 37 17 37 38s-16 38 -37 38
c-20 0 -38 -17 -38 -38s18 -38 38 -38z" />
    <glyph glyph-name="Utilde.smcp" unicode="&#xf6a4;" horiz-adv-x="556" 
d="M278 -12c-142 0 -230 79 -230 218v344h151v-344c0 -53 28 -87 79 -87s79 34 79 87v344h151v-343c0 -140 -87 -219 -230 -219zM329 604c-58 0 -72 59 -102 59c-15 0 -27 -16 -27 -53h-72c0 84 36 134 102 134c58 0 72 -60 101 -60c16 0 28 17 28 54h71
c0 -84 -36 -134 -101 -134z" />
    <glyph glyph-name="uni1EE4.smcp" horiz-adv-x="556" 
d="M278 -12c-142 0 -230 79 -230 218v344h151v-344c0 -53 28 -87 79 -87s79 34 79 87v344h151v-343c0 -140 -87 -219 -230 -219zM277 -200c-40 0 -74 33 -74 74s34 75 74 75c41 0 75 -34 75 -75s-34 -74 -75 -74z" />
    <glyph glyph-name="Uhorn.smcp" horiz-adv-x="556" 
d="M278 -12c-142 0 -230 79 -230 218v344h151v-344c0 -53 28 -87 79 -87s79 34 79 87v344h151v-26c16 15 29 35 34 52c-2 -1 -9 -2 -15 -2c-29 0 -51 22 -51 54c0 33 27 61 60 61c35 0 67 -29 67 -78c0 -54 -31 -112 -95 -149v-255c0 -140 -87 -219 -230 -219z" />
    <glyph glyph-name="uni1EE6.smcp" horiz-adv-x="556" 
d="M278 -12c-142 0 -230 79 -230 218v344h151v-344c0 -53 28 -87 79 -87s79 34 79 87v344h151v-343c0 -140 -87 -219 -230 -219zM253 634l-51 12c11 37 40 57 76 57c41 0 74 -21 74 -71c0 -21 -6 -37 -14 -52h-56c12 16 17 33 17 49c0 20 -11 28 -22 28
c-12 0 -20 -10 -24 -23z" />
    <glyph glyph-name="uni1EE8.smcp" horiz-adv-x="556" 
d="M449 750l-134 -144h-94l103 144h125zM278 -12c-142 0 -230 79 -230 218v344h151v-344c0 -53 28 -87 79 -87s79 34 79 87v344h151v-26c16 15 29 35 34 52c-2 -1 -9 -2 -15 -2c-29 0 -51 22 -51 54c0 33 27 61 60 61c35 0 67 -29 67 -78c0 -54 -31 -112 -95 -149v-255
c0 -140 -87 -219 -230 -219z" />
    <glyph glyph-name="uni1EEA.smcp" horiz-adv-x="556" 
d="M335 606h-94l-134 144h125zM278 -12c-142 0 -230 79 -230 218v344h151v-344c0 -53 28 -87 79 -87s79 34 79 87v344h151v-26c16 15 29 35 34 52c-2 -1 -9 -2 -15 -2c-29 0 -51 22 -51 54c0 33 27 61 60 61c35 0 67 -29 67 -78c0 -54 -31 -112 -95 -149v-255
c0 -140 -87 -219 -230 -219z" />
    <glyph glyph-name="uni1EEC.smcp" horiz-adv-x="556" 
d="M254 634l-51 12c11 37 40 57 76 57c41 0 74 -21 74 -71c0 -21 -6 -37 -14 -52h-56c12 16 17 33 17 49c0 20 -11 28 -22 28c-12 0 -20 -10 -24 -23zM278 -12c-142 0 -230 79 -230 218v344h151v-344c0 -53 28 -87 79 -87s79 34 79 87v344h151v-26c16 15 29 35 34 52
c-2 -1 -9 -2 -15 -2c-29 0 -51 22 -51 54c0 33 27 61 60 61c35 0 67 -29 67 -78c0 -54 -31 -112 -95 -149v-255c0 -140 -87 -219 -230 -219z" />
    <glyph glyph-name="uni1EEE.smcp" horiz-adv-x="556" 
d="M278 -12c-142 0 -230 79 -230 218v344h151v-344c0 -53 28 -87 79 -87s79 34 79 87v344h151v-26c16 15 29 35 34 52c-2 -1 -9 -2 -15 -2c-29 0 -51 22 -51 54c0 33 27 61 60 61c35 0 67 -29 67 -78c0 -54 -31 -112 -95 -149v-255c0 -140 -87 -219 -230 -219zM329 604
c-58 0 -72 59 -102 59c-15 0 -27 -16 -27 -53h-72c0 84 36 134 102 134c58 0 72 -60 101 -60c16 0 28 17 28 54h71c0 -84 -36 -134 -101 -134z" />
    <glyph glyph-name="uni1EF0.smcp" horiz-adv-x="556" 
d="M278 -200c-40 0 -74 33 -74 74s34 75 74 75c41 0 75 -34 75 -75s-34 -74 -75 -74zM278 -12c-142 0 -230 79 -230 218v344h151v-344c0 -53 28 -87 79 -87s79 34 79 87v344h151v-26c16 15 29 35 34 52c-2 -1 -9 -2 -15 -2c-29 0 -51 22 -51 54c0 33 27 61 60 61
c35 0 67 -29 67 -78c0 -54 -31 -112 -95 -149v-255c0 -140 -87 -219 -230 -219z" />
    <glyph glyph-name="Wacute.smcp" horiz-adv-x="692" 
d="M559 0h-153l-60 300l-60 -300h-153l-135 550h161l60 -319l70 319h115l70 -320l60 320h160zM517 750l-134 -144h-94l103 144h125z" />
    <glyph glyph-name="Wcircumflex.smcp" unicode="&#xf6a6;" horiz-adv-x="692" 
d="M487 606h-82l-60 83l-57 -83h-82l75 144h128zM559 0h-153l-60 300l-60 -300h-153l-135 550h161l60 -319l70 319h115l70 -320l60 320h160z" />
    <glyph glyph-name="Wdieresis.smcp" horiz-adv-x="692" 
d="M559 0h-153l-60 300l-60 -300h-153l-135 550h161l60 -319l70 319h115l70 -320l60 320h160zM518 663c0 -42 -34 -74 -76 -74c-40 0 -74 32 -74 74s34 75 74 75c42 0 76 -33 76 -75zM323 663c0 -41 -32 -74 -74 -74s-75 33 -75 74c0 42 33 75 75 75s74 -33 74 -75z" />
    <glyph glyph-name="Wgrave.smcp" horiz-adv-x="692" 
d="M559 0h-153l-60 300l-60 -300h-153l-135 550h161l60 -319l70 319h115l70 -320l60 320h160zM403 606h-94l-134 144h125z" />
    <glyph glyph-name="Yacute.smcp" unicode="&#xf7fd;" horiz-adv-x="490" 
d="M416 750l-134 -144h-94l103 144h125zM320 0h-149v224l-179 326h163l90 -191l90 191h163l-178 -326v-224z" />
    <glyph glyph-name="Ycircumflex.smcp" unicode="&#xf6a9;" horiz-adv-x="490" 
d="M386 606h-82l-60 83l-57 -83h-82l75 144h128zM320 0h-149v224l-179 326h163l90 -191l90 191h163l-178 -326v-224z" />
    <glyph glyph-name="Ydieresis.smcp" unicode="&#xf7ff;" horiz-adv-x="490" 
d="M418 663c0 -42 -34 -74 -76 -74c-40 0 -74 32 -74 74s34 75 74 75c42 0 76 -33 76 -75zM223 663c0 -41 -32 -74 -74 -74s-75 33 -75 74c0 42 33 75 75 75s74 -33 74 -75zM320 0h-149v224l-179 326h163l90 -191l90 191h163l-178 -326v-224z" />
    <glyph glyph-name="Ygrave.smcp" horiz-adv-x="490" 
d="M320 0h-149v224l-179 326h163l90 -191l90 191h163l-178 -326v-224zM302 606h-94l-134 144h125z" />
    <glyph glyph-name="Zacute.smcp" unicode="&#xf6ab;" horiz-adv-x="432" 
d="M387 750l-134 -144h-94l103 144h125zM404 0h-376v110l179 310h-179v130h370v-108l-179 -312h185v-130z" />
    <glyph glyph-name="Zcaron.smcp" unicode="&#xf6ff;" horiz-adv-x="432" 
d="M280 606h-128l-78 144h82l60 -84l57 84h82zM404 0h-376v110l179 310h-179v130h370v-108l-179 -312h185v-130z" />
    <glyph glyph-name="Zdotaccent.smcp" unicode="&#xf6ac;" horiz-adv-x="432" 
d="M404 0h-376v110l179 310h-179v130h370v-108l-179 -312h185v-130zM223 589c-40 0 -74 33 -74 74s34 75 74 75c41 0 75 -34 75 -75s-34 -74 -75 -74z" />
    <glyph glyph-name="Eth.smcp" unicode="&#xf7f0;" horiz-adv-x="551" 
d="M263 0h-208v225h-44v100h44v225h207c167 0 260 -112 260 -275c0 -164 -92 -275 -259 -275zM280 225h-75v-95h57c71 0 108 58 108 145c0 91 -34 145 -107 145h-58v-95h75v-100z" />
    <glyph glyph-name="Thorn.smcp" unicode="&#xf7fe;" horiz-adv-x="491" 
d="M198 0h-150v550h150v-78h92c122 0 186 -85 186 -185s-61 -185 -186 -185h-92v-102zM272 232c34 0 52 24 52 55s-18 56 -52 56h-74v-111h74z" />
    <glyph glyph-name="acute" unicode="&#xb4;" horiz-adv-x="228" 
d="M228 700l-134 -144h-94l103 144h125z" />
    <glyph glyph-name="dieresis" unicode="&#xa8;" horiz-adv-x="295" 
d="M320 613c0 -42 -34 -74 -76 -74c-40 0 -74 32 -74 74s34 75 74 75c42 0 76 -33 76 -75zM125 613c0 -41 -32 -74 -74 -74s-75 33 -75 74c0 42 33 75 75 75s74 -33 74 -75z" />
    <glyph glyph-name="grave" unicode="`" horiz-adv-x="228" 
d="M228 556h-94l-134 144h125z" />
    <glyph glyph-name="uni02CB" unicode="&#x2cb;" horiz-adv-x="228" 
d="M228 556h-94l-134 144h125z" />
    <glyph glyph-name="circumflex" unicode="&#x2c6;" horiz-adv-x="281" 
d="M281 556h-82l-60 83l-57 -83h-82l75 144h128z" />
    <glyph glyph-name="tilde" unicode="&#x2dc;" horiz-adv-x="302" 
d="M201 554c-58 0 -72 59 -102 59c-15 0 -27 -16 -27 -53h-72c0 84 36 134 102 134c58 0 72 -60 101 -60c16 0 28 17 28 54h71c0 -84 -36 -134 -101 -134z" />
    <glyph glyph-name="macron" unicode="&#xaf;" horiz-adv-x="313" 
d="M313 558h-313v81h313v-81z" />
    <glyph glyph-name="uni203E" unicode="&#x203e;" horiz-adv-x="313" 
d="M313 558h-313v81h313v-81z" />
    <glyph glyph-name="breve" unicode="&#x2d8;" horiz-adv-x="302" 
d="M302 610c-34 -46 -89 -75 -151 -75c-61 0 -116 29 -151 75l64 51c19 -28 50 -46 87 -46c36 0 68 17 87 46z" />
    <glyph glyph-name="dotaccent" unicode="&#x2d9;" horiz-adv-x="194" 
d="M97 539c-40 0 -74 33 -74 74s34 75 74 75c41 0 75 -34 75 -75s-34 -74 -75 -74z" />
    <glyph glyph-name="ring" unicode="&#x2da;" horiz-adv-x="199" 
d="M100 528c-55 0 -100 46 -100 101s45 100 100 100s99 -45 99 -100s-44 -101 -99 -101zM100 591c21 0 37 17 37 38s-16 38 -37 38c-20 0 -38 -17 -38 -38s18 -38 38 -38z" />
    <glyph glyph-name="cedilla" unicode="&#xb8;" horiz-adv-x="210" 
d="M102 -197c-42 0 -81 15 -102 33l26 54c23 -18 49 -29 72 -29s43 11 43 30c0 14 -9 23 -23 23c-11 0 -20 -5 -27 -13l-50 29l31 81h68l-26 -61c10 6 19 10 32 10c35 0 64 -29 64 -71c0 -54 -47 -86 -108 -86z" />
    <glyph glyph-name="hungarumlaut" unicode="&#x2dd;" horiz-adv-x="320" 
d="M177 700l-99 -144h-78l68 144h109zM320 700l-99 -144h-78l68 144h109z" />
    <glyph glyph-name="ogonek" unicode="&#x2db;" horiz-adv-x="183" 
d="M127 -99l56 -33c-17 -32 -45 -54 -88 -54c-52 0 -95 27 -95 89c0 48 26 92 80 129l49 -32c-41 -25 -60 -58 -60 -92c0 -26 13 -36 27 -36c16 0 26 12 31 29z" />
    <glyph glyph-name="caron" unicode="&#x2c7;" horiz-adv-x="281" 
d="M206 556h-128l-78 144h82l60 -84l57 84h82z" />
    <glyph glyph-name="commaaccent" unicode="&#xf6c3;" horiz-adv-x="265" 
d="M206 -139c0 -62 -35 -117 -86 -154l-48 38c26 14 58 48 65 77c-3 -1 -10 -2 -16 -2c-32 0 -58 24 -58 60c0 38 31 68 68 68c39 0 75 -32 75 -87z" />
    <glyph glyph-name="uni02C9" unicode="&#x2c9;" horiz-adv-x="313" 
d="M313 591h-313v80h313v-80z" />
    <glyph glyph-name="hookabovecomb" unicode="&#x309;" horiz-adv-x="183" 
d="M65 721l-51 12c11 37 40 57 76 57c41 0 74 -21 74 -71c0 -21 -6 -37 -14 -52h-56c12 16 17 33 17 49c0 20 -11 28 -22 28c-12 0 -20 -10 -24 -23z" />
    <glyph glyph-name="Alpha" unicode="&#x391;" horiz-adv-x="575" 
d="M582 0h-175l-25 102h-189l-25 -102h-175l197 667h195zM350 243l-62 256l-63 -256h125z" />
    <glyph glyph-name="Beta" unicode="&#x392;" horiz-adv-x="579" 
d="M367 0h-314v667h304c126 0 182 -84 182 -170c0 -83 -47 -138 -110 -153c69 -11 121 -80 121 -163c0 -98 -57 -181 -183 -181zM317 408c37 0 57 23 57 60c0 36 -20 60 -57 60h-102v-120h102zM322 139c40 0 63 23 63 65c0 38 -23 65 -63 65h-107v-130h107z" />
    <glyph glyph-name="Gamma" unicode="&#x393;" horiz-adv-x="485" 
d="M215 0h-162v667h402v-141h-240v-526z" />
    <glyph glyph-name="uni0394" unicode="&#x394;" horiz-adv-x="581" 
d="M588 0h-595l200 667h195zM380 141l-89 358l-90 -358h179z" />
    <glyph glyph-name="Delta" unicode="&#x2206;" horiz-adv-x="581" 
d="M588 0h-595l200 667h195zM380 141l-89 358l-90 -358h179z" />
    <glyph glyph-name="Epsilon" unicode="&#x395;" horiz-adv-x="491" 
d="M455 0h-402v667h402v-141h-240v-117h233v-141h-233v-127h240v-141z" />
    <glyph glyph-name="Zeta" unicode="&#x396;" horiz-adv-x="495" 
d="M462 0h-429v132l223 394h-223v141h422v-129l-225 -397h232v-141z" />
    <glyph glyph-name="Eta" unicode="&#x397;" horiz-adv-x="625" 
d="M571 0h-162v272h-194v-272h-162v667h162v-253h194v253h162v-667z" />
    <glyph glyph-name="Theta" unicode="&#x398;" horiz-adv-x="633" 
d="M410 268h-187v141h187v-141zM316 -12c-180 0 -291 144 -291 345s111 345 291 345s291 -144 291 -345s-111 -345 -291 -345zM316 131c82 0 127 87 127 202c0 116 -45 202 -127 202c-81 0 -126 -86 -126 -202c0 -115 45 -202 126 -202z" />
    <glyph glyph-name="Iota" unicode="&#x399;" horiz-adv-x="268" 
d="M215 0h-162v667h162v-667z" />
    <glyph glyph-name="Kappa" unicode="&#x39a;" horiz-adv-x="575" 
d="M581 0h-191l-133 244l-42 -70v-174h-162v667h162v-282l165 282h188l-209 -312z" />
    <glyph glyph-name="Lambda" unicode="&#x39b;" horiz-adv-x="575" 
d="M582 0h-175l-119 499l-120 -499h-175l197 667h195z" />
    <glyph glyph-name="Mu" unicode="&#x39c;" horiz-adv-x="761" 
d="M708 0h-161v396l-135 -396h-63l-134 396v-396h-162v667h215l113 -333l114 333h213v-667z" />
    <glyph glyph-name="Nu" unicode="&#x39d;" horiz-adv-x="624" 
d="M570 0h-153l-202 351v-351h-162v667h165l191 -334v334h161v-667z" />
    <glyph glyph-name="Xi" unicode="&#x39e;" horiz-adv-x="520" 
d="M484 526h-448v141h448v-141zM484 0h-448v141h448v-141zM477 268h-434v141h434v-141z" />
    <glyph glyph-name="Omicron" unicode="&#x39f;" horiz-adv-x="633" 
d="M316 -12c-180 0 -291 144 -291 345s111 345 291 345s291 -144 291 -345s-111 -345 -291 -345zM316 131c82 0 127 87 127 202c0 116 -45 202 -127 202c-81 0 -126 -86 -126 -202c0 -115 45 -202 126 -202z" />
    <glyph glyph-name="Pi" unicode="&#x3a0;" horiz-adv-x="625" 
d="M571 0h-162v526h-194v-526h-162v667h518v-667z" />
    <glyph glyph-name="Rho" unicode="&#x3a1;" horiz-adv-x="556" 
d="M215 0h-162v667h268c145 0 217 -102 217 -220c0 -117 -72 -218 -217 -218h-106v-229zM301 370c43 0 73 29 73 78s-30 78 -73 78h-86v-156h86z" />
    <glyph glyph-name="Sigma" unicode="&#x3a3;" horiz-adv-x="486" 
d="M223 526l147 -185l-153 -200h235v-141h-416v144l150 198l-149 184v141h415v-141h-229z" />
    <glyph glyph-name="Tau" unicode="&#x3a4;" horiz-adv-x="487" 
d="M325 0h-162v526h-143v141h447v-141h-142v-526z" />
    <glyph glyph-name="Upsilon" unicode="&#x3a5;" horiz-adv-x="557" 
d="M360 0h-162v271l-206 396h177l110 -248l109 248h177l-205 -396v-271z" />
    <glyph glyph-name="Phi" unicode="&#x3a6;" horiz-adv-x="785" 
d="M473 0h-161v68c-189 21 -287 119 -287 265c0 145 98 243 287 264v70h161v-70c188 -21 287 -119 287 -264c0 -146 -99 -244 -287 -265v-68zM595 333c0 60 -38 103 -122 119v-239c84 16 122 59 122 120zM190 333c0 -61 37 -104 122 -120v239c-85 -16 -122 -59 -122 -119z
" />
    <glyph glyph-name="Chi" unicode="&#x3a7;" horiz-adv-x="575" 
d="M582 0h-185l-110 217l-109 -217h-185l193 341l-182 326h185l98 -204l97 204h186l-181 -325z" />
    <glyph glyph-name="Psi" unicode="&#x3a8;" horiz-adv-x="812" 
d="M487 0h-161v129c-166 21 -273 111 -273 255v283h164v-279c0 -62 38 -100 109 -115v394h161v-393c69 15 108 53 108 114v279h164v-282c0 -145 -106 -235 -272 -256v-129z" />
    <glyph glyph-name="uni03A9" unicode="&#x3a9;" horiz-adv-x="630" 
d="M38 141h94c-56 47 -108 121 -108 230c0 186 113 307 291 307s291 -120 291 -307c0 -109 -52 -183 -109 -230h95v-141h-236v141c54 26 85 112 85 193c0 108 -34 200 -126 200s-127 -92 -127 -200c0 -82 32 -167 86 -193v-141h-236v141z" />
    <glyph glyph-name="Omega" unicode="&#x2126;" horiz-adv-x="630" 
d="M38 141h94c-56 47 -108 121 -108 230c0 186 113 307 291 307s291 -120 291 -307c0 -109 -52 -183 -109 -230h95v-141h-236v141c54 26 85 112 85 193c0 108 -34 200 -126 200s-127 -92 -127 -200c0 -82 32 -167 86 -193v-141h-236v141z" />
    <glyph glyph-name="alpha" unicode="&#x3b1;" horiz-adv-x="530" 
d="M515 118l10 -121c-15 -5 -40 -9 -65 -9c-76 0 -113 31 -128 82c-25 -49 -74 -82 -128 -82c-108 0 -181 92 -181 254c0 156 72 253 181 253c44 0 90 -21 119 -69v57h145v-332c0 -22 11 -35 31 -35c6 0 11 1 16 2zM253 116c26 0 56 19 71 45v161c-15 26 -45 44 -71 44
c-53 0 -82 -50 -82 -124c0 -75 29 -126 82 -126z" />
    <glyph glyph-name="beta" unicode="&#x3b2;" horiz-adv-x="516" 
d="M193 451v-290c17 -27 44 -45 78 -45c49 0 73 37 73 79c0 53 -30 78 -73 78h-29v128h23c43 0 65 29 65 74c0 46 -23 73 -60 73c-46 0 -77 -31 -77 -97zM193 57v-241h-145v635c0 167 116 226 223 226c131 0 208 -67 208 -182c0 -74 -43 -135 -115 -151
c67 -12 130 -71 130 -177c0 -93 -72 -179 -172 -179c-54 0 -98 22 -129 69z" />
    <glyph glyph-name="gamma" unicode="&#x3b3;" horiz-adv-x="466" 
d="M305 -184h-145v100c0 220 -75 430 -176 567h159c52 -85 97 -198 106 -303c32 71 58 199 58 303h144c0 -160 -66 -352 -146 -474v-193z" />
    <glyph glyph-name="delta" unicode="&#x3b4;" horiz-adv-x="505" 
d="M260 -12c-158 0 -237 109 -237 232c0 89 42 159 95 200c-29 24 -49 57 -49 107c0 81 65 152 187 152c71 0 132 -25 178 -61l-56 -100c-23 23 -70 48 -120 48c-31 0 -53 -15 -53 -34c0 -58 277 -59 277 -321c0 -115 -71 -223 -222 -223zM346 211c0 79 -52 114 -111 144
c-40 -31 -63 -82 -63 -134c0 -60 28 -105 86 -105c59 0 88 45 88 95z" />
    </font>
</defs>
</svg>
